<svg version="1.1" xmlns="http://www.w3.org/2000/svg" viewBox="0 0 546.9385986328125 496.06359863281256" width="546.9385986328125" height="496.06359863281256">
  <!-- svg-source:excalidraw -->
  
  <defs>
    <style>
      @font-face {
        font-family: "Virgil";
        src: url("https://excalidraw.com/FG_Virgil.woff2");
      }
      @font-face {
        font-family: "Cascadia";
        src: url("https://excalidraw.com/Cascadia.woff2");
      }
    </style>
  </defs>
  <rect x="0" y="0" width="546.9385986328125" height="496.06359863281256" fill="#ffffff"></rect><g transform="translate(10.37701416015625 218.75271606445312) rotate(0 146 22.5)"><text x="0" y="32" font-family="Virgil, Segoe UI Emoji" font-size="36px" fill="#000000" text-anchor="start" style="white-space: pre;" direction="ltr">F(x) =&gt; 1 + x[0]</text></g><g transform="translate(10 325.80841064453125) rotate(0 148 22.5)"><text x="0" y="32" font-family="Virgil, Segoe UI Emoji" font-size="36px" fill="#000000" text-anchor="start" style="white-space: pre;" direction="ltr">F(x) =&gt; double(x)</text></g><g transform="translate(16.6427001953125 441.06359863281256) rotate(0 118.5 22.5)"><text x="0" y="32" font-family="Virgil, Segoe UI Emoji" font-size="36px" fill="#000000" text-anchor="start" style="white-space: pre;" direction="ltr">F(x) =&gt; zip(x)</text></g><g transform="translate(20.40106201171875 178.503173828125) rotate(0 243 10)"><text x="0" y="14" font-family="Virgil, Segoe UI Emoji" font-size="16px" fill="#000000" text-anchor="start" style="white-space: pre;" direction="ltr">takes an array and add one to the first index in the array</text></g><g transform="translate(168.07073974609375 10) rotate(0 72 22.5)"><text x="0" y="32" font-family="Virgil, Segoe UI Emoji" font-size="36px" fill="#000000" text-anchor="start" style="white-space: pre;" direction="ltr">x = [...]</text></g><g><g transform="translate(161.64556884765625 80.26791381835938) rotate(0 96.5521463221312 -12.654308717846874)"><path d="M1.495204255729914 2.2046283386647696 C4.116573577870925 -2.274109579871099, 9.23182883039117 -21.6269580381612, 18.27373978868127 -27.090382490307093 C27.315650746971368 -32.55380694245299, 47.91013293837507 -36.42354611729582, 55.74667000547051 -30.575918374210595 C63.583207072565955 -24.72829063112537, 56.93457937017084 8.242264332622291, 65.2929621912539 7.99538396820426 C73.65134501233698 7.74850360378623, 96.93507942135136 -25.458496008068323, 105.89696693196893 -32.057200560718776 C114.8588544425865 -38.65590511336923, 110.43502583280205 -37.29799917712808, 119.06428725495934 -31.59684334769845 C127.69354867711662 -25.895687518268822, 148.54336025491355 -1.909673112382492, 157.67253546491264 2.1497344158589837 C166.80171067491173 6.209141944100459, 167.744439377139 -1.7498430905242754, 173.83933851495385 -7.240398178249597 C179.9342376527687 -12.730953265974918, 191.48559392864505 -26.929372352113326, 194.24193029180168 -30.793596110492945 M-1.1376376475393775 0.9331156267225742 C2.0683703115085756 -3.1473134901622934, 14.104212839851776 -19.12510403181116, 23.16362162694335 -24.084167741388082 C32.22303041403492 -29.043231450965006, 46.184873461176956 -34.6904366146028, 53.21881507501006 -28.821266630738975 C60.25275668884317 -22.952096646875145, 55.81005053147674 11.710691729933023, 65.36727130994201 11.130852161794902 C74.92449208840728 10.55101259365678, 102.30064167444905 -26.02964339599013, 110.56213974580169 -32.300304039567706 C118.82363781715432 -38.570964683145284, 106.95279679243764 -31.789339941591024, 114.93625973805786 -26.493111699670553 C122.91972268367807 -21.196883457750083, 149.03331886395813 -4.8243225894868385, 158.462917419523 -0.5229345880448819 C167.89251597508786 3.778453413397074, 166.08619673992197 4.8464824721713855, 171.51385107144714 -0.6847836910188203 C176.9415054029723 -6.216049854209026, 187.8101641442875 -28.667159741967914, 191.028843408674 -33.710531567186116" stroke="#000000" stroke-width="1" fill="none"></path></g></g><g><g transform="translate(258.3248291015625 70.43650817871094) rotate(0 -0.9338537432253702 -2.1047485302865567)"><path d="M-1.618650422245264 -2.674532201141119 C-1.389640436321497 -2.9434814316531024, -0.539314557860295 -1.8362545909980932, -0.24905706420540819 -1.4934247992932796" stroke="#000000" stroke-width="4.5" fill="none" stroke-dasharray="12 8"></path></g></g><g transform="translate(187.76666259765625 91.48263549804688) rotate(0 138 22.5)"><text x="0" y="32" font-family="Virgil, Segoe UI Emoji" font-size="36px" fill="#862e9c" text-anchor="start" style="white-space: pre;" direction="ltr">n = 10000000</text></g><g transform="translate(14.44012451171875 288.4400939941406) rotate(0 139.5 12.5)"><text x="0" y="18" font-family="Virgil, Segoe UI Emoji" font-size="20px" fill="#000000" text-anchor="start" style="white-space: pre;" direction="ltr">double each value in the list</text></g><g transform="translate(21.99847412109375 406.1782531738281) rotate(0 136.5 12.500000000000028)"><text x="0" y="18" font-family="Virgil, Segoe UI Emoji" font-size="20px" fill="#000000" text-anchor="start" style="white-space: pre;" direction="ltr">zip each pair int to a tuple</text></g><g transform="translate(357.76239013671875 411.9804992675781) rotate(0 76 12.500000000000028)"><text x="0" y="18" font-family="Virgil, Segoe UI Emoji" font-size="20px" fill="#1864ab" text-anchor="start" style="white-space: pre;" direction="ltr">[(1,2),(3,4),(5,6)]</text></g><g transform="translate(396.771728515625 231.58535766601562) rotate(0 63.5 12.5)"><text x="0" y="18" font-family="Virgil, Segoe UI Emoji" font-size="20px" fill="#1864ab" text-anchor="start" style="white-space: pre;" direction="ltr">O(1) // speed</text></g><g transform="translate(389.9853515625 324.2963562011719) rotate(0 66.5 12.5)"><text x="0" y="18" font-family="Virgil, Segoe UI Emoji" font-size="20px" fill="#1864ab" text-anchor="start" style="white-space: pre;" direction="ltr">O(n) // speed</text></g><g transform="translate(367.9385986328125 444.7818908691407) rotate(0 84.5 12.5)"><text x="0" y="18" font-family="Virgil, Segoe UI Emoji" font-size="20px" fill="#1864ab" text-anchor="start" style="white-space: pre;" direction="ltr">O(n**2) // speed</text></g></svg>