<svg version="1.1" xmlns="http://www.w3.org/2000/svg" viewBox="0 0 2888.806182861328 1764.7873077392578" width="5777.612365722656" height="3529.5746154785156" filter="invert(93%) hue-rotate(180deg)">
  <!-- svg-source:excalidraw -->
  
  <defs>
    <style>
      @font-face {
        font-family: "Virgil";
        src: url("https://excalidraw.com/Virgil.woff2");
      }
      @font-face {
        font-family: "Cascadia";
        src: url("https://excalidraw.com/Cascadia.woff2");
      }
    </style>
  </defs>
  <rect x="0" y="0" width="2888.806182861328" height="1764.7873077392578" fill="#ffffff"></rect><g transform="translate(1131.8061828613281 10) rotate(0 873.5 106.5)"><text x="0" y="149" font-family="Virgil, Segoe UI Emoji" font-size="167.88909912109366px" fill="#1864ab" text-anchor="start" style="white-space: pre;" direction="ltr">[8 ,3 , 2 ,99 , 1 , 4 ]</text></g><g><g transform="translate(1193.1010437011719 228.9828643798828) rotate(0 833.1252173179853 2.568144131824397)"><path d="M0.5050367463380099 -0.571217517927289 C278.214869331196 0.4742331893493731, 1389.3814339030534 4.979669438923398, 1666.9393923271448 5.707505781576037 M-0.6889576911740005 1.7432893398217857 C276.83474819483234 2.5168597822201746, 1388.0042302477545 3.6120245105835296, 1666.1799227327294 4.0907137617282565" stroke="#d9480f" stroke-width="4" fill="none"></path></g></g><g><g transform="translate(983.546905517578 486.11375427246094) rotate(0 120.96436419259759 -157.49384903978557)"><path d="M0.33216253034770493 -0.5824975859373808 C40.87063958955308 -53.23563598903517, 202.44560060414176 -264.2095540018131, 242.88131925575436 -316.7137853156775 M-0.9525908705592155 1.726087236106396 C39.51611497749885 -50.65318445871274, 201.6936701602737 -261.9940099560221, 242.27926413089037 -315.17671762496235" stroke="#d9480f" stroke-width="4" fill="none"></path></g><g transform="translate(983.546905517578 486.11375427246094) rotate(0 120.96436419259759 -157.49384903978557)"><path d="M232.31733778392555 -285.4573612239665 C235.91206629619947 -293.1262604339516, 240.19066382440624 -301.393042407198, 244.21885446392 -313.2117519517988 M233.34233756916257 -285.6927280480495 C236.22700653832126 -293.78699223438736, 238.0286043802302 -300.85655571950684, 241.9114703482762 -314.95039819363507" stroke="#d9480f" stroke-width="4" fill="none"></path></g><g transform="translate(983.546905517578 486.11375427246094) rotate(0 120.96436419259759 -157.49384903978557)"><path d="M216.0236471939708 -297.9327629948378 C223.94922577624448 -302.26753383620553, 232.64131822220884 -307.15508616170905, 244.21885446392 -313.2117519517988 M217.0486469792078 -298.1681298189208 C223.82655100969177 -303.10272511804254, 229.5858938536571 -307.1420077263574, 241.9114703482762 -314.95039819363507" stroke="#d9480f" stroke-width="4" fill="none"></path></g></g><g transform="translate(687.6098632812499 511.14112854003906) rotate(0 266.55431450737836 50.82603454589844)"><text x="0" y="71.65206909179688" font-family="Virgil, Segoe UI Emoji" font-size="81.32165527343749px" fill="#d9480f" text-anchor="start" style="white-space: pre;" direction="ltr">current index</text></g><g transform="translate(1401.4982604980466 815.1952362060547) rotate(0 542.0340169270833 127.03922271728517)"><text x="0" y="177.07844543457034" font-family="Virgil, Segoe UI Emoji" font-size="203.26275634765628px" fill="#d9480f" text-anchor="start" style="white-space: pre;" direction="ltr">next index</text></g><g><g transform="translate(1638.6184692382812 808.0514678955078) rotate(0 -66.05034240875392 -319.4858121365309)"><path d="M0.11736618988215919 -1.0166481982916593 C-21.94292295066019 -107.46966033490995, -109.59686119245987 -532.0661663146068, -131.57178618200123 -638.3062454830855 M-1.2801552897691728 1.064007552266121 C-23.51728945394357 -105.76514032701651, -110.38469186762968 -533.1106874372562, -132.21805100739002 -640.0356318253279" stroke="#d9480f" stroke-width="4" fill="none"></path></g><g transform="translate(1638.6184692382812 808.0514678955078) rotate(0 -66.05034240875392 -319.4858121365309)"><path d="M-118.23023614209048 -613.5028505791108 C-121.11238999387807 -623.11082752925, -127.10086771541373 -634.8313390867962, -133.24882351644337 -640.4554163395613 M-115.86180747687719 -615.08275206854 C-121.85903975256686 -622.5795967462068, -126.33861500819188 -631.7550091944616, -131.65323418881744 -639.7629825082794" stroke="#d9480f" stroke-width="4" fill="none"></path></g><g transform="translate(1638.6184692382812 808.0514678955078) rotate(0 -66.05034240875392 -319.4858121365309)"><path d="M-138.3383114479256 -609.4058626756989 C-133.87840754074836 -620.5323035741883, -132.51076707318214 -633.7516123452139, -133.24882351644337 -640.4554163395613 M-135.96988278271232 -610.9857641651281 C-135.34756744245942 -619.7615800169095, -133.20986322728638 -630.2852524817504, -131.65323418881744 -639.7629825082794" stroke="#d9480f" stroke-width="4" fill="none"></path></g></g><g transform="translate(9.999999999999886 1185.969467163086) rotate(0 1113 65)"><text x="0" y="91" font-family="Virgil, Segoe UI Emoji" font-size="102.60400390625px" fill="#d9480f" text-anchor="start" style="white-space: pre;" direction="ltr">if array[currentIndex] &gt; array[nextIndex]</text></g><g transform="translate(202.65228271484364 1357.4713915762818) rotate(0 832.1277957492405 44.31449799848025)"><text x="0" y="61.62899599696054" font-family="Virgil, Segoe UI Emoji" font-size="70.90319679756838px" fill="#d9480f" text-anchor="start" style="white-space: pre;" direction="ltr">update the current index to be the next index</text></g><g transform="translate(72.05459594726551 1640.8190155029297) rotate(0 319.6181284586588 43.98414611816406)"><text x="0" y="61.968292236328125" font-family="Virgil, Segoe UI Emoji" font-size="70.37463378906249px" fill="#d9480f" text-anchor="start" style="white-space: pre;" direction="ltr">Swap the elements</text></g><g transform="translate(2710.806182861328 1744.7873077392578) rotate(0 84 10)"><text x="168" y="14" font-family="Virgil, Segoe UI Emoji" font-size="16px" fill="#adb5bd" text-anchor="end" style="white-space: pre;" direction="ltr">Made with Excalidraw</text></g></svg>