<svg version="1.1" xmlns="http://www.w3.org/2000/svg" viewBox="0 0 1778.242995756308 1015.2484822206541" width="1778.242995756308" height="1015.2484822206541">
  <!-- svg-source:excalidraw -->
  
  <defs>
    <style>
      @font-face {
        font-family: "Virgil";
        src: url("https://excalidraw.com/FG_Virgil.woff2");
      }
      @font-face {
        font-family: "Cascadia";
        src: url("https://excalidraw.com/Cascadia.woff2");
      }
    </style>
  </defs>
  <rect x="0" y="0" width="1778.242995756308" height="1015.2484822206541" fill="#ffffff"></rect><g transform="translate(29.278919305414774 41.21919406496181) rotate(0 540.8253784179688 341.8459777832031)"><path d="M0.18847415298223497 0.2358386054635048 C254.71417880821872 -0.0869512910650691, 508.4676895547638 -0.1242789144323787, 1082.379029868543 -0.732443092763424 M-0.15840375348925592 0.09241532012820244 C248.88782671960502 0.956912339288482, 497.7650394009512 0.6240308171098321, 1081.4760215289891 -0.2480017073452473 M1081.6102558359503 0.17622962146997453 C1083.7253824924046 189.03215429632957, 1084.4469409202154 378.63256291894305, 1082.0585736975074 683.0196804061532 M1081.9756032474338 -0.138870657235384 C1082.956013871386 188.41688914832716, 1083.1629482042335 377.0498576636065, 1081.5807568319142 683.9217613570393 M1082.4267747625709 683.6532920852303 C714.43022738565 687.4947026961719, 348.59381031878786 687.5432973140155, 0.04511062949895859 683.6271521106362 M1081.397690845281 683.9435205809772 C774.5044995393314 685.5153942631849, 467.16440958225877 685.1958260344634, -0.2821645729243755 683.3258559338749 M-0.3024475827813149 684.2446871295572 C0.09430444773532187 477.59691150372333, 0.6572355562100534 272.14410810689344, -0.2643866792321205 -0.6093932136893273 M-0.1371360771358013 683.996376144141 C-0.2798487979943644 480.4808092225502, -0.9135470945413005 276.6164256200513, -0.31169288083910945 -0.1270509846508503" stroke="#000000" stroke-width="1" fill="none"></path></g><g><g transform="translate(207.82384118041477 47.67610324464931) rotate(0 -0.9026060239318667 339.94569056176584)"><path d="M-1.0367947317659854 0.0815029241144658 C-1.2369281428555645 113.32864014481503, -1.4868536529441674 566.3224383609991, -1.8064321018755436 679.4381539203226 M0.6197493047174065 -0.9213119860645383 C0.3695067417280127 112.50695387868521, -1.6561598010205971 567.3953645636483, -2.424961352581158 680.8126931095961" stroke="#000000" stroke-width="1" fill="none"></path></g></g><g><g transform="translate(367.9087410827585 46.67366183839931) rotate(0 -0.5556787337781657 339.6353583207075)"><path d="M0.9661891244351863 -0.28477438911795616 C0.519253955533107 112.79471146439512, -0.9598951873679956 565.9345301883916, -1.5786191441118718 679.3974381305277 M0.014299685424193687 -1.4798848887439817 C-0.6123155582292626 111.69271264104482, -1.4625481410169354 567.4138046004219, -2.0775465919915588 680.7506015301589" stroke="#000000" stroke-width="1" fill="none"></path></g></g><g><g transform="translate(559.0235482116648 38.99568332277431) rotate(0 -0.799478835808145 339.4971768287802)"><path d="M-0.3131349943578243 -0.13931264653801922 C-0.7549031081298987 113.15909138744077, -1.9756083709498247 566.8434455099205, -2.394843067973852 680.25240938887 M1.7233304042648525 -1.258055731309578 C1.1045949196846536 111.63839202368943, -2.4015107459792246 565.1399004657536, -3.3222880758810787 678.3944326991309" stroke="#000000" stroke-width="1" fill="none"></path></g></g><g><g transform="translate(752.6601448913523 38.93080295168056) rotate(0 -1.6166600600723768 339.8933120264951)"><path d="M-0.7823370672762393 -0.1925744913518428 C-1.4323300975064437 113.08088719223936, -2.5859238204856716 566.3063809650639, -2.9973540760576727 679.6435381747782 M1.0077972430642697 -1.339280044650659 C0.07151876088542253 112.12913062600728, -3.9422418065213907 567.3708770348472, -4.241117363208905 681.1259040976408" stroke="#000000" stroke-width="1" fill="none"></path></g></g><g><g transform="translate(949.0949593444773 46.23945773683681) rotate(0 -1.3940194788807503 339.9268067222322)"><path d="M0.4926557399332523 -0.6147776819765568 C-0.09547086382905634 112.6129560333987, -1.8213847142954664 565.7735758724311, -2.3675687216222285 679.2123821280896 M-0.7078387259412557 1.6768600896466523 C-1.549770907756562 115.07553560877528, -2.776319669581329 567.1683492685822, -3.280694697694853 680.4683911264408" stroke="#000000" stroke-width="1" fill="none"></path></g></g><g><g transform="translate(30.197254266352274 180.1027389868368) rotate(0 541.9649890728062 -1.0909931831573942)"><path d="M0.27787030711770067 -0.5224051214754581 C181.17957168594 -1.1479901927212874, 903.9687421657144 -3.311129814138015, 1084.9653646565973 -3.999714610725641 M-1.035386510984972 1.8177282444108278 C179.72817575554365 1.4290536429950347, 902.7211576969456 -1.4910217581720397, 1083.9030693535042 -2.3962902259360996" stroke="#000000" stroke-width="1" fill="none"></path></g></g><g><g transform="translate(26.654651727289774 295.3549362524618) rotate(0 541.9314901749557 -2.050653656525526)"><path d="M-0.10203799232840538 -0.67592768445611 C180.74531692042945 -1.459776152918736, 904.4135515786706 -3.1159570035835107, 1085.4777270175516 -3.7561889864504336 M-1.6147466676402837 1.5836063358653338 C179.06593723814 0.3435800536939255, 903.3994920517039 -4.853383222076421, 1084.6844219539594 -5.6849136489164085" stroke="#000000" stroke-width="1" fill="none"></path></g></g><g><g transform="translate(34.357532586664774 423.7198044165243) rotate(0 542.7189309064626 -2.1847407608060507)"><path d="M-0.7533836580812932 0.6174407579004764 C179.9468730472028 0.05601932381590202, 903.0262561105192 -2.455500147988399, 1084.0658080123364 -3.2984897278249266 M1.0519511920865625 -0.10400678954087206 C182.11831033146942 -1.0048318442857513, 905.5538664627728 -4.456186517293876, 1086.1912454710064 -4.98692227951251" stroke="#000000" stroke-width="1" fill="none"></path></g></g><g><g transform="translate(34.325183953852274 574.2558761938681) rotate(0 542.4652842807351 -2.2450592778623104)"><path d="M0.5504057429730893 0.6356190539896487 C181.3861902497709 -0.2632955136398475, 904.8418359778822 -4.19972266977032, 1085.5503385327756 -5.125737609714269 M-0.6197699713055045 -0.07628488800488409 C180.04326906538566 -0.8817869714057694, 904.0526257605012 -3.456125863011305, 1084.795154514676 -4.113475299393758" stroke="#000000" stroke-width="1" fill="none"></path></g></g><g transform="translate(103.52849205932102 81.98256076418056) rotate(0 2 12.5)"><text x="0" y="18" font-family="Virgil, Segoe UI Emoji" font-size="20px" fill="#000000" text-anchor="start" style="white-space: pre;" direction="ltr">1</text></g><g transform="translate(271.9504280944773 94.89943088136806) rotate(0 7.5 12.5)"><text x="0" y="18" font-family="Virgil, Segoe UI Emoji" font-size="20px" fill="#000000" text-anchor="start" style="white-space: pre;" direction="ltr">2</text></g><g transform="translate(459.5113411804148 96.73304904543056) rotate(0 7 12.5)"><text x="0" y="18" font-family="Virgil, Segoe UI Emoji" font-size="20px" fill="#000000" text-anchor="start" style="white-space: pre;" direction="ltr">3</text></g><g transform="translate(650.8798714538523 96.53407443605556) rotate(0 6 12.5)"><text x="0" y="18" font-family="Virgil, Segoe UI Emoji" font-size="20px" fill="#000000" text-anchor="start" style="white-space: pre;" direction="ltr">4</text></g><g transform="translate(828.0507698913523 92.70320285402431) rotate(0 7 12.5)"><text x="0" y="18" font-family="Virgil, Segoe UI Emoji" font-size="20px" fill="#000000" text-anchor="start" style="white-space: pre;" direction="ltr">5</text></g><g transform="translate(1009.5181771179148 101.01820529543056) rotate(0 5 12.5)"><text x="0" y="18" font-family="Virgil, Segoe UI Emoji" font-size="20px" fill="#000000" text-anchor="start" style="white-space: pre;" direction="ltr">6</text></g><g transform="translate(99.03361901244602 228.81605685793056) rotate(0 4 12.5)"><text x="0" y="18" font-family="Virgil, Segoe UI Emoji" font-size="20px" fill="#000000" text-anchor="start" style="white-space: pre;" direction="ltr">7</text></g><g transform="translate(277.464283074946 234.07863010011806) rotate(0 6.5 12.5)"><text x="0" y="18" font-family="Virgil, Segoe UI Emoji" font-size="20px" fill="#000000" text-anchor="start" style="white-space: pre;" direction="ltr">8</text></g><g transform="translate(421.273609246821 234.09291232668056) rotate(0 5.5 12.5)"><text x="0" y="18" font-family="Virgil, Segoe UI Emoji" font-size="20px" fill="#000000" text-anchor="start" style="white-space: pre;" direction="ltr">9</text></g><g transform="translate(603.4534798522898 226.1974350317587) rotate(0 9.5 12.5)"><text x="0" y="18" font-family="Virgil, Segoe UI Emoji" font-size="20px" fill="#000000" text-anchor="start" style="white-space: pre;" direction="ltr">10</text></g><g transform="translate(815.9721566101023 223.24598849855556) rotate(0 3.5 12.5)"><text x="0" y="18" font-family="Virgil, Segoe UI Emoji" font-size="20px" fill="#000000" text-anchor="start" style="white-space: pre;" direction="ltr">11</text></g><g transform="translate(1021.8196907897898 223.71287692628994) rotate(0 9.5 12.5)"><text x="0" y="18" font-family="Virgil, Segoe UI Emoji" font-size="20px" fill="#000000" text-anchor="start" style="white-space: pre;" direction="ltr">12</text></g><g transform="translate(84.78380211791477 335.50526584230556) rotate(0 9 12.5)"><text x="0" y="18" font-family="Virgil, Segoe UI Emoji" font-size="20px" fill="#000000" text-anchor="start" style="white-space: pre;" direction="ltr">13</text></g><g transform="translate(256.0049935241648 354.58290256105556) rotate(0 7.5 12.5)"><text x="0" y="18" font-family="Virgil, Segoe UI Emoji" font-size="20px" fill="#000000" text-anchor="start" style="white-space: pre;" direction="ltr">14</text></g><g transform="translate(444.654224481196 337.81984103761806) rotate(0 9 12.5)"><text x="0" y="18" font-family="Virgil, Segoe UI Emoji" font-size="20px" fill="#000000" text-anchor="start" style="white-space: pre;" direction="ltr">15</text></g><g transform="translate(640.5589486022898 341.5557419165243) rotate(0 7 12.5)"><text x="0" y="18" font-family="Virgil, Segoe UI Emoji" font-size="20px" fill="#000000" text-anchor="start" style="white-space: pre;" direction="ltr">16</text></g><g transform="translate(824.0196419616648 345.0111862524618) rotate(0 5.5 12.5)"><text x="0" y="18" font-family="Virgil, Segoe UI Emoji" font-size="20px" fill="#000000" text-anchor="start" style="white-space: pre;" direction="ltr">17</text></g><g transform="translate(1013.9141732116648 343.7232223852743) rotate(0 8 12.5)"><text x="0" y="18" font-family="Virgil, Segoe UI Emoji" font-size="20px" fill="#000000" text-anchor="start" style="white-space: pre;" direction="ltr">18</text></g><g transform="translate(112.84703453978977 470.9628464087118) rotate(0 7 12.5)"><text x="0" y="18" font-family="Virgil, Segoe UI Emoji" font-size="20px" fill="#000000" text-anchor="start" style="white-space: pre;" direction="ltr">19</text></g><g transform="translate(258.963062371821 485.7123581274618) rotate(0 15 12.5)"><text x="0" y="18" font-family="Virgil, Segoe UI Emoji" font-size="20px" fill="#000000" text-anchor="start" style="white-space: pre;" direction="ltr">20</text></g><g transform="translate(443.9295540710398 478.49781955324306) rotate(0 9.5 12.5)"><text x="0" y="18" font-family="Virgil, Segoe UI Emoji" font-size="20px" fill="#000000" text-anchor="start" style="white-space: pre;" direction="ltr">21</text></g><g transform="translate(662.7272835632273 486.9337936743368) rotate(0 15.5 12.5)"><text x="0" y="18" font-family="Virgil, Segoe UI Emoji" font-size="20px" fill="#000000" text-anchor="start" style="white-space: pre;" direction="ltr">22</text></g><g transform="translate(840.9221077819773 485.29469455324306) rotate(0 15 12.5)"><text x="0" y="18" font-family="Virgil, Segoe UI Emoji" font-size="20px" fill="#000000" text-anchor="start" style="white-space: pre;" direction="ltr">23</text></g><g transform="translate(1003.4184456726023 488.42286838136806) rotate(0 13.5 12.5)"><text x="0" y="18" font-family="Virgil, Segoe UI Emoji" font-size="20px" fill="#000000" text-anchor="start" style="white-space: pre;" direction="ltr">24</text></g><g transform="translate(104.09154137572727 634.2118698462118) rotate(0 14.5 12.5)"><text x="0" y="18" font-family="Virgil, Segoe UI Emoji" font-size="20px" fill="#000000" text-anchor="start" style="white-space: pre;" direction="ltr">25</text></g><g transform="translate(245.00310143432102 634.9756027563681) rotate(0 12 12.5)"><text x="0" y="18" font-family="Virgil, Segoe UI Emoji" font-size="20px" fill="#000000" text-anchor="start" style="white-space: pre;" direction="ltr">26</text></g><g transform="translate(437.6255379577585 628.6103683813681) rotate(0 11 12.5)"><text x="0" y="18" font-family="Virgil, Segoe UI Emoji" font-size="20px" fill="#000000" text-anchor="start" style="white-space: pre;" direction="ltr">27</text></g><g transform="translate(678.2564583679148 642.4351364477743) rotate(0 14 12.5)"><text x="0" y="18" font-family="Virgil, Segoe UI Emoji" font-size="20px" fill="#000000" text-anchor="start" style="white-space: pre;" direction="ltr">28</text></g><g transform="translate(844.2897835632273 635.8785568579306) rotate(0 11 12.5)"><text x="0" y="18" font-family="Virgil, Segoe UI Emoji" font-size="20px" fill="#000000" text-anchor="start" style="white-space: pre;" direction="ltr">29</text></g><g transform="translate(1012.3745003601023 639.7889572485556) rotate(0 15 12.5)"><text x="0" y="18" font-family="Virgil, Segoe UI Emoji" font-size="20px" fill="#000000" text-anchor="start" style="white-space: pre;" direction="ltr">30</text></g><g transform="translate(314.49233308889677 845.7396059650736) rotate(0 74.5 22.5)"><text x="0" y="32" font-family="Virgil, Segoe UI Emoji" font-size="36px" fill="#000000" text-anchor="start" style="white-space: pre;" direction="ltr">1 , 2 ,3 </text></g><g><g transform="translate(265.2740190542985 830.3138595923057) rotate(0 -5.6776835962213 41.12719476952202)"><path d="M-0.5116798304021358 -0.897093341499567 C-8.747036564314666 -0.6994854530053506, -42.62951834255041 -9.718193914812241, -50.442387581403864 0.5241215353565394 C-58.255256820257316 10.766436985525319, -63.60684104018978 46.388958825348325, -47.38889526352286 60.556799359513114 C-31.170949486855946 74.7246398936779, 31.2404357916187 81.17826949978864, 46.86528707859763 85.53116474034528 M1.4205495292972774 1.2463287088740618 C-6.917042023848669 1.6869773810716053, -43.38539490042397 -8.075519029522498, -51.59659399597117 1.9462839568978278 C-59.80779309151837 11.968086943318154, -64.38745321897923 47.268476479724434, -47.846645043985916 61.377146627396016 C-31.305836868992603 75.4858167750676, 32.14713018055777 82.83311797752663, 47.64825505398871 86.59830484292733" stroke="#000000" stroke-width="1" fill="none"></path></g></g><g><g transform="translate(477.50389489135216 813.0848556860557) rotate(0 5.425798494746573 55.38373677241981)"><path d="M-0.005223581939935773 -0.1475238226354123 C7.958686833119129 0.44780741138827496, 41.57184021242329 -14.876553711969223, 47.862110439900974 3.1871599668903174 C54.15238066737866 21.250873645749856, 52.497871235403416 91.18874378605261, 37.736397782926176 108.23475825052182 C22.974924330448935 125.28077271499103, -27.67107138750803 105.7762412599511, -40.70673027496248 105.46324675370556 M-1.4671046917978674 -1.2705777748581024 C6.303689025890193 -0.4913453366656185, 39.82948603897721 -14.074860127413464, 46.744782698432644 4.399751549361822 C53.66007935788808 22.874363226137106, 54.578891326495636 92.62956089831405, 40.02467526493474 109.57709228579361 C25.47045920337385 126.52462367327317, -26.91824541604805 106.55870960415712, -40.58051367093272 106.08493987423917" stroke="#000000" stroke-width="1" fill="none"></path></g></g><g transform="translate(584.946957809879 856.568062298779) rotate(0 461 22.5)"><text x="0" y="32" font-family="Virgil, Segoe UI Emoji" font-size="36px" fill="#000000" text-anchor="start" style="white-space: pre;" direction="ltr">VEC&lt;i64&gt; each number will take up 64 bit, so 8-byte</text></g><g transform="translate(159.056611827736 960.2484822206541) rotate(0 597 22.5)"><text x="0" y="32" font-family="Virgil, Segoe UI Emoji" font-size="36px" fill="#000000" text-anchor="start" style="white-space: pre;" direction="ltr">we need 3 * 8 memory slots to store our list, so 24 memory slots</text></g><g><g transform="translate(72.89800761456638 132.74005064978337) rotate(0 142.23653048219495 -24.08584178039419)"><path d="M-0.4875615812838078 -0.6850901506841183 C10.05531662755779 -1.13867939366471, 28.02312778855365 -2.8279792348188892, 62.58853861487339 -3.0181708613676563 C97.15394944119313 -3.2083624879164234, 169.8978309335808 -2.8065158054587367, 206.90490337663462 -1.8262399099767208 C243.91197581968845 -0.8459640144947049, 286.09445263881776 1.071931825968478, 284.63097327319645 2.863484511524439 C283.16749390757514 4.6550371970804, 227.62552022476282 9.69289018941069, 198.12402718290687 8.923076203359045 C168.62253414105092 8.1532622173074, 127.98835279483878 0.9183268257904964, 107.62201502206067 -1.7553994047854302 C87.25567724928256 -4.429125635361357, 76.83677463755006 -4.455246569393637, 75.92600054623821 -7.119281180096516 C75.01522645492636 -9.783315790799396, 94.86112069058275 -15.262729607841779, 102.15737047418952 -17.73960706900271 C109.45362025779629 -20.21648453016364, 131.03906661892933 -21.174943415856056, 119.7034992478788 -21.980545947062097 C108.36793187682828 -22.78614847826814, 45.58991871444242 -21.90818815852203, 34.14396624788642 -22.573222256238957 C22.698013781330417 -23.238256353955883, 25.973710575522453 -25.662228995809947, 51.027784448542796 -25.970750533363645 C76.08185832156315 -26.279272070917344, 176.98120438594898 -23.639275691019627, 184.46840948600848 -24.42435148156114 C191.95561458606798 -25.20942727210265, 95.61880418683093 -28.000920854828173, 95.95101504889985 -30.68120527661271 C96.28322591096877 -33.36148969839725, 178.87213242050439 -37.18252564097444, 186.46167465842197 -40.50605801226837 C194.05121689633955 -43.8295903835623, 146.7442786284501 -48.58310215185795, 141.48826847640535 -50.622399504376304 C136.2322583243606 -52.66169685689466, 144.57198888116645 -51.808192670309815, 154.9256137461534 -52.74184212737848 C165.27923861114036 -53.67549158444715, 206.28965503598246 -55.853686914522015, 203.61001766632705 -56.22429624678833 C200.93038029667164 -56.59490557905464, 135.92442727425976 -54.789833152258666, 138.8477895282209 -54.965498120976335 C141.77115178218202 -55.141163089694004, 207.3517869018018 -57.12778483171547, 221.15019119009375 -57.27828605909432 M1.4573298592027277 1.5696335748676211 C11.866867638678691 1.3601784233238923, 26.80535614775185 -1.0428523786166293, 61.43749472288283 -1.3978811375597102 C96.06963329801381 -1.7529098965027912, 171.9963066728568 -1.4941052118950457, 209.2501613099886 -0.5605389787908641 C246.50401594712042 0.3730272543133174, 286.4962145517354 2.5912302771481164, 284.9606225456737 4.203516261065379 C283.42503053961195 5.815802244982641, 229.8710571170931 10.314219864066262, 200.0366092736181 9.113176924712711 C170.2021614301431 7.9121339853591595, 126.5030780939345 -0.16676052398754448, 105.9539354848236 -3.0027413750559298 C85.4047928757127 -5.838722226124315, 77.52531350172121 -5.355734164659367, 76.74175361895266 -7.9027081816976015 C75.9581937361841 -10.449682198735836, 93.79440961847126 -16.23289150216881, 101.25257618821226 -18.284585477285333 C108.71074275795326 -20.336279452401858, 132.53426555888416 -19.476912854712523, 121.49075303739868 -20.212872032396742 C110.4472405159132 -20.94883121008096, 46.76313567389467 -21.872338438645606, 34.99150105929934 -22.700340543390634 C23.219866444704003 -23.528342648135663, 26.085538730360167 -24.905366824582835, 50.86094534982664 -25.180884660866905 C75.63635196929312 -25.456402497150975, 176.15507168989222 -23.400647045843556, 183.6439407760982 -24.353447561095056 C191.13280986230416 -25.306248076346556, 95.35213548080688 -28.126029342499415, 95.7941598670624 -30.897687752375898 C96.23618425331793 -33.66934616225238, 178.66032404202215 -38.11476335705878, 186.29608709363134 -40.98339802035396 C193.93185014524053 -43.85203268364914, 146.6474855209759 -45.783193040065726, 141.6087381767176 -48.109495732146975 C136.5699908324593 -50.435798424228224, 145.8747242034985 -53.66144838187088, 156.0636030280816 -54.941214172841434 C166.2524818526647 -56.220979963811985, 205.303202271626 -55.75507516756077, 202.74201112421625 -55.78809047797029 C200.1808199768065 -55.82110578837982, 137.88206484080203 -54.85685859116902, 140.6964561436232 -55.13930603529858 C143.5108474464444 -55.42175347942814, 206.03682526028715 -57.11118238653587, 219.62835894114338 -57.482775142747634" stroke="#a61e4d" stroke-width="4" fill="none"></path></g></g><g><g transform="translate(342.1917436636735 75.4279953344932) rotate(0 89.77019091484368 30.474258073529768)"><path d="M0.21848062053322792 0.6780337594449519 C7.6575695202819025 0.6780113742110254, 20.54059724754526 -1.9009691954013967, 44.964400437367864 -0.9883007367806897 C69.38820362719046 -0.07563227815998264, 135.01096738466902 4.799514473016771, 146.76129975946884 6.154044511169195 C158.51163213426867 7.508574549321619, 131.91050248092841 8.456331229174422, 115.46639468616675 7.138879492133856 C99.02228689140509 5.821427755093288, 57.716187632119336 -0.010315127635297516, 48.09665299089888 -1.7506659110742078 C38.47711834967843 -3.4910166945131182, 43.2058967221706 -3.5390540384465794, 57.749186838844025 -3.303225208499606 C72.29247695551746 -3.0673963785526324, 115.31046994360428 -1.1178153651456086, 135.35639369093946 -0.33569293139236733 C155.40231743827462 0.4464295023608741, 182.70438820694895 -0.33771558606199115, 178.02472932285508 1.3895093940198422 C173.3450704387612 3.1167343741016755, 108.04507396849135 8.166823214540893, 107.27844038637618 10.027656949098633 C106.511806804261 11.888490683656373, 171.69853180877521 10.999800873902572, 173.42492783016405 12.554511801366283 C175.1513238515529 14.109222728829995, 141.63628504904256 17.874539622770893, 117.6368165147092 19.355922513880905 C93.63734798037582 20.837305404990918, 25.942277955476797 21.096170483281206, 29.428116624163795 21.442809148026356 C32.913955292850794 21.789447812771506, 137.5295749579512 18.10987603774384, 138.55184852683118 21.435754502351806 C139.57412209571115 24.76163296695977, 52.97053352484388 37.81460502825322, 35.56175803744365 41.39807993567415 C18.152982550043426 44.981554843095076, 18.97375438160134 40.37860086301252, 34.099195602429816 42.93660394687737 C49.224636823258294 45.494607030742216, 107.85884899585737 53.52037492362514, 126.31440536241453 56.74609843886323 C144.7699617289717 59.971821954101316, 146.38623635942741 60.85913526440661, 144.8325338017728 62.29094503830587 C143.27883124411818 63.72275481220513, 120.11712194571186 65.43963286191935, 116.99219001648684 65.3369570822588 C113.86725808726183 65.23428130259826, 124.6781670735351 62.200484078235576, 126.08294222642273 61.674890360342616 M-1.125955783026293 -0.011602462185546836 C6.175913651645458 -0.30242357558748406, 19.805950319784355 -4.18281914247955, 44.31434611156189 -2.9406617170958236 C68.82274190333942 -1.6985042917120967, 134.54217197512185 6.106300221813309, 145.92441896763893 7.441342090116814 C157.306665960156 8.77638395842032, 129.08538263859097 6.606421758394602, 112.60782806666437 5.069589492725209 C96.13027349473778 3.532757227055815, 56.536123619366485 -0.17027472025893364, 47.059091536079364 -1.779651503899546 C37.582059452792244 -3.3890282875401585, 40.92640118663113 -4.698050063872893, 55.74563556694163 -4.5866712091184665 C70.56486994725212 -4.47529235436404, 115.2233265900359 -2.024635464899868, 135.97449781794234 -1.1113783753729867 C156.72566904584878 -0.19812128584610555, 184.75135296911324 -0.721681154110871, 180.2526629343803 0.89287132804282 C175.75397289964738 2.507423810196511, 110.0331386810288 6.688562109914312, 108.98235760954472 8.57593651754916 C107.93157653806064 10.463310925184006, 172.47675037908027 10.808408068223802, 173.9479765054758 12.2171177738519 C175.41920263187131 13.625827479479998, 142.08416212913852 15.569072933499038, 117.8097143679179 17.02819475131775 C93.5352666066973 18.48731656913646, 24.86972011389085 20.356599287933967, 28.301289938152166 20.97184868076416 C31.732859762413483 21.587098073594355, 137.23840435158948 17.343536352022518, 138.3991333134858 20.7196911082989 C139.55986227538213 24.09584586457528, 52.627564070866455 37.1060920841677, 35.26566370953006 41.228777218422444 C17.90376334819366 45.35146235267719, 18.83543042929714 42.70309918700628, 34.227731145467395 45.455801913827386 C49.62003186163765 48.20850464064849, 109.35744649851924 55.360425914700265, 127.6194680065516 57.74499357934907 C145.88148951458396 60.12956124399788, 145.2276265462271 58.464842272248745, 143.79986019366157 59.76320790172023 C142.37209384109605 61.06157353119171, 121.67009749357503 65.26230376502278, 119.05286989115847 65.53518735617799 C116.4356422887419 65.80807094733319, 127.05533077901632 61.68971136202815, 128.09649457916223 61.4005094486515" stroke="#a61e4d" stroke-width="4" fill="none"></path></g></g><g><g transform="translate(1111.0506478210398 425.16070494665837) rotate(0 -536.5544534768889 -129.2554171287656)"><path d="M0.33857202753424653 -0.7896588943898677 C-0.613765079669982 23.215150481781794, 3.6590563047146674 118.61646826554625, -5.388874463843285 143.25662320969363 C-14.436805232401237 167.896778153841, 17.379977340889916 147.04163387676795, -53.94901258381346 147.05127077049445 C-125.27800250851683 147.06090766422096, -350.21477897511363 145.50977437783564, -433.36281401206355 143.31444457205276 C-516.5108490490135 141.1191147662699, -518.0500307004013 137.45938522308353, -552.837222805513 133.87929193579723 C-587.6244149106246 130.29919864851092, -614.2815750122427 123.89441567776461, -642.0859666427333 121.83388484833499 C-669.8903582732239 119.77335401890537, -690.2156072696406 117.82920551587426, -719.6635725884566 121.51610695921947 C-749.1115379072727 125.20300840256468, -798.0807674930566 139.58727536148257, -818.7737585556296 143.95529350840619 C-839.4667496182026 148.3233116553298, -822.5699267762404 147.58088804941093, -843.8215189638948 147.72421584076116 C-865.0731111515493 147.8675436321114, -904.8834048271535 144.54122091875902, -946.283311681556 144.8152602565076 C-987.6832185359585 145.08929959425618, -1069.627121474665 154.7292353023021, -1092.2209600903095 149.3684518672526 C-1114.814798705954 144.00766843220308, -1084.2995566527404 183.32747979565033, -1081.8463433754232 112.65055964621047 C-1079.393130098106 41.973639496770616, -1077.7599080687833 -197.45336183306006, -1077.501680426406 -274.69306902938655 C-1077.2434527840287 -351.93277622571304, -1079.9815167291176 -337.27135872212904, -1080.2969775211598 -350.78768353174837 C-1080.612438313202 -364.3040083413677, -1090.0007543552847 -350.68501888169413, -1079.394445178658 -355.79101788710267 C-1068.7881360020315 -360.8970168925112, -1042.5215481236226 -373.8411613628623, -1016.6591224614001 -381.42367756419947 C-990.7966967991777 -389.00619376553664, -945.079211231676 -397.16115297529666, -924.2198912053237 -401.28611509512575 C-903.3605711789714 -405.41107721495484, -920.4669042542224 -405.18656098555243, -891.5032023032863 -406.173450283174 C-862.5395003523503 -407.1603395807956, -794.7920066322955 -408.2934631001027, -750.4376794997072 -407.20745088085533 C-706.0833523671189 -406.12143866160795, -667.6656686170118 -403.99859821054906, -625.3772395077563 -399.6573769676898 C-583.0888103985008 -395.31615572483054, -544.2182729278646 -385.69324105066204, -496.7071048441742 -381.1601234236998 C-449.19593676048373 -376.6270057967376, -423.87852062047256 -372.92563758630837, -340.31023100561345 -372.4586712059166 C-256.74194139075433 -371.9917048255248, -51.08522656648635 -464.6782445697202, 4.702632844980371 -378.358325141349 C60.49049225644709 -292.03840571297775, -3.891397764604645 58.05695046189999, -5.583074536813092 145.46084536431096 M-0.9428163873497397 1.4101662407163533 C-1.543768219726488 25.70357681419036, 5.8097580357762295 120.42972833824881, -3.1097777514570497 144.89402680567204 C-12.029313538690328 169.35832527309526, 17.216946765292263 148.28271920218222, -54.46003111074941 148.19595704525577 C-126.13700898679109 148.1091948883293, -350.41503590072074 146.72771839750527, -433.17164500770707 144.37345386411326 C-515.9282541146933 142.01918933072125, -516.394257225911 138.00077234290757, -550.9996857526673 134.0703698449036 C-585.6051142794237 130.13996734689965, -612.2839139847163 122.5998754086226, -640.804216168245 120.79103887608943 C-669.3245183517738 118.98220234355627, -692.2589390239322 118.89209411425117, -722.1214988538399 123.21735064970461 C-751.9840586837475 127.54260718515806, -799.445235242438 142.8845449700938, -819.9795751476914 146.74257808881012 C-840.5139150529449 150.60061120752644, -824.348649503027 146.79614333782746, -845.3275382853608 146.3655493620025 C-866.3064270676946 145.93495538617753, -904.6653776733283 143.5499632240322, -945.8529078416941 144.15901423386035 C-987.0404380100599 144.76806524368848, -1069.5373036325036 155.41629426958883, -1092.4527192955559 150.01985542097128 C-1115.3681349586082 144.62341657235373, -1085.7761467554374 182.64663251883792, -1083.345401820007 111.78038114215511 C-1080.9146568845767 40.91412976547231, -1078.3388070810752 -197.96758417072886, -1077.8682496829745 -275.1776528391255 C-1077.3976922848738 -352.3877215075222, -1080.2879783379096 -338.0496767074308, -1080.5220574314028 -351.480030868225 C-1080.756136524896 -364.9103850290192, -1089.9882228602742 -350.98722323080034, -1079.2727242439335 -355.75977780389064 C-1068.5572256275927 -360.53233237698095, -1041.9276838279256 -372.1277437807136, -1016.2290657333592 -380.1153583067669 C-990.5304476387929 -388.10297283282017, -945.7191033324517 -399.41274951497843, -925.0810156765356 -403.68546496021025 C-904.4429280206194 -407.9581804054421, -921.8434712332972 -405.2912079076695, -892.4005397978626 -405.75165097815784 C-862.957608362428 -406.2120940486462, -793.0535841467895 -407.2516652321545, -748.4234270639281 -406.44812338314017 C-703.7932699810667 -405.64458153412585, -666.4207848899623 -404.94620980630447, -624.6195973006944 -400.93039988407196 C-582.8184097114265 -396.91458996183945, -545.0976116388526 -387.4121591495346, -497.6163015283205 -382.35326384974513 C-450.13499141778834 -377.29436854995566, -423.4940712962465 -371.09230787273094, -339.7317366375017 -370.57702808533526 C-255.96940197875688 -370.0617482979396, -50.976622471588016 -465.1399797325204, 4.957706424148318 -379.26158512537097 C60.892035319884656 -293.38319051822157, -2.6494412919935915 57.01783987012517, -4.125763263083663 144.69333955756125" stroke="#a61e4d" stroke-width="4" fill="none"></path></g></g><g><g transform="translate(576.7093043500577 141.6281644890691) rotate(0 84.81652447717318 2.4558366382887016)"><path d="M1.0511744119226931 0.44003792032599454 C15.556047184729838 0.10957683037434168, 57.96536962024501 -2.686123775336015, 86.03836500250854 -2.7474274919501456 C114.11136038477207 -2.808731208564276, 164.59337841616488 -0.5536835159928918, 169.48914670550386 0.07221562064121367 C174.38491499484283 0.6981147572753191, 120.02714257300602 0.6157515684409058, 115.41297473854243 1.0079673278544874 C110.79880690407884 1.400183087268069, 155.56420789619978 1.6719390812019603, 141.80413969872234 2.4255101771227032 C128.0440715012449 3.179081273043446, 34.4702412384251 5.152052048238981, 32.85256555367787 5.529393903378946 C31.23488986893064 5.90673575851891, 115.70205063539589 4.975842318045278, 132.09808559023895 4.689561307962492 M0.1439022488426418 -0.37454611684195704 C14.671119555748888 -0.4520017090399897, 57.47092942106171 -1.0389785524169535, 85.6523068683234 -1.3196227433386207 C113.83368431558507 -1.600266934260288, 164.14043394219604 -2.6363864648444024, 169.2321669324127 -2.05841126237196 C174.32389992262935 -1.4804360598995179, 120.5130985617242 1.2672829845162101, 116.20270480962327 2.148228471496034 C111.89231105752233 3.0291739584758575, 157.02719326720643 2.308782943335061, 143.3698044198071 3.2272616595069827 C129.7124155724078 4.145740375678905, 35.99031026532556 7.6140495601194536, 34.258371725227356 7.659100768527565 C32.52643318512915 7.704151976935676, 117.02394661767441 4.246802884046291, 132.9781731792179 3.4975689099556506" stroke="#a61e4d" stroke-width="4" fill="none"></path></g></g><g><g transform="translate(772.3390127763969 149.93487486853337) rotate(0 81.81615203323179 -3.9254265858094612)"><path d="M-0.27400839105248453 -0.25904449447989464 C12.120336914026998 -0.6771943279320245, 73.21833250291988 -1.4831316987318435, 75.03273123555937 -1.3927562650825052 C76.84712996819886 -1.3023808314331669, 11.618077863930155 1.040098189775449, 10.612384004784417 0.283208107416135 C9.606690145638678 -0.473681974943179, 53.18719865363975 -4.543852526197807, 68.99856808068493 -5.934096759238389 C84.80993750773013 -7.32434099227897, 107.33299118901284 -8.757695318935859, 105.48060056705553 -8.058257290827356 C103.62820994509822 -7.358819262718854, 51.33903526915683 -2.53051605618426, 57.88422434894105 -1.7374685905873775 C64.42941342872528 -0.9444211249904951, 127.42478308901192 -3.2692396123848897, 144.75173504576088 -3.2999724972460625 C162.07868700250984 -3.330705382107235, 158.6928864807955 -2.112779096726848, 161.84593608943482 -1.921865899754414 M1.7829984743054959 -1.440646799420938 C13.931520401716122 -1.7290600862970447, 72.56063092260965 -3.3561148543456087, 73.90786942646028 -3.3771432874045493 C75.25510793031091 -3.39817172046349, 10.568173231874024 -1.3163957917703422, 9.86642949740928 -1.56681739777458 C9.164685762944536 -1.817239003778818, 53.99621545676094 -3.763749063030482, 69.69740701967181 -4.879672923429977 C85.3985985825827 -5.995596783829472, 106.33726173894162 -8.573979707304806, 104.07357887487453 -8.262360560171551 C101.80989601080744 -7.950741413038296, 49.28532431160545 -3.632148018608404, 56.11530983526928 -3.009958040630445 C62.94529535893311 -2.3877680626524858, 127.08832491314969 -4.591846657027681, 145.0534920168575 -4.529220692303797 C163.01865912056527 -4.466594727579913, 161.01823452862382 -3.3271623767712697, 163.90631245751604 -2.6342022522871433" stroke="#a61e4d" stroke-width="4" fill="none"></path></g></g><g><g transform="translate(975.6793796848792 162.98567355714943) rotate(0 59.05679851591185 -4.398906825542696)"><path d="M0.4537187911570073 -0.9402320601046086 C-6.694467496268816 -1.17899069789619, -44.75268689163391 0.3403039080401641, -42.02363714884441 -0.6196817035121172 C-39.29458740605491 -1.5796673150643983, -10.100358601375682 -5.845015500876148, 16.828017247894014 -6.700145729418296 C43.75639309716371 -7.555275957960443, 95.86257414764593 -6.268230512064095, 119.54661794677376 -5.750463074765003 C143.2306617459016 -5.232695637465911, 159.97242320438932 -3.845947919608568, 158.93228004266103 -3.59354110562374 C157.89213688093275 -3.341134291638912, 126.31211035084857 -3.883485338836861, 113.30575897640406 -4.236022190856033 C100.29940760195956 -4.588559042875206, 84.00760052377979 -4.883344920511731, 80.89417179599404 -5.708762217738775 C77.7807430682083 -6.534179514965818, 97.64969775964096 -9.499518073208236, 94.62518660968958 -9.188525974218294 C91.6006754597382 -8.877533875228352, 67.87030775039679 -4.689189506747859, 62.747104896285734 -3.842809623799121 M-0.7672175728250294 1.1805421630013733 C-8.109059864024067 0.5228253884724452, -45.5519448943193 -1.2527437180808054, -42.7311135999899 -2.395454947220653 C-39.910282305660495 -3.538166176360501, -10.832319086701805 -5.329602678314809, 16.157770193151364 -5.675725211837712 C43.14785947300453 -6.021847745360614, 95.09493200601878 -4.892048996115248, 119.20942207912914 -4.4721901483580675 C143.3239121522395 -4.052331300600887, 161.58037957117975 -3.5641665773834186, 160.8447106318135 -3.1565721252946286 C160.10904169244728 -2.7489776732058386, 127.96928090102915 -1.9438575711380215, 114.79540844293169 -2.026623435825327 C101.62153598483422 -2.109389300512632, 85.29957511445197 -2.3278785837082205, 81.8014758832287 -3.65316731341846 C78.30337665200544 -4.978456043128699, 96.75524160191007 -9.702707901110479, 93.80681305559209 -9.978355814086765 C90.8583845092741 -10.25400372706305, 68.97412508124708 -6.172812032482686, 64.11090460532083 -5.307054791276178" stroke="#a61e4d" stroke-width="4" fill="none"></path></g></g><g><g transform="translate(639.3847368277361 212.8305570671941) rotate(0 215.6891734488289 -1.4502052661539722)"><path d="M-0.6878292940557003 -0.6078533627092838 C39.82128985442575 -0.18525927978612527, 190.31282090519858 2.5826046693537688, 243.91397681864242 3.1680790957595377 C297.5151327320863 3.7535535221653067, 332.4847665122935 4.325530550557928, 320.91910618660734 2.9049931957253308 C309.35344586092117 1.4844558408927335, 177.30244957666312 -3.716499310483516, 174.5200148645256 -5.355145033236044 C171.73758015238806 -6.993790755988573, 261.5041920384127 -7.90890123166501, 304.2244979137822 -6.92688114078984 C346.9448037891517 -5.94486104991467, 424.7085543979138 -0.39931954659875835, 430.84185011674265 0.5369755120149762 C436.9751458355715 1.4732705706287108, 351.92843541818723 -1.0515880187707314, 341.0242722267552 -1.309110789107433 C330.1201090353232 -1.5666335594441345, 375.1553297048881 -1.1686308134524892, 365.41687096815053 -1.0081611100052328 C355.67841223141295 -0.8476914065579763, 296.41741573643844 -0.4401504278537611, 282.5935198063298 -0.346292568423894 M1.1519215972255914 1.6874196765292435 C41.48998779598047 2.2130775076332685, 190.21750954956119 4.578156697072864, 243.33885390159938 4.429750510926468 C296.46019825363754 4.281344324780071, 331.3366965407451 2.2699339380616266, 319.87998770945467 0.7969825596508622 C308.42327887816424 -0.675968818759902, 176.88836776769188 -3.149500161263452, 174.59860091385696 -4.407957759538117 C172.30883406002204 -5.666415357812783, 263.23012404013565 -7.415246061863224, 306.1413865864451 -6.7537630299971285 C349.05264913275454 -6.092279998131033, 426.14725589995203 -1.6391146622912993, 432.06617619171357 -0.43905956834154725 C437.9850964834751 0.7609955256082048, 352.87840582354045 0.5298487871499438, 341.65490833701443 0.4465675337013839 C330.4314108504884 0.3632862802528241, 374.7613883018102 -0.6340987875024595, 364.72519127255737 -0.9387470890329062 C354.68899424330453 -1.2433953905633528, 295.5528403703121 -1.437648714024646, 281.4377261614974 -1.3813222754812955" stroke="#a61e4d" stroke-width="4" fill="none"></path></g></g><g><g transform="translate(510.41152254202177 201.5653418746718) rotate(0 14.70608943796276 -3.9949681971848747)"><path d="M1.1573249123990534 0.4308464147150517 C21.09300751228421 0.5265077472087816, 109.13068721517938 1.0485463489024045, 119.37808409641914 0.8627119059008803 C129.6254809776589 0.6768774628993562, 97.74578153742928 0.7502272668693422, 62.64170619983763 -0.684160243294093 C27.53763086224597 -2.118547753457528, -74.62465593818396 -6.559858485027435, -91.2463679291308 -7.743613155079731 C-107.86807992007763 -8.927367825132027, -50.82855931694313 -7.820246760582624, -37.088565745843354 -7.786688263607869 C-23.34857217474358 -7.753129766633114, -22.53550867697323 -9.28342866610207, -8.806406502532173 -7.542262173231199 C4.922695671908885 -5.801095680360327, 48.98123170531239 1.222486493168818, 45.28604730080299 2.6603106936173617 C41.590862896293594 4.098134894065906, -26.669077102378687 1.1632693296741952, -30.977512929588556 1.0846830294600636 C-35.285948756798426 1.006096729245932, 14.390629632096882 2.352616132476485, 19.435432337543762 2.1887928923325717 C24.480235042990643 2.024969652188658, 2.386414501745071 0.486818289224588, -0.7086966969072819 0.1017435885965825 M0.305781762069091 -0.3885631628986448 C20.625481491792712 -0.6520273977815285, 110.77122906095366 -0.8960162809220996, 121.55836310567751 -0.8292321831001641 C132.34549715040137 -0.7624480852782286, 100.41307727878433 1.4929582163252144, 65.02858603041224 0.012141424032968251 C29.644094782040156 -1.468675368259278, -73.53899475377806 -7.95882602744292, -90.748584384555 -9.714132936853641 C-107.95817401533195 -11.469439846264361, -52.090799254809234 -11.22428749541573, -38.228951754249415 -10.519700032431357 C-24.367104253689597 -9.815112569446985, -21.6458198058522 -7.561930782668595, -7.577499381196085 -5.4866081589474085 C6.490821043460028 -3.411285535226222, 49.71556292263675 0.9146779574085491, 46.18097079368725 1.9322357098957625 C42.64637866473775 2.949793462382976, -24.584906786302778 0.8085966297403236, -28.785052154893055 0.6187383559758723 C-32.98519752348333 0.42888008221142104, 16.234731124179582 0.9457404564946207, 20.980098582145594 0.7930860673090545 C25.725466040111606 0.6404316781234883, 2.9106591811718454 -0.29826110094919006, -0.3128474070969969 -0.2971879791375249" stroke="#a61e4d" stroke-width="4" fill="none"></path></g></g><g><g transform="translate(301.04280044380744 195.05546289866732) rotate(0 -82.60418553833989 3.016213884633771)"><path d="M0.8521986745297909 0.48221822753548627 C-11.868022351073375 0.6943678441856643, -50.60464110718601 1.8245105340722414, -75.74344686557144 0.8840110432889106 C-100.88225262395687 -0.05648844749442028, -132.27352207732338 -4.140059085651539, -149.98063587578275 -5.160778717164499 C-167.68774967424213 -6.181498348677459, -196.13558574748185 -6.420599244286588, -181.98612965632768 -5.240306745788848 C-167.8366735651735 -4.060014247291108, -98.69521502316708 -0.48097858255106307, -65.08389932885765 1.920976273821941 C-31.47258363454823 4.322931130194945, 16.105499670583573 8.051878257627973, 19.681764509528875 9.171422392449177 C23.258029348474178 10.290966527270381, -15.185003003655417 10.072107541596571, -43.62631029518584 8.638241082749165 C-72.06761758671627 7.204374623901758, -139.31756649361475 1.4630056909506988, -150.96607923965365 0.5682236393647373 C-162.61459198569256 -0.32655841222122417, -119.51602648102813 2.560163177230542, -113.51738677141925 3.269548773233396 C-107.51874706181037 3.9789343692362498, -114.97792470231654 4.513575931425608, -114.97424098200034 4.824537215381861 M-0.15953575068153447 -0.31022114834748216 C-13.127187133323675 -0.44883616004803883, -51.89637923563393 -0.4666877747588397, -76.92456011233458 -1.1135234595209569 C-101.95274098903522 -1.7603591442830742, -132.8970876624244 -3.6544174971480436, -150.3286210108854 -4.191235256920185 C-167.7601543593464 -4.728053016692327, -195.51046709528154 -5.488138882334626, -181.51376020310053 -4.334430018153808 C-167.51705331091952 -3.180721153972989, -100.03108324000391 0.1043264870687266, -66.34837965779938 2.7310179281647264 C-32.66567607559485 5.357709369260727, 16.636515287453125 10.12672016786542, 20.582461290126666 11.425718628422192 C24.528407292800207 12.724717088978965, -13.981153931878922 11.87065126475697, -42.67270364175813 10.525008691505363 C-71.36425335163734 9.179366118253755, -139.58350581789873 4.775883179319821, -151.5668369691486 3.3518631889125436 C-163.55016812039847 1.9278431985052669, -120.73678541513294 1.2956550036996206, -114.57269054925737 1.9808887490617009 C-108.4085956833818 2.666122494423781, -114.88196921342055 6.840980430116348, -114.58226777389514 7.463265661085025" stroke="#a61e4d" stroke-width="4" fill="none"></path></g></g><g><g transform="translate(130.85960778197705 314.12070948069857) rotate(0 455.560821756323 13.44166639388368)"><path d="M0.4244675181806088 0.6715700961649418 C15.04506095587499 2.858838331734853, 50.82830474713736 8.613390760797843, 87.83506663750332 12.430282663766842 C124.84182852786927 16.247174566735843, 160.821712660754 21.50192445179539, 222.46503886037638 23.57292151397894 C284.1083650599988 25.64391857616249, 443.7631674130404 25.90724982253847, 457.69502383523763 24.856265036868148 C471.6268802574349 23.805280251197825, 316.4570240077163 18.69822731759578, 306.0561773935599 17.267012799957 C295.65533077940347 15.83579828231822, 359.31982878499804 15.602127735423236, 395.28994415029894 16.268977931035465 C431.26005951559983 16.935828126647692, 493.9631499415 19.827744498174876, 521.8768695853653 21.268113973630374 C549.7905892292306 22.708483449085872, 560.1172138304584 24.245145674582023, 562.7722620134908 24.91119478376845 C565.4273101965233 25.57724389295488, 525.8990318218514 25.63681998767307, 537.8071586835599 25.264408628748946 C549.7152855452684 24.89199726982482, 572.1769202754258 22.557688033616298, 634.221023183742 22.676726630223698 C696.2651260920582 22.795765226831097, 888.8919971227293 26.18684003981097, 910.0717761334566 25.978640208393337 C931.251555144184 25.770440376975703, 782.8115870475416 22.574750045970816, 761.2996972481056 21.427527641717894 C739.7878074486697 20.280305237464972, 787.5533855948777 19.968002408494513, 781.0004373368411 19.095305782875812 C774.4474890788044 18.22260915725711, 726.9830096267167 17.052791556325744, 721.9820076998858 16.19134788800568 C716.9810057730549 15.329904219685616, 730.1793944574185 14.331574590468687, 750.994425775856 13.926643772955435 C771.8094570942935 13.521712955442183, 838.7105809165967 13.37544816735951, 846.8721956105107 13.761762982926166 C855.0338103044248 14.148077798492823, 792.1365810950246 17.698262617169387, 799.9641139393409 16.244532666355372 C807.7916467836573 14.790802715541357, 889.4727584134613 6.265648462126653, 893.8373926764091 5.039383278042078 C898.2020269393569 3.8131180939575033, 830.1554909876063 8.907987549794564, 826.1519195170277 8.886941561847925 C822.1483480464492 8.865895573901286, 862.6806202888137 5.330629175653117, 869.815963852938 4.913107350362248 C876.9513074170624 4.4955855250713785, 868.84261595064 6.184631282410419, 868.9639809017738 6.381810610102707 M-0.8118257641140372 -0.02145954868756239 C13.689999406842881 1.9228050028980692, 50.03514767707244 7.308461657179356, 87.18107996227626 10.919482778309462 C124.32701224748007 14.530503899439568, 160.18895189273346 19.646891333005374, 222.06376794710886 21.644667178093073 C283.9385840014843 23.64244302318077, 444.1694903001984 23.609335827386133, 458.4299762885287 22.906137848835655 C472.69046227685897 22.202939870285178, 318.0105640091441 18.71763623674579, 307.62668387709056 17.425479306790212 C297.242803745037 16.133322376834634, 360.25776507511875 14.184788152020738, 396.1266954962072 15.153196269102178 C431.9956259172957 16.12160438618362, 495.18411951944387 21.700241428470477, 522.8402664036213 23.235928009278854 C550.4964132877986 24.771614590087232, 559.8565361294377 24.201839708556804, 562.0635768012717 24.367315753952436 C564.2706174731056 24.532791799348068, 524.0167458185356 24.60915392966358, 536.0825104346249 24.228784281652636 C548.1482750507141 23.848414633641692, 572.0586340993161 21.645681042939554, 634.458164497807 22.08509786588677 C696.857694896298 22.524514688833985, 889.5525501655342 26.53276927138945, 910.4796928255702 26.865285219335927 C931.4068354856062 27.197801167282403, 781.5515245725513 25.43901979095748, 760.0210204580228 24.080193553565618 C738.4905163434943 22.721367316173755, 787.7682458463397 20.06720073489779, 781.2966681383991 18.71232779498475 C774.8250904304585 17.35745485507171, 726.1054234392105 16.739934449634518, 721.1915542103792 15.950955914087377 C716.2776849815478 15.161977378540236, 730.7639973652307 14.11853759427732, 751.813452765411 13.978456581701908 C772.8629081655912 13.838375569126494, 839.1517377630956 15.11758552399283, 847.4882866114607 15.110469838634899 C855.8248354598257 15.103354153276968, 794.228923142036 15.651213908307692, 801.8327458556013 13.93576246955432 C809.4365685691665 12.220311030800946, 889.2645329506428 5.674332749430711, 893.1112228928523 4.817761206114665 C896.9579128350618 3.9611896627986183, 828.7347234418224 8.52778501553061, 824.9128855088583 8.79633320965804 C821.0910475758941 9.064881403785472, 862.5040888335111 7.060750263317856, 870.1801952950673 6.429050370879255 C877.8563017566235 5.797350478440653, 870.8176386152224 4.733673337356023, 870.9695242781954 5.006133855026433" stroke="#a61e4d" stroke-width="4" fill="none"></path></g></g><g><g transform="translate(1081.2686305219327 447.7403558255646) rotate(0 -493.8240867973503 0.9254209110357579)"><path d="M-0.4948629520833492 -0.3295600153505802 C-50.90292363787692 -0.1057744026538899, -233.93547171918408 -0.059598969313371164, -302.6858369253576 0.6926733856754481 C-371.4362021315311 1.4449457406642674, -431.1801982646542 3.551102056921915, -412.9970541891243 4.1840741145823355 C-394.8139101135944 4.817046172242756, -200.79054919250672 5.189333390018737, -193.58697247217816 4.490505731637972 C-186.3833957518496 3.7916780732572075, -351.9764633513277 1.16791531922568, -369.7755938671529 -0.008891835702252271 C-387.5747243829781 -1.1856989906301845, -267.98727109826046 -1.681153457540836, -300.3817555671293 -2.5703371979296206 C-332.7762400359981 -3.459520938318405, -496.7212396161543 -7.231447624060342, -564.1425006803659 -5.343994278034961 C-631.5637617445774 -3.4565409320095792, -687.0598310748383 7.039103713454278, -704.9093219523985 8.754382878222668 C-722.7588128299587 10.469662042991057, -650.2657495061204 7.5968975044077105, -671.2394459457272 4.947680710575378 C-692.213142385334 2.2984639167430454, -778.2930453192268 -5.586850430887394, -830.7515005900394 -7.140917884771329 C-883.209955860852 -8.694985338655265, -969.5802282100279 -4.966764813413204, -985.9901775706029 -4.376724012728232 C-1002.4001269311779 -3.7866832120432603, -955.3736064235015 -5.076424860989804, -929.2111967534893 -3.6006730806614997 C-903.048787083477 -2.1249213003331953, -841.664500179142 2.6829905759366435, -829.015719550529 4.4777866692415955 C-816.3669389219159 6.272582762546548, -857.3638551149697 6.735234055029465, -853.318512981811 7.168103479168212 C-849.2731708486522 7.6009729033069595, -809.8634134649878 7.362163602702724, -804.7436667515766 7.075003214074082 C-799.6239200381654 6.7878428254454395, -821.1513483597766 6.646378967840023, -822.6000327013435 5.445141147396361 C-824.0487170429103 4.2439033269527, -814.9424797165609 0.5459234214609523, -813.4357728009779 -0.13242370858788488 M1.446195268733427 -1.5481829687487334 C-48.57586417138266 -1.0582672588416357, -231.81997764500522 1.164855718417969, -300.49442040761 2.259401578438851 C-369.16886317021476 3.353947438459733, -427.94796678511557 4.996850864905388, -410.6004613068953 5.019092191376558 C-393.252955828675 5.041333517847727, -203.49983902228425 3.109960197725168, -196.40938753828812 2.39284953726587 C-189.31893605429198 1.6757388768065722, -350.9398285542185 1.1962065818094871, -368.0577524029184 0.7164282286207708 C-385.17567625161837 0.23664987543205446, -266.5297349153074 0.1879338688833604, -299.1169306304879 -0.4858205818664283 C-331.7041263456684 -1.159575032616217, -495.75690579377175 -4.913507392899151, -563.5809266940014 -3.3260984758779615 C-631.404947594231 -1.7386895588567726, -688.4169326929364 7.366896500307666, -706.0610560318656 9.038632920260707 C-723.7051793707949 10.710369340213747, -648.2501353062305 9.479940386092089, -669.4456667275768 6.70432004384028 C-690.6411981489232 3.9286997015884713, -780.5101035326265 -5.87386944892464, -833.2342445599437 -7.6150891332501445 C-885.9583855872609 -9.35630881757565, -970.1052478858658 -4.321537181291089, -985.7905128914798 -3.7429980621127514 C-1001.4757778970938 -3.1644589429344134, -953.4905762569222 -5.917253906268756, -927.3458345936281 -4.143854418180117 C-901.201092930334 -2.370454930091479, -841.2033448394111 5.012394726379795, -828.9220629117149 6.89739886641908 C-816.6407809840186 8.782403006458365, -857.7061090735992 7.134397053126483, -853.6581430274504 7.166170422055593 C-849.6101769813015 7.197943790984704, -810.0063323238605 7.245926957318963, -804.6342666348219 7.088039079993746 C-799.2622009457832 6.9301512026685295, -819.7404576792717 7.380417622899435, -821.4257488932184 6.218843158104291 C-823.1110401071651 5.0572686933091475, -815.8225613436783 0.8157008340710806, -814.746013918502 0.11859229122288517" stroke="#a61e4d" stroke-width="4" fill="none"></path></g></g><g><g transform="translate(1475.931542073272 295.01247671005126) rotate(0 0.048740177687136566 0.3487681528274038)"><path d="M0.3383276961743831 -0.583777966350317 C0.026445562463398575 -0.6247676275670528, -0.8177290190190282 0.7099564410746096, -1.0063559952593095 0.7186730481684207 M-0.9431889926735312 1.724134655976668 C-0.979068084223051 1.255993170822039, 0.6781566329028252 -0.8237396391388029, 1.103836350633701 -1.026598350321874" stroke="#a61e4d" stroke-width="4" fill="none"></path></g></g><g transform="translate(1201.2429957563077 47.76147398962712) rotate(0 283.5000000000001 90)"><text x="0" y="32" font-family="Virgil, Segoe UI Emoji" font-size="36px" fill="#a61e4d" text-anchor="start" style="white-space: pre;" direction="ltr">This is a example of a static </text><text x="0" y="77" font-family="Virgil, Segoe UI Emoji" font-size="36px" fill="#a61e4d" text-anchor="start" style="white-space: pre;" direction="ltr">array where we have</text><text x="0" y="122" font-family="Virgil, Segoe UI Emoji" font-size="36px" fill="#a61e4d" text-anchor="start" style="white-space: pre;" direction="ltr">fixed length of memory </text><text x="0" y="167" font-family="Virgil, Segoe UI Emoji" font-size="36px" fill="#a61e4d" text-anchor="start" style="white-space: pre;" direction="ltr">slots.</text></g></svg>