<svg version="1.1" xmlns="http://www.w3.org/2000/svg" viewBox="0 0 1574.2079772949219 770.4228089342996" width="3148.4159545898438" height="1540.8456178685992">
  <!-- svg-source:excalidraw -->
  
  <defs>
    <style>
      @font-face {
        font-family: "Virgil";
        src: url("https://excalidraw.com/FG_Virgil.woff2");
      }
      @font-face {
        font-family: "Cascadia";
        src: url("https://excalidraw.com/Cascadia.woff2");
      }
    </style>
  </defs>
  <rect x="0" y="0" width="1574.2079772949219" height="770.4228089342996" fill="#ffffff"></rect><g><g transform="translate(541.0419616699219 373.8501770983621) rotate(0 -78.37668225440382 90.40362481028326)"><path d="M-0.10377999767661095 -0.764267847687006 C-6.801873642454544 -1.2558985528846582, -19.12953513289491 -1.4702400582532087, -39.261898746341465 -3.194206426292658 C-59.394262359788016 -4.918172794332107, -106.77231116915742 -20.07330333168308, -120.89796167835593 -11.1080660559237 C-135.02361218755442 -2.1428287801643204, -120.15572263225913 26.98806744640072, -124.0158018015325 50.59721722826362 C-127.87588097080588 74.20636701012651, -139.69400902415316 108.25163167541227, -144.05843669399619 130.54683263525368 C-148.4228643638392 152.84203359509507, -174.84802849913635 173.72294152006506, -150.20236782059072 184.36842298731207 C-125.55670714204508 195.01390445455908, -21.75615182543794 192.6542267980675, 3.815527377277613 194.41972143873573 M-1.6174032257962971 1.4488875869382172 C-8.482262806293244 1.1487737892537067, -19.776192905601736 0.5724136107632272, -39.77591395218857 -1.8622078716289252 C-59.7756349987754 -4.296829354021078, -107.5270540767877 -21.538197552912557, -121.61572950531729 -13.158841307414695 C-135.70440493384686 -4.779485061916834, -120.33467560042627 24.39934105033365, -124.30796652336605 48.41392960135825 C-128.28125744630583 72.42851815238285, -141.31587357759165 108.48777264559953, -145.45547504295595 130.9286899987329 C-149.59507650832026 153.36960735186625, -173.60725658982682 172.17377580140717, -149.14557531555184 183.0594337201584 C-124.68389404127686 193.94509163890964, -23.944557160732028 194.35028681739857, 1.31461260269396 196.24263751124033" stroke="#000000" stroke-width="1" fill="none"></path></g></g><g transform="translate(455.9508361816406 427.8155549059793) rotate(0 5.5 38.5)"><text x="0" y="54" font-family="Virgil, Segoe UI Emoji" font-size="60.96148681640625px" fill="#000000" text-anchor="start" style="white-space: pre;" direction="ltr">1</text></g><g transform="translate(705.5765075683594 73.61957101926052) rotate(0 5.5 38.5)"><text x="0" y="54" font-family="Virgil, Segoe UI Emoji" font-size="60.96148681640625px" fill="#000000" text-anchor="start" style="white-space: pre;" direction="ltr">1</text></g><g transform="translate(536.7828063964844 428.4895356188699) rotate(0 23 38.5)"><text x="0" y="54" font-family="Virgil, Segoe UI Emoji" font-size="60.96148681640625px" fill="#000000" text-anchor="start" style="white-space: pre;" direction="ltr">2</text></g><g transform="translate(775.5268249511719 90.31189279660427) rotate(0 23 38.5)"><text x="0" y="54" font-family="Virgil, Segoe UI Emoji" font-size="60.96148681640625px" fill="#000000" text-anchor="start" style="white-space: pre;" direction="ltr">2</text></g><g transform="translate(612.7046813964844 76.95703439816677) rotate(0 23 38.5)"><text x="0" y="54" font-family="Virgil, Segoe UI Emoji" font-size="60.96148681640625px" fill="#000000" text-anchor="start" style="white-space: pre;" direction="ltr">2</text></g><g transform="translate(729.3565979003906 433.0917695055887) rotate(0 22 38.5)"><text x="0" y="54" font-family="Virgil, Segoe UI Emoji" font-size="60.96148681640625px" fill="#000000" text-anchor="start" style="white-space: pre;" direction="ltr">3</text></g><g transform="translate(511.9844055175781 71.76880197629177) rotate(0 22 38.5)"><text x="0" y="54" font-family="Virgil, Segoe UI Emoji" font-size="60.96148681640625px" fill="#000000" text-anchor="start" style="white-space: pre;" direction="ltr">3</text></g><g transform="translate(807.2534484863281 439.6914093981668) rotate(0 15.5 77)"><text x="0" y="54" font-family="Virgil, Segoe UI Emoji" font-size="60.96148681640625px" fill="#000000" text-anchor="start" style="white-space: pre;" direction="ltr">6</text><text x="0" y="131" font-family="Virgil, Segoe UI Emoji" font-size="60.96148681640625px" fill="#000000" text-anchor="start" style="white-space: pre;" direction="ltr"></text></g><g transform="translate(900.6609191894531 82.5993989001199) rotate(0 15.5 77)"><text x="0" y="54" font-family="Virgil, Segoe UI Emoji" font-size="60.96148681640625px" fill="#000000" text-anchor="start" style="white-space: pre;" direction="ltr">6</text><text x="0" y="131" font-family="Virgil, Segoe UI Emoji" font-size="60.96148681640625px" fill="#000000" text-anchor="start" style="white-space: pre;" direction="ltr"></text></g><g transform="translate(641.5224914550781 426.5316193591043) rotate(0 23 38.5)"><text x="0" y="54" font-family="Virgil, Segoe UI Emoji" font-size="60.96148681640625px" fill="#000000" text-anchor="start" style="white-space: pre;" direction="ltr">2</text></g><g><g transform="translate(770.9610290527344 374.1446106921121) rotate(0 96.28997864246963 102.16406916854746)"><path d="M-0.37759012207388876 -1.052782628685236 C9.050892211745182 -1.23266330336531, 24.033957904328904 -0.7346891857683658, 55.727081809192896 0.0623128198087215 C87.42020571405689 0.8593148253858088, 168.09553952390948 2.468199740101894, 189.78115330711006 3.7292294047772883 C211.46676709031064 4.990259069452683, 187.9066834705571 3.972801973670721, 185.84076450839638 7.628490807861089 C183.77484554623564 11.284179642051457, 179.6004158673187 19.086970705042283, 177.38563953414558 25.6633624099195 C175.17086320097246 32.23975411479672, 173.79161098177235 39.70214371904731, 172.55210650935769 47.086841037124394 C171.31260203694302 54.47153835520148, 170.17979680870968 54.99562102382382, 169.94861269965767 69.97154631838202 C169.71742859060566 84.94747161294023, 171.77095886245368 114.95469103083013, 171.16500185504555 136.94239280447363 C170.5590448476374 158.93009457811712, 191.3881826736033 192.63442067528763, 166.31287065520883 201.897756960243 C141.23755863681436 211.16109324519834, 49.482589254528285 193.45423744743067, 20.713129744678735 192.5224105142057 C-8.056329765170815 191.5905835809807, -1.7050987385213379 195.7577082417905, -6.303886403888464 196.306795360893 M1.625036334497854 1.0089025459159164 C11.068182385765638 0.9713268379836032, 24.14597119540287 -1.9711157544981688, 55.37214498142712 -1.8333002620469778 C86.59831876745137 -1.6954847695957869, 167.1186403675905 0.14902506674019, 188.98207905064336 1.8357955006230622 C210.84551773369623 3.522565934505934, 188.16602562775523 4.228072083937004, 186.55277707974426 8.287322341250256 C184.9395285317333 12.346572598563508, 181.40390853107283 19.841342781630036, 179.30258776257745 26.191297044502573 C177.20126699408206 32.541251307375106, 175.41611994912537 39.29450681720861, 173.94485246877187 46.38704791848548 C172.47358498841837 53.47958901976235, 171.06890815258336 53.71930114949433, 170.47498288045637 68.74654365216382 C169.88105760832937 83.77378615483332, 170.80430510352366 114.06109371875414, 170.3813008360099 136.55050293450245 C169.95829656849614 159.03991215025076, 192.7323314521741 194.40011106714294, 167.93695727537386 203.68299894665367 C143.14158309857362 212.9658868261644, 50.53349450240843 193.3214578699538, 21.6090557752084 192.24783021156676 C-7.31538295199163 191.17420255317973, -0.6380831261444841 196.76833328490144, -5.609675087826327 197.24123299633152" stroke="#000000" stroke-width="1" fill="none"></path></g></g><g><g transform="translate(437.9815979003906 705.0506775866434) rotate(0 11.00038396207151 -97.0544814461982)"><path d="M-0.7178047321736812 -0.3522267557680606 C2.732976541668177 -32.18559533531467, 16.624834094196558 -159.9146300372978, 20.393925151973963 -191.8164182640612 M1.1062090540956708 -1.5827497478853911 C4.971609585089609 -33.71995633935246, 19.31415501068346 -161.7046702979536, 22.71857265631668 -193.75673613662832" stroke="#000000" stroke-width="1" fill="none"></path></g><g transform="translate(437.9815979003906 705.0506775866434) rotate(0 11.00038396207151 -97.0544814461982)"><path d="M29.25618367862387 -165.84457191592674 C28.667145003476573 -171.3703293052774, 26.803358209010177 -182.23927613601714, 21.18387298162095 -195.24473337422125 M29.632078130137756 -165.04350288911382 C28.306820196220908 -174.52462401787034, 24.10905605753737 -184.43099202755283, 22.17391420218162 -192.96497569012456" stroke="#000000" stroke-width="1" fill="none"></path></g><g transform="translate(437.9815979003906 705.0506775866434) rotate(0 11.00038396207151 -97.0544814461982)"><path d="M8.857400565862683 -168.0827966375239 C13.844508318220754 -172.87303010916054, 17.572091736327312 -183.12847254759396, 21.18387298162095 -195.24473337422125 M9.23329501737657 -167.281727610711 C14.935677576062368 -175.87456723758908, 17.760545537442823 -185.01038787245233, 22.17391420218162 -192.96497569012456" stroke="#000000" stroke-width="1" fill="none"></path></g></g><g transform="translate(428.8146667480469 715.4228089342996) rotate(0 14 22.5)"><text x="0" y="32" font-family="Virgil, Segoe UI Emoji" font-size="36px" fill="#000000" text-anchor="start" style="white-space: pre;" direction="ltr">0</text></g><g><g transform="translate(554.7668762207031 691.4829895983621) rotate(0 0.7737509093945505 -89.59060207640289)"><path d="M0.9324891664087771 0.18455171808600435 C1.351269962141911 -29.588275327036776, 1.4514834818740687 -147.9439358529945, 1.5845945693552494 -177.6792499281466 M-0.0370927505660803 -0.7641625752579422 C0.27827322562846035 -30.953743567817536, 0.3236261984736969 -150.03286287233544, 0.4769405637215822 -179.36575587089175" stroke="#000000" stroke-width="1" fill="none"></path></g><g transform="translate(554.7668762207031 691.4829895983621) rotate(0 0.7737509093945505 -89.59060207640289)"><path d="M10.97183875011892 -151.65510260704747 C9.555098898992153 -157.61452158370503, 6.373329333754399 -162.07247991752956, 2.3174281668197363 -181.18866671989673 M10.179211737761804 -150.55361609738162 C7.891078128034534 -157.9146551290708, 6.171620348129603 -162.8663898715708, 0.7351603105943649 -178.8403545747977" stroke="#000000" stroke-width="1" fill="none"></path></g><g transform="translate(554.7668762207031 691.4829895983621) rotate(0 0.7737509093945505 -89.59060207640289)"><path d="M-9.549300560199853 -151.70842982644757 C-6.396395382949284 -157.8154395105277, -5.008945520944829 -162.26152405103116, 2.3174281668197363 -181.18866671989673 M-10.341927572556969 -150.60694331678172 C-8.248686496572093 -157.8454495348515, -5.586462730387198 -162.78579782898638, 0.7351603105943649 -178.8403545747977" stroke="#000000" stroke-width="1" fill="none"></path></g></g><g transform="translate(559.7579650878906 706.7681458483621) rotate(0 3 22.5)"><text x="0" y="32" font-family="Virgil, Segoe UI Emoji" font-size="36px" fill="#000000" text-anchor="start" style="white-space: pre;" direction="ltr">1</text></g><g><g transform="translate(662.8756408691406 680.8487732897684) rotate(0 -0.28674012738167676 -86.10438151020091)"><path d="M0.33342318758368483 0.27068785205483437 C0.39029642075370996 -28.331613149493933, 0.435292781892978 -142.03282200321556, 0.17494265690870625 -170.92384447082878 M-0.950668368274346 -0.6328049709554762 C-0.9696011368271336 -29.606615134393795, -0.13801317819040237 -143.86482118806802, -0.3671168737909194 -172.47945087245665" stroke="#000000" stroke-width="1" fill="none"></path></g><g transform="translate(662.8756408691406 680.8487732897684) rotate(0 -0.28674012738167676 -86.10438151020091)"><path d="M10.326422049835426 -142.99320612593684 C8.582271086845035 -153.3725732327092, 2.0654889065220674 -161.44677712036358, 0.5273110776343946 -173.547807621127 M8.899326582610708 -144.3185045302579 C6.332117507935344 -153.70149028981623, 3.200330278895855 -164.46178427228102, -0.9167794023504849 -173.23936697124503" stroke="#000000" stroke-width="1" fill="none"></path></g><g transform="translate(662.8756408691406 680.8487732897684) rotate(0 -0.28674012738167676 -86.10438151020091)"><path d="M-10.194782268536315 -143.00646167120317 C-6.066879839407518 -153.4390545218691, -6.711684842748006 -161.50946544210964, 0.5273110776343946 -173.547807621127 M-11.621877735761032 -144.33176007552424 C-6.646076660748645 -153.8666809279727, -2.234900277068533 -164.62210257964935, -0.9167794023504849 -173.23936697124503" stroke="#000000" stroke-width="1" fill="none"></path></g></g><g transform="translate(659.2229919433594 715.1924622546121) rotate(0 13 22.5)"><text x="0" y="32" font-family="Virgil, Segoe UI Emoji" font-size="36px" fill="#000000" text-anchor="start" style="white-space: pre;" direction="ltr">3</text></g><g><g transform="translate(739.6138610839844 671.1806214342996) rotate(0 5.173746242374193 -75.43004646524787)"><path d="M-0.46889097467064855 0.5637616731226445 C1.454154223452012 -24.5664504510661, 8.862832127263149 -126.0552383961777, 10.816383459419011 -151.4238546036184 M1.4858025342877954 -0.18586739382706585 C3.291217408940817 -25.039423720951504, 8.21616130676431 -124.76241469563605, 9.731692729955538 -149.79005653492175" stroke="#000000" stroke-width="1" fill="none"></path></g><g transform="translate(739.6138610839844 671.1806214342996) rotate(0 5.173746242374193 -75.43004646524787)"><path d="M19.38140845847886 -121.5161180544869 C16.812419781343934 -127.70876944590043, 14.349894590538064 -134.2814454114007, 10.263903374290093 -151.45004386163316 M19.347764264695456 -121.55499617310622 C15.7291479612887 -127.23437208536987, 14.651096461522668 -133.94911695892702, 10.164415061911567 -149.85037068544887" stroke="#000000" stroke-width="1" fill="none"></path></g><g transform="translate(739.6138610839844 671.1806214342996) rotate(0 5.173746242374193 -75.43004646524787)"><path d="M-1.1093459235102099 -122.6336990326874 C1.2302385573679637 -128.47824071524832, 3.6822710017583606 -134.78287305351185, 10.263903374290093 -151.45004386163316 M-1.1429901172936123 -122.67257715130673 C0.11700195629074361 -128.21924073144973, 3.9072999332433036 -134.66846220508776, 10.164415061911567 -149.85037068544887" stroke="#000000" stroke-width="1" fill="none"></path></g></g><g transform="translate(758.0804748535156 689.1071351061746) rotate(0 13 22.5)"><text x="0" y="32" font-family="Virgil, Segoe UI Emoji" font-size="36px" fill="#000000" text-anchor="start" style="white-space: pre;" direction="ltr">5</text></g><g><g transform="translate(872.8028259277344 685.7949402819559) rotate(0 -22.188612089306105 -84.39536143395583)"><path d="M1.1825042031705377 -0.9396087549626827 C-6.379856584221124 -29.177760027100643, -37.97987568154931 -141.78193951273957, -45.55972838178277 -169.97221557125448 M0.34418018049560484 1.1814927033428102 C-6.807208521002903 -26.82310042035145, -35.67676534288562 -140.19278187812927, -43.1912345173303 -168.54488458625042" stroke="#000000" stroke-width="1" fill="none"></path></g><g transform="translate(872.8028259277344 685.7949402819559) rotate(0 -22.188612089306105 -84.39536143395583)"><path d="M-27.754486179694773 -144.9187221591299 C-31.26397584976999 -149.6787264368038, -36.283629380237066 -157.9282970393999, -45.019171587610614 -168.89520408726298 M-26.30597040128732 -143.6135826528942 C-32.93005057872174 -153.85904137961822, -38.88250126632115 -162.06906361911015, -44.00308089093305 -169.18118476449513" stroke="#000000" stroke-width="1" fill="none"></path></g><g transform="translate(872.8028259277344 685.7949402819559) rotate(0 -22.188612089306105 -84.39536143395583)"><path d="M-47.61984585310631 -139.7721225601875 C-45.45361678410934 -146.19227882472813, -44.8208531456543 -155.90624415326346, -45.019171587610614 -168.89520408726298 M-46.17133007469886 -138.4669830539518 C-45.16417683234051 -150.6920022473187, -43.441281655688904 -160.89050758483222, -44.00308089093305 -169.18118476449513" stroke="#000000" stroke-width="1" fill="none"></path></g></g><g transform="translate(894.4677429199219 704.9489930163309) rotate(0 11.5 22.5)"><text x="0" y="32" font-family="Virgil, Segoe UI Emoji" font-size="36px" fill="#000000" text-anchor="start" style="white-space: pre;" direction="ltr">8</text></g><g transform="translate(1021.2079772949219 614.8994935046121) rotate(0 271.5 22.5)"><text x="0" y="32" font-family="Virgil, Segoe UI Emoji" font-size="36px" fill="#000000" text-anchor="start" style="white-space: pre;" direction="ltr">minimum waiting time will be = 17</text></g><g><g transform="translate(487.4904479980469 33.682833958713644) rotate(0 -32.483505010372426 77.63644013655325)"><path d="M0.8391776584088804 0.744749055057764 C-11.621216016759476 1.1205511825780072, -62.067404395093526 -21.13268200382591, -75.22040188089014 3.4141846276819705 C-88.37339936668675 27.961051259189848, -94.44269082322717 121.36682355577749, -78.07880725637078 148.02594884410502 C-61.71492368951439 174.68507413243256, 6.21668893719713 161.0520196773112, 22.962899520248175 163.3689363576472 M-0.17939280026592308 0.09013836362399164 C-12.741836068465686 0.6200352721257757, -63.46926335467336 -23.176519882297143, -76.07308808051981 1.5986423034314066 C-88.67691280636626 26.37380448915996, -92.30092250847258 122.1151450746103, -75.80234115534462 148.7411114779953 C-59.30375980221666 175.3670778813803, 6.284724516139054 159.1274507830385, 22.918400038247928 161.35444072374142" stroke="#000000" stroke-width="1" fill="none"></path></g></g><g><g transform="translate(907.0467224121094 20.769885350315207) rotate(0 34.3502368981778 90.03976311559357)"><path d="M-0.637493846565485 0.33453243747353545 C20.157073619216682 0.992098277558883, 106.85285810058316 -24.25959733153383, 125.50137326940894 4.537638054043055 C144.14988843823474 33.33487343961994, 143.70163885181148 143.05546405489247, 111.25359716638923 173.11794475093484 C78.80555548096697 203.1804254469772, -38.96582159772515 182.6176911212504, -69.18687684312462 184.91252223029733 M1.22868315464817 -0.5354419781919568 C21.889844902521 -0.24528533966901395, 106.9274081304328 -26.165106459871556, 125.08635468042456 2.9553291887883097 C143.24530123041632 32.075764837448176, 142.5005048614399 143.75661482739883, 110.18236245459877 174.18717191376723 C77.86422004775764 204.61772900013563, -39.08688194268383 183.87377962091006, -68.82249976062216 185.5386717069987" stroke="#000000" stroke-width="1" fill="none"></path></g></g><g transform="translate(454.1698913574219 278.4252503405496) rotate(0 256.5 12.5)"><text x="0" y="18" font-family="Virgil, Segoe UI Emoji" font-size="20px" fill="#000000" text-anchor="start" style="white-space: pre;" direction="ltr">by sorting the list we will get a smaller waiting time</text></g><g transform="translate(36.381591796875 201.52241830929958) rotate(0 94 25)"><text x="0" y="18" font-family="Virgil, Segoe UI Emoji" font-size="20px" fill="#000000" text-anchor="start" style="white-space: pre;" direction="ltr">we beed to iterate</text><text x="0" y="43" font-family="Virgil, Segoe UI Emoji" font-size="20px" fill="#000000" text-anchor="start" style="white-space: pre;" direction="ltr">through the list</text></g><g transform="translate(10 325.81093149289336) rotate(0 143.5 62.5)"><text x="0" y="18" font-family="Virgil, Segoe UI Emoji" font-size="20px" fill="#000000" text-anchor="start" style="white-space: pre;" direction="ltr">sum the current query delay</text><text x="0" y="43" font-family="Virgil, Segoe UI Emoji" font-size="20px" fill="#000000" text-anchor="start" style="white-space: pre;" direction="ltr">with the previous query delay</text><text x="0" y="68" font-family="Virgil, Segoe UI Emoji" font-size="20px" fill="#000000" text-anchor="start" style="white-space: pre;" direction="ltr">first query take 0 seconds</text><text x="0" y="93" font-family="Virgil, Segoe UI Emoji" font-size="20px" fill="#000000" text-anchor="start" style="white-space: pre;" direction="ltr">to execute becasue it's</text><text x="0" y="118" font-family="Virgil, Segoe UI Emoji" font-size="20px" fill="#000000" text-anchor="start" style="white-space: pre;" direction="ltr">the first</text></g><g transform="translate(1047.8837585449219 334.89064340695586) rotate(0 77 12.5)"><text x="0" y="18" font-family="Virgil, Segoe UI Emoji" font-size="20px" fill="#000000" text-anchor="start" style="white-space: pre;" direction="ltr">0+1+3+5+8 = 17</text></g></svg>