<svg version="1.1" xmlns="http://www.w3.org/2000/svg" viewBox="0 0 2728.45419803462 1138.4967166498768" width="2728.45419803462" height="1138.4967166498768">
  <!-- svg-source:excalidraw -->
  
  <defs>
    <style>
      @font-face {
        font-family: "Virgil";
        src: url("https://excalidraw.com/FG_Virgil.woff2");
      }
      @font-face {
        font-family: "Cascadia";
        src: url("https://excalidraw.com/Cascadia.woff2");
      }
    </style>
  </defs>
  <rect x="0" y="0" width="2728.45419803462" height="1138.4967166498768" fill="#ffffff"></rect><g transform="translate(1143.727929577977 39.5399169921875) rotate(0 191.1893310546875 142.30926513671875)"><path d="M124.90683149269175 8.758313203588557 C140.80604457229927 1.7718463028846925, 161.63307922144986 0.37384845153586355, 180.53989755726545 -0.49997243936772406 C199.44671589308103 -1.3737933302713117, 219.9001793148841 -0.16022526086943856, 238.34774150758525 3.5153878581670313 C256.7953037002864 7.191000977203501, 274.8877943934363 13.791748553180994, 291.22527071347247 21.553706274851095 C307.56274703350863 29.315663996521195, 323.79746112500567 39.427087475571966, 336.37259942780224 50.08713418818763 C348.9477377305988 60.7471809008033, 359.069421762621 72.78612991175775, 366.6761005302519 85.5139865505451 C374.2827792978828 98.24184318933244, 380.0514031190798 112.35391257422843, 382.01267203358753 126.4542740209117 C383.9739409480953 140.55463546759498, 382.2332615778205 156.07427707318124, 378.44371401729825 170.11615523064472 C374.654166456776 184.1580333881082, 368.35368310255967 198.4170428520969, 359.27538667045417 210.70554296569256 C350.19709023834866 222.99404307928822, 337.6968150590352 234.1340360642281, 323.9739354246652 243.84715591221862 C310.25105579029525 253.56027576020915, 293.9098064751598 262.33773698280805, 276.93810886423415 268.9842620536358 C259.9664112533085 275.63078712446355, 241.01888179875556 281.2039540076749, 222.1437497591112 283.7263063371852 C203.26861771946682 286.24865866669546, 182.66722058933144 286.27049419306775, 163.68731662636802 284.1183760306974 C144.7074126634046 281.96625786832703, 125.27477034028658 276.9769226472061, 108.26432598133074 270.81359736296304 C91.2538816223749 264.65027207872, 75.49391774885271 256.765596406526, 61.62465047263302 247.138424325239 C47.755383196413334 237.51125224395196, 34.671700437175474 225.407119359257, 25.04872232401263 213.05056487524078 C15.425744210849786 200.69401039122457, 8.028643653889016 186.88998066062925, 3.886781793655956 172.9990974211417 C-0.25508006657710336 159.10821418165415, -1.7402572356918142 143.89016764673934, 0.19755116261427474 129.7052654383154 C2.1353595609203637 115.52036322989143, 8.25499926754718 101.17779696776498, 15.51363218349249 87.88968417059793 C22.7722650994378 74.60157137343089, 31.62599679415949 60.990227750441285, 43.749348658286124 49.97658865531312 C55.87270052241276 38.96294956018496, 73.94743393780931 28.969013516922203, 88.25374336825229 21.80784959982897 C102.56005279869527 14.646685682735736, 121.8118150773127 9.162175532449806, 129.58720524094397 7.009605152753721 C137.36259540457525 4.857034773057636, 134.05635092548806 6.4255490314300925, 134.90608435003995 8.892427321652463 M158.06401205540618 0.7093503722266234 C175.37505090370632 -3.7759563802282017, 196.40807938426744 -0.7747466960494287, 215.17553335081888 1.2417291889484545 C233.94298731737032 3.2582050739463377, 253.35572762195125 6.685976234078602, 270.6687358547149 12.808205682213924 C287.98174408747855 18.930435130349245, 304.80359935041866 28.500204336657823, 319.0535827474008 37.975105877760384 C333.30356614438296 47.450007418862945, 346.56492657166467 57.532575214938106, 356.16863623660765 69.6576149288293 C365.77234590155064 81.7826546427205, 372.62778272182607 96.55361687490877, 376.6758407370586 110.72534416110759 C380.7238987522911 124.8970714473064, 381.588926847554 140.4029556444727, 380.4569843280028 154.6879786460222 C379.32504180845166 168.9730016475717, 376.9689728389303 183.2164198413374, 369.8841856197515 196.43548217040447 C362.7993984005727 209.65454449947154, 350.38865694229935 223.18772901911453, 337.94826101292995 234.0023526204247 C325.50786508356055 244.81697622173485, 311.09866552988126 253.83229920829157, 295.24181004353505 261.3232237782654 C279.38495455718885 268.81414834823926, 260.86886245935796 275.2205012713668, 242.80712809485289 278.9479000402677 C224.7453937303478 282.6752988091686, 205.75559928643543 284.15049996735524, 186.87140385650463 283.687616391671 C167.98720842657383 283.2247328159867, 147.77692879618374 280.7363206584618, 129.5019555152681 276.170598586162 C111.22698223435245 271.60487651386217, 92.53395540473353 264.39453459626554, 77.2215641710108 256.2932839578721 C61.90917293728807 248.1920333194787, 48.82147641135142 238.72221497690424, 37.62760811293171 227.56309475580153 C26.433739814512002 216.40397453469882, 16.272046368007853 202.76874843369316, 10.058354380492545 189.33856263125585 C3.844662392977237 175.90837682881855, 0.5745436121897901 161.21378300357617, 0.3454561878398579 146.98197994117774 C0.11636876348992567 132.7501768787793, 3.3015121924574045 117.47216809190736, 8.683829834392952 103.94774425686532 C14.0661474763285 90.42332042182328, 22.369615720398727 77.75341128377835, 32.63936203945315 65.83543693092548 C42.90910835850757 53.917462578072616, 55.64537983018744 41.607331762817694, 70.30230774871946 32.43989813974814 C84.95923566725148 23.272464516678582, 105.98634002735552 15.72647911414197, 120.58092955064525 10.830835192508147 C135.17551907393496 5.935191270874324, 151.20827540422738 4.220551677446527, 157.8698448884578 3.0660346099452056 C164.53141437268823 1.9115175424438842, 160.05474817522742 1.5903452660123967, 160.5503464560278 3.9037327875002177" stroke="#1864ab" stroke-width="4" fill="none"></path></g><g transform="translate(2084.1078123904763 10) rotate(0 191.1893310546875 142.30926513671875)"><path d="M124.46948223431137 8.230233430735012 C140.56316859295788 1.3966373812091746, 162.77500596375629 1.1668517651519275, 181.94117197378134 0.651499601845245 C201.1073379838064 0.13614743853856248, 221.2273931298253 1.6260544028543364, 239.4664782944617 5.138120450894917 C257.70556345909813 8.650186498935497, 275.22571819917476 14.396437965493885, 291.3756829615998 21.723895890088727 C307.52564772402485 29.05135381468357, 323.78154337551 38.584761161462275, 336.36626686901207 49.10286799846398 C348.9509903625141 59.62097483546568, 359.5404966685073 71.74479770447144, 366.88402392261224 84.83253691209896 C374.2275511767172 97.92027611972648, 378.45114171219655 113.47891646145521, 380.4274303936419 127.62930324422908 C382.4037190750872 141.77969002700294, 382.33308187338514 155.78544868926826, 378.74175601128434 169.73485760874212 C375.15043014918353 183.68426652821597, 367.98380945735255 198.79248623791008, 358.8794752210372 211.3257567610721 C349.7751409847218 223.85902728423414, 337.80882986167546 235.18057076477282, 324.11575059339214 244.93448074771425 C310.4226713251088 254.68839073065567, 293.63935611319334 263.5947037975372, 276.7209996113372 269.8492166587207 C259.8026431094811 276.1037295199042, 241.41518475400812 280.3470830300705, 222.6056115822553 282.46155791481533 C203.7960384105025 284.57603279956015, 182.7560131384819 284.38252908592364, 163.8635605808204 282.5360659671896 C144.9711080231589 280.68960284845554, 126.45464914565275 277.48502025118563, 109.25089623628632 271.38277920241103 C92.0471433269199 265.2805381536364, 74.59936615175616 255.71217751947927, 60.64104312462186 245.92261967454186 C46.68272009748756 236.13306182960446, 35.03608371001148 224.72083575926334, 25.50095807348052 212.6454321327865 C15.965832436949555 200.57002850630968, 7.547127969335198 187.3234528267979, 3.4302893054360766 173.47019791568096 C-0.6865493584630444 159.616943004564, -1.2145670580778614 143.95780479516802, 0.7999260900857905 129.52590266608487 C2.8144192382494424 115.09400053700173, 8.328267489423634 100.09367016718335, 15.517248194417988 86.8787851411821 C22.70622889941234 73.66390011518087, 31.870320819709356 60.93929536654073, 43.93381032005192 50.2365925100774 C55.99729982039448 39.53388965361407, 73.55315590181901 29.77280992672307, 87.89818519647338 22.66256800240211 C102.24321449112774 15.552326078081151, 121.5652652489792 10.045940434568058, 130.00398608797815 7.575140964151643 C138.44270692697708 5.1043414937352285, 137.2576683606039 5.705417081561043, 138.53051023046703 7.837771179903626 M204.94151645283296 0.6916245368394414 C222.97075811876277 -0.36033620351523865, 243.66337874256683 6.035414994850271, 261.63242235966516 11.08057076171633 C279.6014659767635 16.12572652858239, 297.7920512676538 22.207223413148135, 312.75577815542295 30.9625591380358 C327.7195050431921 39.717894862923465, 341.24438292469955 51.6226036096093, 351.41478368628 63.61258511104232 C361.5851844478604 75.60256661247534, 368.5976385303613 89.5090760012569, 373.7781827249056 102.90244814663393 C378.95872691944993 116.29582029201096, 382.7934002742857 129.79568919489117, 382.49804885354604 143.9728179833045 C382.20269743280636 158.14994677171785, 377.9774391764674 174.32999226718096, 372.00607420046765 187.96522087711395 C366.0347092244679 201.60044948704694, 357.7036232086604 214.1355488200035, 346.6698589975475 225.7841896429024 C335.6360947864346 237.4328304658013, 320.9917990709234 249.17790463381635, 305.8034889337902 257.85706581450734 C290.61517879665706 266.5362269951983, 273.7429242065225 273.6061485007154, 255.5399981747487 277.85915672704823 C237.33707214297488 282.11216495338107, 216.02776591275992 282.9394353961619, 196.58593274314742 283.37511517250437 C177.14409957353493 283.8107949488468, 157.27703412514228 284.1728688709678, 138.88899915707375 280.473235385103 C120.50096418900522 276.7736018992382, 101.90981854398379 269.2845061275915, 86.25772293473621 261.1773142573154 C70.60562732548863 253.07012238703928, 56.94283670699366 242.63428174550492, 44.976425501588295 231.83008416344632 C33.01001429618293 221.0258865813877, 21.624752542725574 209.25551931511222, 14.459255702304006 196.35212876496382 C7.293758861882438 183.44873821481542, 3.637534736651058 168.54951239717127, 1.9834444590588873 154.40974086255582 C0.3293541814667169 140.26996932794037, 0.40070011546842466 125.40251089856362, 4.534714036750984 111.51349955727113 C8.668727958033543 97.62448821597864, 17.504888648574912 83.25153726592993, 26.78752798675424 71.07567281480088 C36.07016732493357 58.899808363671845, 46.28940214664274 48.13013132479662, 60.23055006582695 38.45831285049691 C74.17169798501115 28.786494376197197, 93.06518756918095 19.226956121813974, 110.43441550185948 13.044761969002593 C127.803643434538 6.862567816191214, 148.76475167178103 3.238829304811702, 164.44591766189808 1.3651479336286343 C180.12708365201513 -0.5085334375544335, 197.6792459016483 1.299111757881311, 204.52141144256186 1.8026737419041865 C211.3635769834754 2.306235725927062, 205.5051317070079 2.248088797268842, 205.4989109073794 4.3865198377658885" stroke="#1864ab" stroke-width="4" fill="none"></path></g><g transform="translate(2094.1078123904763 20) rotate(0 191.1893310546875 142.30926513671875)"><path d="M275.84471067409885 13.879159492347199 C293.477606085086 17.975586518534858, 309.9455346509619 29.606019188017612, 323.8736661931199 39.63559756202794 C337.8017977352779 49.66517593603827, 350.1760932104692 61.76979164422196, 359.4134999270466 74.05662973640918 C368.65090664362396 86.34346782859639, 375.6577969150086 99.46679746473076, 379.29810649258405 113.35662611515123 C382.9384160701595 127.2464547655717, 383.44893085430124 143.12946963639635, 381.2553573924995 157.39560163893202 C379.06178393069774 171.6617336414677, 373.6785968887269 186.01505835062983, 366.1366657217734 198.95341813036532 C358.5947345548199 211.8917779101008, 348.348127763162 224.4998068650562, 336.0037703907785 235.02576031734492 C323.65941301839507 245.55171376963364, 307.9860341973556 254.70623628593367, 292.0705214874726 262.1091388440976 C276.1550087775896 269.51204140226145, 258.8299316212789 275.76431055599835, 240.5106941314806 279.4431756663283 C222.1914566416823 283.1220407766582, 201.22165371514092 284.67691466150114, 182.15509654868285 284.18232950607694 C163.08853938222478 283.68774435065274, 143.91273536953588 281.4324417628217, 126.11135113273221 276.4756647337831 C108.30996689592855 271.5188877047445, 90.65230215382611 263.01516160338497, 75.34679112786091 254.44166733184528 C60.04128010189571 245.8681730603056, 45.43405557617074 236.6400469583733, 34.278284976940995 225.034699104545 C23.122514377711248 213.42935125071673, 14.113068355810707 198.54868070657068, 8.412167532482414 184.80958020887567 C2.7112667091541214 171.07047971118067, 0.09977176223317485 156.71251145560012, 0.07288003697124168 142.60009611837492 C0.045988311709308505 128.48768078114972, 2.831465535314355 113.46485608140112, 8.250817180910815 100.13508818552455 C13.670168826507275 86.80532028964798, 21.711554147829126 74.08955655391922, 32.58898991055 62.621488743115506 C43.46642567327087 51.15342093231179, 58.52776962495155 40.064824743987366, 73.51543175723606 31.326681320702235 C88.50309388952056 22.588537897417105, 104.6806689614036 15.32852415769134, 122.51496270425702 10.192628203404723 C140.34925644711043 5.056732249118106, 161.5405755082921 1.5958459352925303, 180.52119421435654 0.5113055949825309 C199.50181292042097 -0.5732347453274684, 218.499077803124 0.6844074545627499, 236.39867494064367 3.685386161544727 C254.29827207816334 6.686364868526704, 278.15892694273566 14.764670308665352, 287.9187770394746 18.517177836874396 C297.67862713621355 22.26968536508344, 296.6817384160318 23.998680036810367, 294.95777552107717 26.200431330798992 M204.97355097414908 0.9618631975786798 C223.42577803604604 -0.445135239796689, 244.9847006935273 5.06076367935664, 262.94456587045903 10.301633561493418 C280.9044310473908 15.542503443630196, 298.23628289575413 23.4120974260682, 312.7327420357396 32.40708249039935 C327.22920117572505 41.40206755473049, 339.77969380978317 52.39756114395467, 349.9233207103717 64.27154394748031 C360.0669476109602 76.14552675100596, 368.24041861778153 89.95898968764668, 373.5945034392706 103.65097931155321 C378.9485882607597 117.34296893545975, 382.41073393020554 132.53052433473658, 382.0478296393062 146.42348169091954 C381.68492534840686 160.3164390471025, 377.4021864206877 173.94303801720585, 371.4170776938746 187.00872344865104 C365.4319689670615 200.07440888009623, 357.16212211460424 213.36912831190472, 346.13717727842766 224.81759427959068 C335.11223244225107 236.26606024727664, 320.34419225371266 247.27659193715647, 305.2674086768151 255.6995192547668 C290.1906250999175 264.12244657237716, 273.5361009845641 270.357519712005, 255.67647581704205 275.35515818525266 C237.81685064951998 280.3527966585003, 217.36090116141347 284.9023780196441, 198.10965767168273 285.6853500942526 C178.85841418195199 286.4683221688611, 158.4796960081666 284.09346833163306, 140.16901487865763 280.05299063290374 C121.85833374914868 276.0125129341744, 104.03261101643068 269.19952121087994, 88.245570894629 261.4424839018767 C72.45853077282732 253.68544659287346, 57.560539506827745 244.16221263464547, 45.44677414784755 233.51076677888426 C33.33300878886735 222.85932092312305, 22.951921617853532 210.57526343820112, 15.562978740747837 197.5338087673094 C8.174035863642143 184.4923540964177, 2.9565296682936406 169.5665952746207, 1.1131168852133726 155.26203875353403 C-0.7302958978668954 140.95748223244735, 0.30211176773466253 125.60287233022443, 4.502502042266229 111.7064696407894 C8.702892316797797 97.81006695135436, 16.940349388492642 84.24284814187888, 26.315458532402772 71.88362261692382 C35.6905676763129 59.52439709196875, 46.93677170615774 47.37061354629116, 60.753156905726996 37.551116491059005 C74.56954210529625 27.73161943582685, 92.00611898081573 18.941677834800014, 109.21376972981831 12.966640285530872 C126.42142047882089 6.991602736261728, 147.9747387454467 4.022916044863189, 163.99906139974252 1.700891195444143 C180.02338405403833 -0.6211336539749035, 198.32983398701703 -1.0880340700039473, 205.35970565559322 -0.9655088109834082 C212.3895773241694 -0.8429835519628691, 206.5758220197577 -0.40440378054116843, 206.17829141119964 2.4360427495673775" stroke="#1864ab" stroke-width="4" fill="none"></path></g><g transform="translate(141.66677235141492 23.15625) rotate(0 191.18933105468747 142.30926513671875)"><path d="M247.27810816131316 6.134452836398481 C265.6345592792067 8.04069554410986, 284.7845975074779 17.08764356795617, 300.6616173250252 25.179108022226075 C316.5386371425725 33.27057247649598, 331.0858676597162 43.40786094297742, 342.540227066597 54.68323956201789 C353.99458647347785 65.95861818105836, 362.8892313704944 79.56810379899346, 369.38777376631026 92.83137973646888 C375.88631616212615 106.09465567394429, 380.37522384690703 120.32686604854506, 381.53148144149225 134.2628951868704 C382.68773903607746 148.19892432519572, 381.0494123155727 162.80816238182865, 376.32531933382165 176.44755456642088 C371.6012263520706 190.0869467510131, 363.15964335037506 203.90787800831174, 353.1869235509861 216.09924829442383 C343.2142037515971 228.29061858053592, 330.63525057606205 240.05030679985828, 316.4890005374879 249.59577628309347 C302.3427504989138 259.14124576632867, 285.5480667479783 267.59526057303134, 268.30942331954145 273.37206519383506 C251.07077989110462 279.1488698146388, 232.10831746330442 282.8642692507749, 213.05713996686688 284.25660400791566 C194.00596247042935 285.6489387650564, 172.88717906599834 284.42540438637593, 154.0023583409163 281.7260737366798 C135.11753761583424 279.02674308698363, 116.30086092935798 274.61641666556466, 99.74821561637462 268.0606201097388 C83.19557030339126 261.50482355391296, 68.06429875695801 252.62789140969707, 54.68648646301614 242.39129440172454 C41.308674169074266 232.154697393752, 28.325321593986907 219.47786852103798, 19.481341852723403 206.64103806190357 C10.637362111459899 193.80420760276917, 4.5222272928099585 179.55262143128815, 1.6226080154351052 165.37031164691803 C-1.277011261939748 151.1880018625479, -0.6641488856133151 135.39747104842496, 2.083626188474284 121.54717935568289 C4.831401262561883 107.6968876629408, 10.09858014385964 94.78245338195924, 18.1092584599607 82.26856149046552 C26.119936776061756 69.75466959897179, 37.011474126097895 57.073001677441596, 50.14769608508064 46.463828006720505 C63.283918044063384 35.85465433599941, 80.1743993893317 25.93839083222128, 96.92659021385715 18.613519466138982 C113.67878103838261 11.288648100056683, 132.0873803603591 5.430287277472557, 150.66084103223338 2.514599810226713 C169.23430170410765 -0.40108765701913063, 190.99436118881513 0.191062981842966, 208.36735424510283 1.1193946626639217 C225.74034730139053 2.0477263434848774, 245.92074565213596 5.950118027355183, 254.89879936995956 8.084589895152448 C263.87685308778316 10.219061762949712, 263.35992449902125 11.59937902645683, 262.2356765520444 13.926225869447507 M205.39217081082884 -0.656872235363835 C223.98864145550604 -1.8961497434361856, 244.21405293637014 4.477194917685364, 261.72915373898934 9.947574789995855 C279.24425454160854 15.417954662306347, 295.9389403016517 23.530372982916617, 310.48277562654414 32.16540699849911 C325.02661095143657 40.8004410140816, 338.45282051924846 50.28255534415695, 348.992165688344 61.7577788834908 C359.53151085743957 73.23300242282465, 367.9398503062663 87.07033785846131, 373.7188466411174 101.01674823450224 C379.4978429759685 114.96315861054318, 384.00637408587056 130.86514113889734, 383.6661436974508 145.43624113973638 C383.3259133090311 160.00734114057542, 378.02269413381936 174.98934525196228, 371.677464310599 188.44334823953653 C365.3322344873787 201.8973512271108, 356.32912686546683 214.87342669005275, 345.5947647581287 226.16025906518186 C334.86040265079055 237.44709144031097, 322.2960860181327 247.82204388851244, 307.2712916665703 256.1643424903112 C292.24649731500784 264.50664109210993, 273.741268212351 271.2562001019951, 255.4459986487542 276.21405067597425 C237.1507290851574 281.1719012499534, 216.7200701569031 285.4007978021185, 197.49967428498948 285.9114459341863 C178.27927841307587 286.4220940662541, 158.2169471261385 283.39188727490546, 140.12362341727248 279.27793946838096 C122.03029970840645 275.16399166185647, 104.77447141088994 268.7852480783943, 88.93973203179328 261.2277590950392 C73.10499265269662 253.67027011168403, 57.60254058819309 244.45695532182594, 45.11518714269255 233.93300556825017 C32.62783369719201 223.4090558146744, 21.211998780703322 211.39644997763116, 14.01561135879004 198.08406057358457 C6.8192239368767575 184.77167116953797, 3.6147039357904065 168.40245225701673, 1.9368626112128595 154.05866914397052 C0.2590212866353123 139.7148860309243, 0.12600427147419202 125.70093242299832, 3.9485634113247556 112.02136189530721 C7.771122551175319 98.3417913676161, 15.296231898984098 84.51147351347606, 24.872217450316242 71.98124597782383 C34.44820300164839 59.451018442171595, 47.486035837066574 46.59307487619509, 61.404476719317614 36.839996681393785 C75.32291760156866 27.08691848659248, 91.08723682047186 19.302323511311183, 108.38286274382249 13.462776809015992 C125.67848866717311 7.6232301067208015, 149.172384617092 3.936065502426293, 165.1782322594214 1.8027164676226448 C181.1840799017508 -0.33063256718100353, 197.72604998920673 0.22203450585477924, 204.41794859779895 0.6626826001941026 C211.10984720639118 1.103330694533426, 205.64173481428665 2.097952030409042, 205.32962391097485 4.446605033658585" stroke="#1864ab" stroke-width="4" fill="none"></path></g><g><g transform="translate(1330.668115124852 339.0504760742188) rotate(0 -0.8929764826688142 288.7365519772889)"><path d="M-0.2674351550638676 0.2376299120485783 C-0.7806461367756052 96.40273974475758, -2.535836412385068 481.9025779603669, -3.1735095217823526 578.1563222840427 M1.7930226591881366 -0.6832183294650167 C1.2204665999021458 95.66565191647346, -2.4802095146569973 480.4585581920637, -3.578975624525874 576.5220767515245" stroke="#1864ab" stroke-width="4" fill="none"></path></g></g><g><g transform="translate(2271.0479979373513 309.5105590820313) rotate(0 -2.419747303286613 288.54498787783086)"><path d="M-0.7110035754740238 -0.8535917066037655 C-1.5185993228107617 95.46449664173026, -4.1205181140452245 481.7321571229647, -4.732263489067509 577.9435674622655 M1.1165808180626482 1.3126687020901593 C0.09508799119853228 97.28483118435679, -4.896849109688736 480.1986664150251, -5.9560754246357375 576.1976256483141" stroke="#1864ab" stroke-width="4" fill="none"></path></g></g><g><g transform="translate(2281.0479979373513 319.5105590820313) rotate(0 -2.13280263448587 289.04730656919065)"><path d="M0.3277723766863345 1.1003950260579585 C-0.3107738692313359 97.20696637419363, -3.0898292247205594 480.51553371387223, -3.838691174983933 576.3727405905723 M-0.9592858548928053 0.6324984693992883 C-1.7229781920928433 96.89209752636341, -3.9350485534686217 481.3933157161592, -4.5933776456582835 577.462114668982" stroke="#1864ab" stroke-width="4" fill="none"></path></g></g><g><g transform="translate(328.60695789828895 322.6668090820313) rotate(0 -2.9093735770555327 288.9622483259533)"><path d="M-0.13437627330422397 0.7229113318026066 C-0.8428829703479929 96.96854637203116, -3.7487156409769873 480.60933459984756, -4.554096575081303 576.6386724904179 M-1.664062546128407 0.05683583565987638 C-2.5344445712957455 96.52850702306566, -5.549850338259674 481.5363620672716, -5.684370880806773 577.8676608162466" stroke="#1864ab" stroke-width="4" fill="none"></path></g></g><g><g transform="translate(1343.1750731326645 536.6107788085938) rotate(0 211.67941502969234 -107.08054456717336)"><path d="M0.33658279404044156 -0.811948873847723 C71.04835823203126 -36.60852999115984, 353.90567238156996 -178.0322110993167, 424.3046800278127 -213.8428676865995 M-0.9458499684277922 1.376174022043124 C69.67631895171166 -34.836630297914766, 352.75619484301967 -179.4924744595246, 423.7849875748809 -215.53726315638983" stroke="#1864ab" stroke-width="4" fill="none"></path></g></g><g><g transform="translate(2283.554955945164 507.07086181640625) rotate(0 211.67628694549194 -106.50978448008654)"><path d="M-0.8535917066037655 -0.5252694703638553 C69.84159633095065 -36.212257053206365, 353.6176555690666 -179.29176744793853, 424.2061655975878 -214.83292907252908 M0.8991339180897922 1.8133601123560221 C71.49600705256375 -33.622314067535726, 352.92696920395207 -177.1432978911729, 423.634753068788 -213.38710676993244" stroke="#1864ab" stroke-width="4" fill="none"></path></g></g><g><g transform="translate(2293.554955945164 517.0708618164062) rotate(0 212.55910288742757 -107.12427486404778)"><path d="M1.1003950260579585 0.3683028437197209 C71.58406606341401 -35.45580131436388, 352.4010321599742 -178.92034774844845, 422.6353387258947 -214.61685257181526 M0.2189636853989212 -0.4839421086665243 C71.10327339457037 -36.12871906580093, 354.1216185050861 -177.1868828494505, 424.8992420894559 -213.05759010634384" stroke="#1864ab" stroke-width="4" fill="none"></path></g></g><g><g transform="translate(341.11391590610145 520.2271118164062) rotate(0 212.47404464418997 -107.88260884061455)"><path d="M0.7229113318026066 -0.3471025563776493 C71.34564606125156 -36.22772569830219, 352.4948330459495 -179.85778083180386, 422.90127062574027 -215.41811512485145 M-0.35669894834049054 -1.5749353438150138 C70.73968289127262 -37.30590375130686, 354.87466485619854 -178.61646830156758, 425.30478823672047 -214.27951549972408" stroke="#1864ab" stroke-width="4" fill="none"></path></g></g><g><g transform="translate(1330.9680418826645 537.0357055664062) rotate(0 -159.30126295911612 -63.69249800120947)"><path d="M0.6927675940096378 -1.0154695607721804 C-52.25880594477058 -22.377865570535267, -265.19645164236425 -107.29775631601613, -318.2783848308027 -128.45080097690226 M-0.40266814847476784 1.065804974483326 C-53.47395761420019 -20.10410060748768, -266.2988002749253 -105.85859867011817, -319.2952935122419 -127.12976273025386" stroke="#1864ab" stroke-width="4" fill="none"></path></g></g><g><g transform="translate(2271.347924695164 507.49578857421875) rotate(0 -158.98076084383752 -64.06627012714745)"><path d="M-0.5252694703638553 0.7173960663378238 C-53.46038530841469 -20.615328036000335, -265.53240872398015 -107.48204299832385, -318.32169860377905 -128.8499363206327 M1.399825328355655 0.04842505582608281 C-51.64636614375749 -21.07623086732191, -266.2011348243896 -106.13963586063745, -319.36134701603095 -127.7384441294428" stroke="#1864ab" stroke-width="4" fill="none"></path></g></g><g><g transform="translate(2281.347924695164 517.4957885742188) rotate(0 -159.3317637543612 -63.85412814354058)"><path d="M0.3683028437197209 -0.8534308053553104 C-52.7039295695722 -22.540358370294168, -265.1609890244901 -107.8817289131383, -318.10562210306523 -129.0211703635752 M-0.8974768926668912 1.312914076494053 C-54.15277114202269 -19.741902127120024, -266.24471978266723 -106.13915688072953, -319.03183035244234 -127.99957604493015" stroke="#1864ab" stroke-width="4" fill="none"></path></g></g><g><g transform="translate(328.90688465610145 520.6520385742188) rotate(0 -158.61767739195844 -63.32370387542527)"><path d="M-0.3471025563776493 -0.5874989055097103 C-53.47585395351052 -22.102295456578336, -266.0984221078455 -107.1140955629448, -318.90688465610145 -128.36586797460913 M1.6715298721846192 1.7184602237585933 C-51.05995582752861 -19.68385618370337, -263.40430523478426 -105.57851602168444, -316.5937557458226 -127.00023990175687" stroke="#1864ab" stroke-width="4" fill="none"></path></g></g><g><g transform="translate(1330.441308484227 913.7686157226562) rotate(0 119.21597698703408 77.40147924343586)"><path d="M-1.0212010882794857 -0.797732339054346 C38.881099325170126 24.67919227903088, 199.65452972824374 128.27284701491396, 239.45315506234766 154.05001653656365 M0.6435296110343187 1.3978542376030236 C40.442313266697646 27.587363754458107, 198.9385230364433 129.9838271163373, 238.85279689024202 155.60069082592614" stroke="#1864ab" stroke-width="4" fill="none"></path></g></g><g><g transform="translate(2270.8211912967263 884.2286987304688) rotate(0 119.9502521180641 76.79964981014373)"><path d="M0.7173960663378238 -0.17448180690407744 C40.52292676543196 25.73156115834912, 198.2092310088376 129.05836256171267, 237.97959248796104 154.91098832115532 M-0.3651097281742841 -1.3116887008678169 C39.89610011309696 24.312226295418416, 200.394442489349 127.52173832520532, 240.26561396430247 153.25367279742844" stroke="#1864ab" stroke-width="4" fill="none"></path></g></g><g><g transform="translate(2280.8211912967263 894.2286987304688) rotate(0 119.57552562172987 76.94516470265111)"><path d="M-0.8534308053553104 0.041594693809747785 C38.597896431138125 25.792294460286694, 197.80954509402315 129.01956855232515, 237.80835844501854 154.8725014425814 M0.8993792924936863 -0.9821720372792334 C40.62042885329885 24.404844580873224, 200.3949214692569 127.46257746088939, 240.0044820488151 153.19498030760326" stroke="#1864ab" stroke-width="4" fill="none"></path></g></g><g><g transform="translate(328.38015125766395 897.3849487304688) rotate(0 118.93808096423743 77.1072256825864)"><path d="M-0.5874989055097103 -0.7596678592264652 C39.03595934485396 25.127202437569697, 198.57717844421666 129.0490157427887, 238.46366083398462 154.97411922439932 M1.3049254397582262 1.4559025693405419 C40.678474796715506 27.050579246229802, 197.90556232830198 128.1174844263463, 237.3438181919884 153.34994742487558" stroke="#1864ab" stroke-width="4" fill="none"></path></g></g><g><g transform="translate(1320.1277098514145 910.5338745117188) rotate(0 -10.662819209718123 108.59433025230658)"><path d="M-1.0596636079251767 0.17798184379935256 C-4.655710413306951 36.49379323149721, -18.722485139220954 180.77561452214917, -21.910512688010932 216.98896085247398 M0.58487426857464 -0.7741816335450857 C-2.5858101098705086 35.73134041204738, -16.038867263393477 181.42409859026162, -19.533727581398562 217.96284213815815" stroke="#1864ab" stroke-width="4" fill="none"></path></g></g><g><g transform="translate(2260.507592663914 880.9939575195312) rotate(0 -10.521577362162134 108.89987412467602)"><path d="M-0.17448180690407744 -0.8113010667264462 C-3.484584674984217 35.50430780823033, -17.022366604954005 181.99738212202988, -20.38588667884469 218.61104931607844 M-1.7252234848681838 1.377161927903071 C-5.069843358928338 37.27237514156538, -17.716186498636382 180.84729418007967, -20.868672917420046 216.77652704515495" stroke="#1864ab" stroke-width="4" fill="none"></path></g></g><g><g transform="translate(2270.507592663914 890.9939575195312) rotate(0 -10.442885356717852 108.71419928297402)"><path d="M0.041594693809747785 -0.9825351096689701 C-3.4238513730466362 35.56152563715974, -17.061160614341496 181.7717549783488, -20.424373557418583 218.41093367561697 M-1.3957068212796004 1.116030012415722 C-4.977225073473528 37.35963233068275, -17.775347362952306 180.50321278596607, -20.927365407245233 216.47135069345123" stroke="#1864ab" stroke-width="4" fill="none"></path></g></g><g><g transform="translate(318.06655262485145 894.1502075195312) rotate(0 -9.865015252316368 108.98221735053693)"><path d="M-0.7596678592264652 -0.32723272070288656 C-4.088943395763636 36.10449706489841, -17.031713423877953 181.61708584403, -20.322755775600672 218.00287980809807 M1.0423677853401752 -1.5446338444110006 C-2.3314904081169514 35.137663757984214, -17.120440397495404 182.70734235612986, -20.772398289972916 219.50906854548492" stroke="#1864ab" stroke-width="4" fill="none"></path></g></g></svg>