<svg version="1.1" xmlns="http://www.w3.org/2000/svg" viewBox="0 0 1350.7065547812108 537.2197092042305" width="1350.7065547812108" height="537.2197092042305">
  <!-- svg-source:excalidraw -->
  
  <defs>
    <style>
      @font-face {
        font-family: "Virgil";
        src: url("https://excalidraw.com/FG_Virgil.woff2");
      }
      @font-face {
        font-family: "Cascadia";
        src: url("https://excalidraw.com/Cascadia.woff2");
      }
    </style>
  </defs>
  <rect x="0" y="0" width="1350.7065547812108" height="537.2197092042305" fill="#ffffff"></rect><g transform="translate(45.76029795849058 170.40429741417992) rotate(0 102.2537740071615 86.42603556315105)"><path d="M141.2016632094724 6.54695656136478 C153.77899735447383 9.526309454779378, 166.42375957173226 18.607374723510745, 175.82928599319925 26.684628595272635 C185.23481241466624 34.761882467034525, 192.7352275993334 44.45519314109866, 197.63482173827427 55.01047979193612 C202.53441587721514 65.56576644277358, 205.83097339553393 78.79123121658063, 205.2268508268444 90.01634850029737 C204.6227282581549 101.24146578401411, 199.79396276627563 112.34563702194063, 194.01008632613718 122.36118349423654 C188.22620988599874 132.37672996653245, 180.300718976916 142.3433495408467, 170.52359218601373 150.10962733407285 C160.74646539511147 157.875905127299, 147.99836296083743 165.09197370049156, 135.34732558072358 168.95885025359343 C122.69628820060973 172.8257268066953, 108.13301162405256 174.45857830724236, 94.61736790533067 173.31088665268408 C81.10172418660878 172.1631949981258, 66.18152659064849 167.43947869982955, 54.2534632683922 162.0727003262437 C42.32539994613592 156.70592195265786, 31.291946500521064 149.73258424917987, 23.04898797179294 141.11021641116903 C14.806029443064817 132.4878485731582, 8.368861713421682 121.2753585896084, 4.795712096023465 110.33849329817869 C1.2225624786252474 99.40162800674898, -0.023164730367670527 86.77088142273, 1.6100902674036348 75.48902466259074 C3.2433452651749404 64.20716790245147, 7.877170557587173 52.28030643686243, 14.595242082651296 42.647352737343105 C21.31331360771542 33.01439903782378, 31.298163190297863 24.33649283626444, 41.918519417788374 17.691302465474777 C52.538875645278885 11.046112094685114, 65.30762471054466 5.390439833737005, 78.31737944759436 2.7762105126051324 C91.32713418464407 0.1619811914732594, 107.7757699938957 0.6738763290039624, 119.97704784008658 2.005926538683539 C132.17832568627747 3.3379767483631158, 144.9724895041524 8.342103567120724, 151.5250465247397 10.768511770682593 C158.077603545327 13.194919974244463, 160.2208596162437 15.402091023700102, 159.29238996361045 16.56437576005476 M126.7294751469264 3.515305905691619 C139.50181000208096 4.392065352171751, 154.6201779097088 10.004256587602995, 165.08052603065772 16.4334232114507 C175.54087415160666 22.862589835298408, 182.83533084126583 32.24272469284964, 189.49156387262002 42.09030564877785 C196.1477969039742 51.93788660470606, 203.1284151878386 64.19874146910787, 205.01792421878292 75.51890894701995 C206.90743324972723 86.83907642493203, 204.82185494179427 98.8119069079153, 200.82861805828588 110.01131051625029 C196.8353811747775 121.21071412458528, 189.74136103715972 133.75496666585275, 181.0585029177326 142.71533059702986 C172.37564479830547 151.67569452820698, 160.7796222988222 158.58303097801294, 148.73146934172308 163.77349410331297 C136.68331638462396 168.963957228613, 122.02981860384197 173.32485299132563, 108.76958517513795 173.85810934883006 C95.50935174643392 174.39136570633448, 81.55072351272702 170.877650607523, 69.17006876949893 166.9730322483395 C56.78941402627083 163.068413889156, 44.38471611001177 158.09871254091559, 34.48565671576941 150.43039919372907 C24.586597321527044 142.76208584654256, 15.489963294991934 131.53604323838022, 9.775712404044725 120.9631521652204 C4.061461513097515 110.39026109206057, 0.7619078584278896 98.29864961805279, 0.20015137008614658 86.99305275477009 C-0.3616051182555964 75.68745589148739, 1.3047616626953342 63.62532342615962, 6.405173473994267 53.12957098552422 C11.5055852852932 42.63381854488882, 21.073290651246765 31.759510310325773, 30.802622237879746 24.018538110957707 C40.531953824512726 16.27756591158964, 52.445321825243084 10.769202221159969, 64.78116299379217 6.683737789315813 C77.11700416234125 2.598273357471659, 94.328003643266 0.3813513620919693, 104.81766924917422 -0.4942484801072169 C115.30733485508243 -1.369848322306403, 123.96572602126652 0.5651490223866394, 127.71915662924145 1.4301387361206963 C131.47258723721637 2.295128449854753, 128.11067689656292 2.9832307672645184, 127.3382528970238 4.6956898022971245" stroke="#5c940d" stroke-width="4" fill="none"></path></g><g transform="translate(248.82263519807384 162.7454534200393) rotate(0 102.2537740071615 86.42603556315105)"><path d="M145.06396373467507 8.330403029481545 C157.1170358873527 11.516034659073977, 169.00274797369437 19.763251407108257, 177.94631644821118 28.279285418526477 C186.889884922728 36.7953194299447, 194.46806118194579 48.53552314713137, 198.72537458177595 59.42660709799086 C202.98268798160612 70.31769104885035, 204.44176859516526 82.41996186123392, 203.49019684719218 93.6257891236834 C202.5386250992191 104.8316163861329, 199.25630082305165 116.51666010122919, 193.0159440939375 126.66157067268783 C186.77558736482334 136.80648124414648, 176.69137730854627 147.19223706504104, 166.0480564725073 154.49525255243526 C155.40473563646836 161.79826803982948, 141.96309319298595 167.66170229310532, 129.15601907770383 170.4796635970532 C116.3489449624217 173.29762490100106, 102.3049133152015 173.10821271978085, 89.20561178081454 171.40302037612247 C76.10631024642757 169.6978280324641, 62.23356178966736 165.8819504828919, 50.56020987138205 160.24850953510287 C38.88685795309674 154.61506858731383, 27.310397980804623 146.69377494494012, 19.165500271102673 137.60237468938828 C11.020602561400723 128.51097443383645, 4.5698738124643565 116.77402946842149, 1.6908236131703518 105.70010800179186 C-1.1882265861236525 94.62618653516223, -0.5467330116628042 82.35973180834355, 1.8911990753386476 71.15884588961053 C4.329131162340099 59.9579599708775, 9.058090685738218 47.928059447676574, 16.318416135179064 38.49479248939371 C23.57874158461991 29.061525531110846, 34.129218775957774 20.635051879734334, 45.45315177198373 14.559244139913332 C56.77708476800968 8.48343640009233, 70.81841850743677 4.105828146197403, 84.26201411133476 2.039946050467691 C97.70560971523275 -0.025936045262021423, 115.32400610407137 0.8581709299262432, 126.11472539537168 2.163951565535058 C136.90544468667198 3.4697322011438727, 144.54342652261136 7.883837817755018, 149.0063298591366 9.874629864120578 C153.46923319566184 11.86542191048614, 153.61370210948644 12.985677479834678, 152.8921454145231 14.10870384372842 M115.93825317688214 0.22694603239128242 C128.74431727734438 0.5655505479576561, 143.27278093934413 6.858160764880693, 154.77163635196055 12.655773668018952 C166.27049176457697 18.45338657115721, 176.9146381742432 26.178122061161787, 184.9313856525807 35.01262345122084 C192.9481331309182 43.84712484127989, 199.781628085154 54.45253224128828, 202.87212122198548 65.66278200837326 C205.96261435881695 76.87303177545823, 205.86735710512218 90.90552452972321, 203.47434447356943 102.27412205373068 C201.08133184201668 113.64271957773815, 196.05774069802254 124.5045590565071, 188.51404543266892 133.87436715241805 C180.9703501673153 143.244175248329, 169.32143106381108 152.09854627490023, 158.21217288144774 158.4929706291963 C147.1029146990844 164.88739498349236, 134.96499394937115 170.0411150876407, 121.85849633848888 172.24091327819443 C108.7519987276066 174.44071146874816, 92.99493525073814 174.15533871541237, 79.57318721615411 171.69175977251876 C66.15143918157008 169.22818082962516, 52.19222967045755 164.4218592320254, 41.32800813098473 157.45943962083277 C30.463786591511905 150.49702000964012, 21.0514768932786 139.81706348496218, 14.38785797931719 129.9172421053629 C7.724239065355779 120.01742072576363, 3.2586933079506766 109.28453128697012, 1.3462946472162685 98.06051134323714 C-0.5661040135181399 86.83649139950415, -0.6244980198062322 73.38225722601801, 2.913466014910739 62.57312244296503 C6.45143004962771 51.763987659912054, 13.864119910054646 41.70055768444793, 22.574078855518096 33.20570264491926 C31.284037800981544 24.710847605390597, 43.53245272552469 17.18264272142377, 55.17321968769144 11.60399220579302 C66.8139866498582 6.025341690162272, 82.62942103487896 1.6020554553834785, 92.41868062851859 -0.2662004488652201 C102.20794022215821 -2.1344563531139187, 110.39991594308191 0.14357888817861664, 113.90877724952921 0.3944567803008283 C117.41763855597651 0.64533467242304, 113.30637162387085 -0.021855738128202518, 113.47184846720239 1.23906690386805" stroke="#5c940d" stroke-width="4" fill="none"></path></g><g transform="translate(460.05361257437585 166.0833643900914) rotate(0 102.2537740071615 86.42603556315105)"><path d="M139.8657730512286 6.450990542507839 C152.3076663556925 9.307835400566505, 165.73504772606356 17.948259306137743, 175.25898441529915 26.065282858358977 C184.78292110453475 34.18230641058021, 192.27054272035784 44.603565825531874, 197.00939318664223 55.15313185583524 C201.74824365292662 65.70269788613861, 204.03555043341288 78.24167283105247, 203.69208721300552 89.3626790401792 C203.34862399259816 100.48368524930594, 200.3942665576645 111.69374462557639, 194.948613864198 121.87916911059565 C189.50296117073148 132.06459359561492, 181.0367639835262 142.86320976768218, 171.0181710522064 150.47522595029477 C160.9995781208866 158.08724213290736, 147.5491074140279 163.79328252969913, 134.8370562762791 167.55126620627118 C122.12500513853031 171.30924988284323, 107.9008186437412 173.62522410870747, 94.74586422571366 173.02312800972717 C81.59090980768612 172.42103191074688, 67.93422605981034 169.31770083082893, 55.907329768113854 163.93868961238934 C43.880433476417366 158.55967839394975, 31.327143032805452 149.70288122605484, 22.584486475534717 140.74906069908968 C13.841829918263983 131.79524017212452, 7.198239016278935 121.17491237797196, 3.451390424489446 110.21576645059832 C-0.2954581673000427 99.25662052322468, -1.8049908394481378 86.36584076458811, 0.103394924797783 74.99418513484781 C2.0117806890437038 63.62252950510751, 7.880119967615239 51.553288056522234, 14.90170500996497 41.985832672156505 C21.9232900523147 32.418377287790776, 31.51701023556653 24.254220029768202, 42.232905178896175 17.58945282865345 C52.94880012222582 10.924685627538697, 66.29108809461177 4.816281033028085, 79.19707466994282 1.9972294654679956 C92.10306124527388 -0.8218221020920944, 108.27880855371514 -0.36790221601362094, 119.66882463088254 0.6751434232929086 C131.05884070804993 1.718189062599438, 141.7627427606805 5.937244563986704, 147.5371711329472 8.255503301307172 C153.3115995052139 10.57376203862764, 154.85268048988584 13.281899828581672, 154.31539486448276 14.584695847215713 M124.651011241269 3.253212871808117 C137.49059318406455 4.370863470724127, 150.86022563168004 9.693887260927816, 161.56678461090635 16.24040283741023 C172.27334359013267 22.786918413892643, 181.7778389076287 33.07320406216376, 188.89036511662692 42.53230633070259 C196.00289132562514 51.99140859924142, 202.26290842583666 62.16371214678347, 204.2419418648956 72.99501644864318 C206.22097530395456 83.8263207505029, 204.3510988218564 96.62020850839818, 200.76456575098058 107.5201321418609 C197.17803268010476 118.42005577532362, 190.82124255872327 129.27749520702918, 182.7227434396408 138.3945582494195 C174.62424432055832 147.51162129180983, 164.00725657221392 156.5794015875632, 152.17357103648567 162.22251039620284 C140.33988550075742 167.86561920484246, 125.17817291970779 170.95979480320202, 111.7206302252713 172.25321110125725 C98.2630875308348 173.54662739931248, 84.04356215759103 173.5356916125379, 71.42831486986668 169.98300818453424 C58.81306758214234 166.43032475653058, 46.002182338708295 158.50295769682734, 36.02914649892524 150.9371105332353 C26.056110659142192 143.3712633696433, 17.793193346675395 134.67315659897545, 11.590099831168388 124.58792520298203 C5.387006315661381 114.50269380698862, -0.27497368865172456 101.64811749675115, -1.1894145941167977 90.42572215727476 C-2.103855499581871 79.20332681779837, 1.1444451336668235 67.68735271049624, 6.103454398377949 57.253553166123645 C11.062463663089073 46.81975362175104, 19.26951079818422 36.37310578502336, 28.564640994149954 27.82292489103915 C37.85977119011569 19.27274399705494, 49.451335333424694 10.710523409456826, 61.874235574172346 5.952467802218365 C74.29713581492 1.194412194979904, 93.00098410302938 0.1605867449797197, 103.10204243863588 -0.7254087523916155 C113.20310077424237 -1.6114042497629506, 119.0108962218969 0.07614997493295306, 122.48058558781133 0.6364948179903536 C125.95027495372577 1.196839661047754, 124.18828439731645 1.0330996060681439, 123.92017863412244 2.6366603059527876" stroke="#5c940d" stroke-width="4" fill="none"></path></g><g transform="translate(666.9519076590113 144.26426242069036) rotate(0 102.2537740071615 86.42603556315105)"><path d="M144.85363980295065 8.790768969617801 C157.15890391520017 11.975094383990116, 169.84426359901275 19.787120732090536, 178.85356516140556 27.963106964227542 C187.86286672379836 36.13909319636455, 194.67711286391562 47.142297541240104, 198.90944917730744 57.84668636243985 C203.14178549069925 68.5510751836396, 205.16045811977654 80.74667436139694, 204.2475830417565 92.18943989142599 C203.3347079637365 103.63220542145504, 199.69760093014872 116.31672488287718, 193.43219870918722 126.50327954261414 C187.1667964882257 136.6898342023511, 177.12801605383632 146.00074826770367, 166.65516971598748 153.30876784984775 C156.18232337813865 160.61678743199184, 143.38865273717425 167.2947859692232, 130.59512068209423 170.35139703547856 C117.80158862701421 173.4080081017339, 103.09969268104535 173.16488715258356, 89.89397738550736 171.64843424737984 C76.68826208996936 170.13198134217612, 63.16698304630304 166.91654464869202, 51.36082890886624 161.25267960425626 C39.55467477142944 155.5888145598205, 27.21121641243083 146.72632584922974, 19.057052560886547 137.66524398076524 C10.902888709342266 128.60416211230074, 5.3286021177321246 117.8053281471672, 2.435845799600557 106.88618839346921 C-0.4569105185310107 95.96704863977122, -0.6452621778849683 83.55693634278408, 1.7005146520971408 72.1504054585773 C4.0462914820792495 60.74387457437051, 9.109264982504286 48.14616286130139, 16.510506779493213 38.447003088228485 C23.91174857648214 28.747843315155578, 35.04811579952546 20.272418518480972, 46.107965434030696 13.95544682013987 C57.16781506853593 7.638475121798767, 69.6842732283921 2.625226641415343, 82.86960458652463 0.5451728981818746 C96.05493594465716 -1.5348808450515938, 113.4541524069965 -0.4001255652315361, 125.21995358282584 1.4751243607390592 C136.9857547586552 3.3503742867096546, 147.39721081640818 9.137392223276095, 153.46441164150067 11.796672454005446 C159.53161246659317 14.455952684734797, 162.43884156264227 16.27766771687825, 161.6231585333809 17.430805745115165 M64.90581052023823 4.493927229618265 C76.09518220039436 -0.8657051284846053, 92.72364668447509 -0.6311505486044974, 106.18020594438296 -0.08091565064698614 C119.63676520429084 0.4693192473105251, 133.4459837648431 3.2222555984915395, 145.64516607968545 7.795336617363333 C157.8443483945278 12.368417636235126, 170.21305958709198 18.835725176154753, 179.37529983343705 27.357570462583773 C188.53754007978213 35.87941574901279, 196.48530282059656 47.78879743915814, 200.61860755775598 58.92640833593744 C204.7519122949154 70.06401923271675, 205.61924538679827 82.97283441859335, 204.17512825639352 94.1832358432596 C202.73101112598877 105.39363726792584, 198.04629933084559 116.54956841159407, 191.95390477532743 126.18881688393489 C185.86151021980928 135.82806535627572, 178.06049029924554 144.57187127629155, 167.62076092328456 152.01872667730458 C157.18103154732358 159.46558207831762, 142.17116208630875 167.62346249434717, 129.31552851956155 170.8699492900131 C116.45989495281434 174.11643608567903, 103.54698786279903 173.3312115671804, 90.48695952280129 171.49764745130017 C77.42693118280354 169.66408333541995, 62.64368777617089 165.62428506424254, 50.955358479575054 159.8685645947318 C39.267029182979215 154.11284412522105, 28.158980549004998 146.15531046108364, 20.356983743226237 136.96332463423562 C12.554986937447477 127.77133880738758, 7.486223819655338 115.85336289945998, 4.1433776449025 104.71664963364358 C0.8005314701496622 93.57993636782719, -1.6615900699023907 81.13809574638184, 0.2999066947092075 70.14304503933721 C2.261403459320806 59.14799433229259, 8.186646407643558 47.87911093991151, 15.912358232572089 38.746345391375854 C23.63807005750062 29.613579842840196, 38.27818415787727 20.96283559891759, 46.65417764428039 15.346451748123258 C55.030171130683506 9.730067897328926, 62.92580800940156 6.128617842795265, 66.16831915099078 5.048042286609856 C69.41083029258002 3.967466730424448, 65.64489162946843 7.579439650944089, 66.10924449381575 8.862998411010807" stroke="#5c940d" stroke-width="4" fill="none"></path></g><g transform="translate(879.5152824962511 145.97421318566433) rotate(0 102.25377400716138 86.42603556315105)"><path d="M151.54075325867043 9.873458182573714 C163.43528580134443 13.940985155541519, 174.0431927503081 24.481686336897315, 182.10928772836746 33.36257095350084 C190.17538270642683 42.24345557010437, 196.22366797519012 52.17195140815169, 199.9373231270266 63.15876588219488 C203.65097827886305 74.14558035623807, 206.16644691076232 87.87774382305813, 204.39121863938618 99.28345779775997 C202.61599036801005 110.6891717724618, 196.49970290991408 121.96881743159582, 189.28595349876971 131.59304973040588 C182.07220408762535 141.21728202921594, 172.02057509365366 150.3249970188073, 161.10872217252 157.02885159062032 C150.19686925138635 163.73270616243335, 136.9572596095298 169.5752599146368, 123.81483597196784 171.81617716128397 C110.67241233440586 174.05709440793115, 95.49895355642283 172.85539216183508, 82.25418034714816 170.47435507050335 C69.0094071378735 168.09331797917162, 55.36155878224062 163.6300968351532, 44.34619671631987 157.5299546132935 C33.33083465039911 151.4298123914338, 23.205154638041005 143.16889595939602, 16.16200795162365 133.8735017393451 C9.118861265206295 124.57810751929418, 4.409876552144786 112.98779738976701, 2.087316597815729 101.75758929298794 C-0.2352433565133274 90.52738119620888, -0.9538822727839666 77.62811436689887, 2.2266482256493134 66.49225315867068 C5.407178724082593 55.35639195044248, 13.17689283381399 44.197090429181934, 21.17049958841541 34.94242204361877 C29.16410634301683 25.687753658055605, 38.57650956154531 16.80015249694874, 50.18828875325782 10.964242845291679 C61.80006794497034 5.128333193634616, 77.21573227828334 1.0121329311974943, 90.84117473869051 -0.07303586632360748 C104.46661719909768 -1.1582046638447092, 121.47947940952362 2.572443712150469, 131.94094351570084 4.453230060165069 C142.40240762187804 6.334016408179669, 149.87338027910562 9.629471213340118, 153.6099593757538 11.211682221763994 C157.34653847240196 12.79389323018787, 155.37256170247417 12.669906012628388, 154.36041809558986 13.946496110708324 M93.89531028791698 -0.23444564069559704 C106.38279463955575 -2.4502834317382516, 122.90796120767715 1.4212405974217504, 135.46976641624101 5.316308285536067 C148.03157162480488 9.211375973650384, 159.53504570658453 15.50830950057021, 169.26614153930015 23.135960487990303 C178.99723737201577 30.763611475410396, 187.81067005731182 40.929527436428955, 193.85634141253468 51.082214210056634 C199.90201276775753 61.23490098368431, 205.0989077417048 73.15851351132194, 205.54016967063725 84.05208112975639 C205.9814315995697 94.94564874819083, 201.57926995702735 106.07348057122525, 196.50391298612942 116.44361992066331 C191.4285560152315 126.81375927010137, 184.15148269385935 138.04624714952206, 175.0880278452497 146.2729172263848 C166.02457299664007 154.49958730324755, 154.410573084487 161.5917167481411, 142.1231838944716 165.80364038183987 C129.8357947044562 170.01556401553864, 114.69881797590367 171.42990052937273, 101.3636927051572 171.54445902857736 C88.02856743441075 171.659017527782, 74.30950666171037 170.82669659677845, 62.11243226999287 166.49099137706776 C49.91535787827538 162.15528615735707, 37.47375292706099 154.11540239199394, 28.181246354852235 145.53022771031323 C18.888739782643476 136.94505302863251, 10.79666100294654 125.85254528951256, 6.357392836740331 114.97994328698351 C1.918124670534124 104.10734128445446, 0.8173368181043846 91.62072786215299, 1.5456373576149929 80.29461569513892 C2.273937897125601 68.96850352812484, 4.847216707761703 57.04824333296106, 10.72719607380398 47.02327028489905 C16.60717543984626 36.99829723683704, 26.696196537933034 27.16099999784101, 36.82551355386866 20.144777406766863 C46.95483056980429 13.128554815692716, 62.13077109120223 8.248437579802172, 71.50309816941774 4.92593473845416 C80.87542524763325 1.603431897106148, 89.46188565606663 0.9195480890952842, 93.05947602316172 0.2097603586787926 C96.65706639025682 -0.500027371737699, 92.708684899948 -0.8843539934970555, 93.08864037198829 0.6672083559552107" stroke="#5c940d" stroke-width="4" fill="none"></path></g><g transform="translate(1086.0785962983346 128.69831393436226) rotate(0 102.25377400716161 86.42603556315105)"><path d="M137.85505673941822 5.538903765496201 C150.1909397371909 8.364435729857034, 163.22921513312556 16.97039422568156, 172.9550474193896 24.945689827958375 C182.6808797056536 32.92098543023519, 191.09620302812945 42.86740876866479, 196.21005045700232 53.39067737915709 C201.3238978858752 63.91394598964939, 203.56409025126186 76.69497999002783, 203.63813199262677 88.08530149091219 C203.71217373399168 99.47562299179654, 201.8549538410128 111.45318028936137, 196.65430090519175 121.73260638446318 C191.4536479693707 132.012032479565, 182.40226488146945 141.95725700879402, 172.43421437770047 149.7618580615231 C162.4661638739315 157.56645911425218, 149.58729060546437 164.76087047508483, 136.84599788257782 168.56021270083772 C124.10470515969125 172.35955492659062, 109.39047176464997 173.31008869874196, 95.98645804038108 172.55791141604053 C82.58244431611219 171.8057341333391, 68.37271977948137 169.19716505130415, 56.421915536964434 164.04714900462903 C44.471111294447496 158.89713295795391, 32.7893456618637 150.42087797174344, 24.281632585279468 141.65781513598978 C15.773919508695235 132.89475230023612, 9.338442188437071 122.27970004240028, 5.375637077459032 111.46877199010703 C1.4128319664809936 100.65784393781378, -0.6159186599879476 87.91674916356163, 0.5048019194112356 76.7922468222303 C1.6255224988104189 65.66774448089896, 5.471818883248492 54.59176295809533, 12.099960553854132 44.72175794211904 C18.72810222445977 34.85175292614275, 29.573414045238316 24.466130098339566, 40.273651943045074 17.572216726372545 C50.97388984085183 10.678303354405525, 63.43367910648689 6.04517614536959, 76.3013879406947 3.3582777103169263 C89.1690967749025 0.6713792752642624, 105.3673627314139 0.4113672284866634, 117.47990494829189 1.450826116056561 C129.5924471651699 2.4902850036264583, 142.51532319494714 7.21552128901118, 148.97664124196262 9.595031035736312 C155.4379592889781 11.974540782461444, 156.9960311377497 14.515236079234278, 156.24781323038482 15.72788459640735 M122.97152038404496 2.711543608448949 C135.3917519373285 3.4574212227748213, 148.22786707499418 7.967841431241294, 159.2910278599703 13.99429706656693 C170.35418864494645 20.020752701892565, 182.02874425709751 28.947591884401596, 189.3504850939018 38.87027742040276 C196.67222593070608 48.79296295640392, 201.26401088134108 62.128311037005346, 203.22147288079606 73.5304102825739 C205.17893488025103 84.93250952814245, 204.60275092958761 96.18172034797675, 201.09525709063172 107.28287289381406 C197.58776325167582 118.38402543965137, 190.25064250460838 130.86008496236678, 182.17650984706077 140.13732555759776 C174.10237718951316 149.41456615282874, 164.0579933715886 157.64299719136213, 152.65046114534613 162.94631646519994 C141.24292891910366 168.24963573903776, 127.19514947232004 170.84117781341462, 113.73131648960603 171.95724120062465 C100.26748350689202 173.07330458783468, 84.95027140903068 173.0167549852639, 71.86746324906206 169.64269678846023 C58.78465508909344 166.26863859165655, 45.26551700477348 159.10914640764733, 35.23446752979433 151.71289201980267 C25.20341805481518 144.316637631958, 17.669953937670087 135.20325876079525, 11.681166399187148 125.26517046139227 C5.69237886070421 115.32708216198931, 0.2842197269361222 103.43453678893432, -0.6982577011033015 92.08436222338486 C-1.6807351291427253 80.73418765783539, 1.0603485996619169 68.08409660200334, 5.786301830950606 57.164123068095456 C10.512255062239294 46.24414953418758, 18.38217073087936 34.96727473997592, 27.657461686628835 26.564521019937587 C36.93275264237831 18.161767299899257, 49.093403882997194 11.252318281171338, 61.438047565447455 6.7476007478654765 C73.78269124789772 2.2428832145596163, 91.60574716119135 0.1702656967956505, 101.72532378133042 -0.4637841798975728 C111.84490040146949 -1.0978340565907962, 118.9048954673813 2.4601721434649733, 122.15550728628187 2.9433014877061368 C125.40611910518246 3.4264308319473002, 121.62590685351721 1.464311005015638, 121.22899469473393 2.434991885549408" stroke="#5c940d" stroke-width="4" fill="none"></path></g><g transform="translate(80.51417369091246 220.21890312707058) rotate(0 15.425287882486941 16.816126505533852)"><path d="M15.910273173823953 0.7963736560195684 C22.670551079057287 4.322419809165031, 26.362712173624224 12.15884715308118, 29.478950499867324 15.276828041300178 M16.426918919198215 -0.19685138296335936 C20.64165783914648 4.864645639613178, 26.70927090271197 11.608798561517057, 31.68122456998867 17.24846686888486 M29.407369136189345 15.97282194159925 C27.801135113561948 21.712165746480537, 21.458526324356647 26.775552285808235, 15.70681975223124 33.5285129652669 M30.418068871212427 17.45973124075681 C25.70111283262961 22.13461521275929, 22.112796244838904 27.079181276161314, 15.355587120167911 33.17813063630213 M15.9505307469517 33.70193911654253 C12.58423461017188 28.802268663433836, 7.8977583273964775 28.700317641993653, 0.8640859518200159 15.29298030398786 M15.574067468754947 33.443037281123296 C11.310223509608525 27.805922856151597, 5.953810978173035 22.44530954003491, -0.6248427974060178 17.213326414115727 M-1.8254458513110876 16.903311362490058 C4.87674972477369 11.57584407025948, 8.153650855151938 10.627519791238008, 15.521132806316018 0.6016936805099249 M-0.7028025733307004 16.016982753761113 C5.886857022652403 11.796166151631624, 11.082441690871493 5.523298861980438, 15.930344159714878 -0.3570664031431079" stroke="#5c940d" stroke-width="4" fill="none"></path></g><g transform="translate(168.9587944591417 221.3781133321487) rotate(0 15.425287882486941 16.816126505533852)"><path d="M14.504734495654702 -1.9611602518707514 C20.314598627661276 4.813121859410442, 22.77529002232089 5.97977524917353, 28.92443644938362 16.32909714244306 M15.490220065228641 0.4127686517313123 C20.32742539503471 5.148940589219485, 22.360535463641376 8.728948607701962, 30.78706149787945 17.102813084609807 M29.697612165783767 18.294103493914008 C24.88355231422301 22.326153604432314, 18.761107393468883 28.931754929754124, 14.830387214198709 35.25346959692736 M31.76241593093914 16.436651309020817 C25.718177559109776 23.053525502024954, 20.193727560782833 29.01015063165279, 16.529640371911228 33.90264553794016 M15.845613101497293 33.22227538687487 C13.016630702374623 27.36602383282034, 7.379276180921243 21.90584985519446, 0.680261293426156 17.8928949739784 M15.140439446084201 33.78475494155039 C9.974760154605507 27.95678767404477, 4.8493013165599095 22.598637717557857, 0.03692140709608793 17.233241935260594 M1.4702521953731775 15.543722858652472 C6.067091536549851 12.223998451773078, 11.71569457503967 4.5662079001590605, 17.80616114474833 1.2046181466430426 M-0.13553604949265718 16.539354939945042 C5.106306210765616 11.450383255351337, 9.270930319139735 7.27259100675583, 15.899704570882022 0.639341046102345" stroke="#5c940d" stroke-width="4" fill="none"></path></g><g><g transform="translate(100.75663584911558 283.2682195333206) rotate(0 34.67612649392652 4.500814491454513)"><path d="M0.1713930789381266 0.5153134223073721 C3.6799512211233374 1.6872092163811125, 10.294308105814773 8.10157422584792, 22.02407880462706 8.07886438332498 C33.75384950343935 8.05615454080204, 62.416952581910685 1.7593347307294604, 70.55001727181184 0.37905436716973784 M-1.1977642839588225 -0.25975097632035604 C2.1634019160829485 1.5757056117492418, 9.757634972720913 8.98276665195202, 21.65049264555797 9.26137995922938 C33.54335031839503 9.539993266506741, 61.8365530528522 2.90366754854098, 70.15938175306353 1.4119288673438133" stroke="#5c940d" stroke-width="4" fill="none"></path></g></g><g><g transform="translate(78.71577281200621 160.1751612650914) rotate(0 67.19906411381123 0.4755451869405789)"><path d="M-0.16899726949632177 -0.06719585694372654 C22.590506748068652 -0.12270739115774632, 113.63820662999314 0.3025193329900504, 136.11498779294385 0.5320927139371634 M-1.716859565321356 -1.1480776271782815 C21.027320419340896 -1.0699814084731043, 113.20443447522605 2.0068365719355645, 135.79105680073914 2.099168001059443" stroke="#5c940d" stroke-width="4" fill="none"></path></g></g><g><g transform="translate(83.17372976187607 153.6993820495966) rotate(0 69.89120850806864 -69.14219430705535)"><path d="M0.43563218750059596 -0.39867715872824194 C0.7575619032399268 -21.349826501847964, -20.76516875852326 -105.59711577399736, 2.469767676169522 -126.76725039916732 C25.704704110862302 -147.9373850243373, 117.67656043606483 -149.36798537741933, 139.84525079565728 -127.41948490974805 C162.0139411552497 -105.47098444207677, 135.8940644804387 -17.42176450130841, 135.48190983372416 4.923752406860382 M-0.7947996434010565 -1.6535866123996676 C-0.5856815723350731 -22.40563598267527, -21.30419609060938 -104.55546290290644, 2.0755295027853027 -125.81811782882238 C25.455255096179982 -147.08077275473832, 117.30230086580526 -151.1017013786133, 139.48355391696703 -129.22951616789527 C161.6648069681288 -107.35733095717723, 135.68897084629148 -17.34657842065519, 135.1630478097559 5.4149934354859" stroke="#5c940d" stroke-width="4" fill="none"></path></g></g><g><g transform="translate(1162.2318555756783 292.8141179708206) rotate(0 -43.38619794657461 94.26284408606588)"><path d="M-0.6932986859232187 -0.6208681996911763 C-15.542878620202345 30.715505316232644, -73.43546602365872 157.66647748785715, -87.9159766677767 189.14655637182295 M1.143580774627626 1.6675720501318576 C-13.4561778436477 33.14869038545837, -71.42334420346965 155.97885983391353, -85.79667746011168 187.25860957030207" stroke="#5c940d" stroke-width="4" fill="none"></path></g></g><g><g transform="translate(1231.8322787527613 287.4621485697789) rotate(0 54.22772448894875 110.12363093042747)"><path d="M-0.41882705055177205 0.39944281540811066 C17.554022770168103 37.055405763412516, 90.46777943343778 182.6923663691928, 108.87427602844964 219.1117711659521 M1.5621500185690822 -0.4364536518417299 C19.27783802829481 36.501730797632284, 89.83531137674038 183.91680152907347, 107.87590541139896 220.68371551269666" stroke="#5c940d" stroke-width="4" fill="none"></path></g></g><g transform="translate(1166.4105258230738 24.756063364700765) rotate(0 30 22.5)"><text x="0" y="32" font-family="Virgil, Segoe UI Emoji" font-size="36px" fill="#5c940d" text-anchor="start" style="white-space: pre;" direction="ltr">tail</text></g><g transform="translate(100.39744395458433 59.654999318476825) rotate(0 41.5 45)"><text x="0" y="32" font-family="Virgil, Segoe UI Emoji" font-size="36px" fill="#5c940d" text-anchor="start" style="white-space: pre;" direction="ltr">Head</text><text x="0" y="77" font-family="Virgil, Segoe UI Emoji" font-size="36px" fill="#5c940d" text-anchor="start" style="white-space: pre;" direction="ltr"></text></g><g><g transform="translate(1208.6712680105738 62.62175550337264) rotate(0 -7.136617515270245 52.71282087042309)"><path d="M0.31249043382704267 0.22573126517236242 C-1.934347270884397 17.65303646951086, -11.583314021717918 87.29960430558356, -13.781478096668616 104.65169169070819 M-0.9825908177532257 -0.7013637659512459 C-3.3371939234704104 16.912269490073538, -12.578944338172835 88.43859871027577, -14.585725464367314 106.12700550679737" stroke="#5c940d" stroke-width="4" fill="none"></path></g><g transform="translate(1208.6712680105738 62.62175550337264) rotate(0 -7.136617515270245 52.71282087042309)"><path d="M-20.962263862518274 77.35338132027805 C-19.65750641689269 86.88128734546437, -18.32314599864222 94.46064311244842, -15.131484626301571 105.78649977829927 M-22.062168622305297 77.85072164088756 C-18.373108599871667 84.40733817282282, -17.7332444541819 93.44131239154137, -13.98807711663936 105.21039868288362" stroke="#5c940d" stroke-width="4" fill="none"></path></g><g transform="translate(1208.6712680105738 62.62175550337264) rotate(0 -7.136617515270245 52.71282087042309)"><path d="M-0.5936559247816824 79.85134310233428 C-4.891327601868093 88.7454453260456, -9.157567372305301 95.63795566546365, -15.131484626301571 105.78649977829927 M-1.6935606845687055 80.3486834229438 C-3.5707062386530195 86.38285472483528, -8.479230188634048 94.73638669353028, -13.98807711663936 105.21039868288362" stroke="#5c940d" stroke-width="4" fill="none"></path></g></g><g><g transform="translate(94.55414154573009 343.83447319542995) rotate(0 -41.41471984171608 91.22441549662501)"><path d="M-0.3122356776148081 0.07160585559904575 C-14.420433691185357 30.330591116721433, -69.95074277093829 151.5221956634273, -83.8613802834102 181.8241294566542 M1.7247018622979522 -0.9364050155505539 C-12.567903255526364 29.507250811892252, -70.22641088621884 152.68660295510045, -84.55414154573018 183.38523600880058" stroke="#5c940d" stroke-width="4" fill="none"></path></g></g><g><g transform="translate(175.04476247671982 349.95823214725283) rotate(0 48.52508224012945 78.70425237851839)"><path d="M-1.0328375224024058 -0.9000438865274191 C15.206201605954089 25.644200706192187, 81.83370706070622 131.9059258312401, 98.08300200266135 158.3085486435642 M0.6257840489968656 1.2418291277065872 C16.753420681253893 27.566184502811073, 81.948400650252 131.1101867958945, 97.75527209238452 156.79804967069379" stroke="#5c940d" stroke-width="4" fill="none"></path></g></g><g transform="translate(340.57640920523545 226.67148898319033) rotate(0 10.5 22.5)"><text x="10.5" y="32" font-family="Virgil, Segoe UI Emoji" font-size="36px" fill="#5c940d" text-anchor="middle" style="white-space: pre;" direction="ltr">4</text></g><g transform="translate(548.8073865815372 230.00939995324245) rotate(0 13.5 22.5)"><text x="13.5" y="32" font-family="Virgil, Segoe UI Emoji" font-size="36px" fill="#5c940d" text-anchor="middle" style="white-space: pre;" direction="ltr">2</text></g><g transform="translate(742.705681666173 208.1902979838414) rotate(0 26.5 22.5)"><text x="26.5" y="32" font-family="Virgil, Segoe UI Emoji" font-size="36px" fill="#5c940d" text-anchor="middle" style="white-space: pre;" direction="ltr">55</text></g><g transform="translate(964.7690565034127 209.9002487488154) rotate(0 17 22.5)"><text x="17" y="32" font-family="Virgil, Segoe UI Emoji" font-size="36px" fill="#5c940d" text-anchor="middle" style="white-space: pre;" direction="ltr">21</text></g><g transform="translate(1163.8323703054962 192.62434949751332) rotate(0 24.5 22.5)"><text x="24.5" y="32" font-family="Virgil, Segoe UI Emoji" font-size="36px" fill="#5c940d" text-anchor="middle" style="white-space: pre;" direction="ltr">82</text></g></svg>