<svg version="1.1" xmlns="http://www.w3.org/2000/svg" viewBox="0 0 1745.768188476563 2023.6985321044922" width="5237.304565429689" height="6071.095596313477">
  <!-- svg-source:excalidraw -->
  
  <defs>
    <style>
      @font-face {
        font-family: "Virgil";
        src: url("https://excalidraw.com/Virgil.woff2");
      }
      @font-face {
        font-family: "Cascadia";
        src: url("https://excalidraw.com/Cascadia.woff2");
      }
    </style>
  </defs>
  <g transform="translate(627.9524230957031 876.8549346923828) rotate(0 119.5 260.5)"><text x="0" y="366" font-family="Virgil, Segoe UI Emoji" font-size="412.1569649832597px" fill="#d9480f" text-anchor="start" style="white-space: pre;" direction="ltr">4</text></g><g transform="translate(141.66534423828125 1399.361801147461) rotate(0 148.5 260.5)"><text x="0" y="366" font-family="Virgil, Segoe UI Emoji" font-size="412.1569649832597px" fill="#d9480f" text-anchor="start" style="white-space: pre;" direction="ltr">3</text></g><g transform="translate(929.3382263183594 1466.6985321044922) rotate(0 192.00000000000006 260.5)"><text x="0" y="366" font-family="Virgil, Segoe UI Emoji" font-size="412.1569649832597px" fill="#d9480f" text-anchor="start" style="white-space: pre;" direction="ltr">12</text></g><g transform="translate(1071.9435119628906 523.5611724853516) rotate(0 148.00000000000006 260.5)"><text x="0" y="366" font-family="Virgil, Segoe UI Emoji" font-size="412.1569649832597px" fill="#d9480f" text-anchor="start" style="white-space: pre;" direction="ltr">5</text></g><g transform="translate(1575.4849243164062 10) rotate(0 80.14163208007824 257.5981031145372)"><text x="0" y="360.1962062290744" font-family="Virgil, Segoe UI Emoji" font-size="412.1569649832597px" fill="#d9480f" text-anchor="start" style="white-space: pre;" direction="ltr">7</text></g><g><g transform="translate(1616.9232177734375 260.31434631347656) rotate(0 -145.27398822880343 189.89427029243672)"><path d="M-0.2707587897777557 0.6024586379528045 C-48.810373975833265 63.731166841586436, -242.98321364919346 315.7607112268607, -291.6403642356396 378.9381071746349 M1.7879541162494572 -0.12685452246107154 C-46.83236860644382 63.098352638746924, -243.19996105970503 316.42645842151404, -292.33593057385644 379.91539510733446" stroke="#d9480f" stroke-width="4" fill="none"></path></g><g transform="translate(1616.9232177734375 260.31434631347656) rotate(0 -145.27398822880343 189.89427029243672)"><path d="M-282.1815759797733 352.1464278820446 C-287.36242891659055 358.78271766530736, -288.58591385307113 365.70890997765616, -290.4001111566182 379.854484614199 M-284.0490518917482 351.2166809413126 C-285.5559863330446 360.0071090002569, -288.21510687007424 368.57229377700077, -292.3352211742755 380.15882227963766" stroke="#d9480f" stroke-width="4" fill="none"></path></g><g transform="translate(1616.9232177734375 260.31434631347656) rotate(0 -145.27398822880343 189.89427029243672)"><path d="M-265.9575735648779 364.71232411061925 C-275.4785810363601 367.9639008174198, -281.0248525589723 371.5419866471331, -290.4001111566182 379.854484614199 M-267.8250494768528 363.78257716988725 C-273.97188602659827 368.8420058066239, -281.32751931117303 373.76962382809864, -292.3352211742755 380.15882227963766" stroke="#d9480f" stroke-width="4" fill="none"></path></g></g><g><g transform="translate(1118.9657592773438 830.7163391113281) rotate(0 -97.7384912901698 113.4581651389599)"><path d="M1.0614364922046662 -0.9990847885608672 C-31.674620344241465 36.99852295120558, -162.94047759572666 189.99177583257358, -196.2089135825634 227.91541506648065 M0.1595519212726504 1.090791752105579 C-32.64958610903782 38.78609046604795, -163.8009975320256 188.6039307458854, -196.5384190725442 226.3759082031902" stroke="#d9480f" stroke-width="4" fill="none"></path></g><g transform="translate(1118.9657592773438 830.7163391113281) rotate(0 -97.7384912901698 113.4581651389599)"><path d="M-187.41550393776134 200.34635231947942 C-187.33863196441345 205.42316471059425, -193.04930122595002 217.16209130354773, -198.15379670730792 226.48210052377544 M-185.07865131274895 198.559414292932 C-187.22006620489947 204.78151523621628, -190.5882456259111 210.59707333943535, -196.40050836375914 225.46373196667992" stroke="#d9480f" stroke-width="4" fill="none"></path></g><g transform="translate(1118.9657592773438 830.7163391113281) rotate(0 -97.7384912901698 113.4581651389599)"><path d="M-171.94576374409334 213.82994014788224 C-176.7693264503697 214.76543857579233, -187.3883218154827 222.2262166491537, -198.15379670730792 226.48210052377544 M-169.60891111908094 212.0430021213348 C-174.91304395951906 215.7099808875373, -181.38252493755883 218.8224120213928, -196.40050836375914 225.46373196667992" stroke="#d9480f" stroke-width="4" fill="none"></path></g></g><g><g transform="translate(767.8692626953125 1152.0330200195312) rotate(0 -169.07280598934275 174.73085617653095)"><path d="M-0.0910361945629119 -0.008147746324539185 C-56.22230075399081 58.27487360835076, -280.88561487396555 290.8572663009167, -337.2641023337841 349.4436628997326 M-1.5979689260479064 -1.0580292584840207 C-57.81929771156671 57.374734461968764, -282.33982676964564 292.0448499289807, -338.05457578412256 350.5197416115459" stroke="#d9480f" stroke-width="4" fill="none"></path></g><g transform="translate(767.8692626953125 1152.0330200195312) rotate(0 -169.07280598934275 174.73085617653095)"><path d="M-326.01620373714553 323.5472480803076 C-330.6624809855983 328.8592270285947, -330.35520694032175 338.926168100453, -339.19722468963823 349.71442346460185 M-325.06950499702083 323.64213263981975 C-327.8395980140103 330.233956448303, -331.93664951148645 334.6282635564874, -338.0297079067584 350.91704985684714" stroke="#d9480f" stroke-width="4" fill="none"></path></g><g transform="translate(767.8692626953125 1152.0330200195312) rotate(0 -169.07280598934275 174.73085617653095)"><path d="M-311.17669939181206 337.7214892653118 C-319.6555003416179 339.3327912760023, -323.2108070936894 345.7103131769707, -339.19722468963823 349.71442346460185 M-310.23000065168736 337.8163738248239 C-316.4120872958888 341.37396370383294, -323.8389223922316 342.58776324748754, -338.0297079067584 350.91704985684714" stroke="#d9480f" stroke-width="4" fill="none"></path></g></g><g><g transform="translate(835.4441833496094 1273.6953125) rotate(0 87.44542170588392 130.88275208431762)"><path d="M-0.03501504063606253 -0.6110265433788299 C29.494596483310065 42.95529088775317, 147.12234643499056 217.2269885679086, 176.4033800780773 260.89041903615 M-1.512536666309461 1.6825805760081858 C28.026354761108134 45.48911847846273, 146.61923515546755 219.45241471316976, 176.0526400087122 262.3765307120141" stroke="#d9480f" stroke-width="4" fill="none"></path></g><g transform="translate(835.4441833496094 1273.6953125) rotate(0 87.44542170588392 130.88275208431762)"><path d="M150.65850518431336 246.78495805385788 C157.1799295358931 249.65636626264381, 163.7183952358884 253.1630263222936, 177.0637376485113 261.0707014552411 M151.81497517015606 244.74764466705997 C157.71102964541447 248.6436242012097, 162.32278794490404 252.37888556739003, 177.0143813518528 262.5929054520186" stroke="#d9480f" stroke-width="4" fill="none"></path></g><g transform="translate(835.4441833496094 1273.6953125) rotate(0 87.44542170588392 130.88275208431762)"><path d="M167.60227751802367 235.20788668458522 C170.08489166983472 240.80047226577202, 172.63350714038344 247.03325375512924, 177.0637376485113 261.0707014552411 M168.75874750386637 233.1705732977873 C171.05883492936053 239.61750626393084, 172.01417264414957 245.85106855339123, 177.0143813518528 262.5929054520186" stroke="#d9480f" stroke-width="4" fill="none"></path></g></g><g transform="translate(9.999999999999943 267.1039581298828) rotate(0 647.9956054687506 52.071075439453125)"><text x="0" y="73.14215087890628" font-family="Virgil, Segoe UI Emoji" font-size="83.31372070312509px" fill="#0b7285" text-anchor="start" style="white-space: pre;" direction="ltr">Branch in a Binary search tree</text></g><g transform="translate(1567.768188476563 2003.6985321044922) rotate(0 84 10)"><text x="168" y="14" font-family="Virgil, Segoe UI Emoji" font-size="16px" fill="#adb5bd" text-anchor="end" style="white-space: pre;" direction="ltr">Made with Excalidraw</text></g></svg>