<svg version="1.1" xmlns="http://www.w3.org/2000/svg" viewBox="0 0 2777.9953206380214 1293.8626607259116" width="2777.9953206380214" height="1293.8626607259116">
  <!-- svg-source:excalidraw -->
  
  <defs>
    <style>
      @font-face {
        font-family: "Virgil";
        src: url("https://excalidraw.com/FG_Virgil.woff2");
      }
      @font-face {
        font-family: "Cascadia";
        src: url("https://excalidraw.com/Cascadia.woff2");
      }
    </style>
  </defs>
  <rect x="0" y="0" width="2777.9953206380214" height="1293.8626607259116" fill="#ffffff"></rect><g transform="translate(1134.00809733073 98.48475138346353) rotate(0 0.08148193359375 0.0815327962239536)"><path d="M-0.01617038490496725 0.0036813070133803194 C0.05561532048341178 0.013096156738504306, 0.08584397777360664 0.010127244299985705, 0.1773625856507124 -0.00035461696222682804 M-0.004245389650066045 -0.0021408100568010013 C0.03872576294514829 0.006983629346859743, 0.07710856797172028 -0.0005440645173166558, 0.16283330980269284 0.004566138129746378 M0.16331357800396515 -0.0127045560136397 C0.1584736695925758 0.071466911133518, 0.17499951458561067 0.09680972755917505, 0.16312644813939414 0.15124916534046967 M0.17054181122418255 0.006199615558092944 C0.16605934489400986 0.06397895268363724, 0.16426716902499636 0.12176353054563314, 0.15511750109420602 0.16357948180804743 M0.16289359025847716 0.16037638908645135 C0.1132070510182075 0.1576785468455853, 0.06363741453071725 0.1579425658924663, 0.013838459067642361 0.1704316450498311 M0.1707840117008459 0.1597594430425886 C0.10129218183459443 0.16677412957931778, 0.044808401948614573 0.16888098183579245, -0.0019419487932168522 0.1600718013272342 M0.01297199540179312 0.1623806324398724 C0.00469930148497583 0.11153478678472875, -0.012981715734146068 0.061407497415886525, -0.011678892218942645 -0.001440089675630354 M-0.0033699437193393973 0.16674734224809126 C-0.0023291121713781204 0.13365013694097816, 0.002767154612994537 0.10188487180106046, 0.004068637759066246 0.001013723627266868" stroke="#5c940d" stroke-width="4" fill="none"></path></g><g transform="translate(1062.1497802734389 322.12966918945324) rotate(0 439.8854064941406 480.86649576822924)"><path d="M-0.797552989423275 0.5196475490927697 C284.5118564556347 -2.944376619374196, 567.2904812937591 -2.1851938324326676, 879.5635743394494 -0.4168177619576454 M-0.37559709623456006 -0.04743233844637871 C240.81023595554078 -2.609648271732806, 481.8013416818767 -2.8207875930600155, 880.0326846830546 0.008578408509492874 M880.3586789384484 -0.7227194800972939 C878.7069752456179 213.0108836146647, 879.3215450526704 426.90063752729776, 879.3640582814812 962.4765395944319 M879.8628087751567 -0.07137173339724541 C881.1162197582297 361.6736546081623, 881.6815411321692 723.1501392321925, 880.1392660610378 961.7312665668628 M880.416328407824 961.4078082864485 C631.0367434279366 960.6071491421341, 381.54092462236554 960.1709370316146, 0.20214140564203265 962.5007832830153 M879.964342545718 961.9982585636279 C651.4411537261054 963.0098482216458, 423.4526809404283 963.4752881849865, 0.202993892878294 962.0511946645877 M-0.5731885656714439 962.147738010188 C-1.98787952211895 677.1822203055799, -2.2005222394804003 392.2254901375928, 0.7849282041192055 -0.33065896183252336 M0.08103058263659478 961.9602459875248 C1.8248624041211927 629.8341653657064, 1.5010800793302381 298.1890059169839, -0.302010727673769 0.040164459496736526" stroke="#5f3dc4" stroke-width="4" fill="none"></path></g><g transform="translate(1059.652425130209 1067.7833557128906) rotate(0 0.8969624837239962 0.08153279622393939)"><path d="M0.04525983272524742 0.0955601222531795 C0.3165609092366274 0.13769367254265424, 0.8095182417347134 0.04597847459853412, 1.9608210666495887 0.08336074481036698 M0.08212620344499408 -0.0808190700084818 C0.7022865753368339 -0.05712185828417901, 1.2559769645256875 0.02342544242738714, 1.8330961387236582 0.03469295747706415 M1.790291802573867 -0.015763520459828945 C1.8029098813485194 0.05379344022983598, 1.7788737188950883 0.10374404384780155, 1.8010866028974781 0.1633143850695167 M1.7944268513228487 -0.00511051456581294 C1.7885789607341598 0.05474924664840024, 1.786377469935411 0.11319421118558375, 1.800027914162104 0.16410711299061115 M1.8391210507367666 0.051656614610403565 C1.2146891558467643 0.0605303014977735, 0.5420145273951714 0.22415911944905315, 0.15138227500084322 0.16289975549839633 M1.7561725155152206 0.08344027928880986 C1.4377367615622103 0.21833862906065107, 0.8572007917922407 0.16937992260547718, -0.0530274402918966 0.22703131384750733 M-0.010924920686550686 0.16034510839959226 C0.013301445901810153 0.10107422434215625, 0.0082215714840231 0.06217711534578023, 0.016290833117273 0.007292383234374911 M-0.007553651930538902 0.15539796686146387 C0.00264313356167288 0.12296676911864762, 0.008049854692056163 0.09077193325514346, 0.007973303543497009 -0.004382506584106641" stroke="#5f3dc4" stroke-width="4" fill="none"></path></g><g transform="translate(1065.7189127604174 1064.0051778157551) rotate(0 433.87715657552087 107.07509358723962)"><path d="M0.12965018898248673 0.7442723736166954 C204.58671338103173 1.668128104338105, 409.0440466536474 1.7531836940140086, 868.4867959911624 -0.7208245292305947 M0.17219810411334038 0.17468365505337716 C290.760155937796 3.483123894562786, 581.3581716022892 3.365151687493389, 867.6651915940145 -0.3866792552173138 M867.0291948478146 0.769797555187039 C867.6139888557892 76.09902419861984, 866.1623115512186 149.956402706051, 867.8622072159035 213.05153822864577 M867.7191412082408 0.6560000844914899 C867.4032497892275 53.91283506699691, 866.8112938016941 107.06036386986035, 867.975110157118 213.60591946439052 M868.0550957138338 214.8252757216494 C604.7676887269706 212.05625724458886, 342.2326026019238 212.56271481180383, -0.33671376556158067 213.4400097514193 M867.7817035826542 213.91371155257033 C539.8536422172564 210.83342500006341, 211.19633204204416 211.036758640162, -0.2679883725941181 214.08345368380355 M-0.8872637012368897 215.9012737236469 C2.587876355384873 131.78105559381245, 1.4642763896830702 51.699581367476526, -1.623870086623936 -1.6483719318429286 M-0.5583029381092253 215.00723018062513 C1.0364335581042967 143.47243673963487, 1.36314025496602 73.84011509032469, -0.5965886118420891 0.19617682812869694" stroke="#1864ab" stroke-width="4" fill="none"></path></g><g transform="translate(1066.4303792317714 839.4580586751302) rotate(0 433.87715657552064 107.07509358723962)"><path d="M0.2959684833884239 0.2946616426110268 C259.77848078815543 -2.6621743477627775, 520.1973685201685 -1.8629182614132902, 867.7095652247467 -0.027150176465511322 M-0.015401612967252731 -0.2512595422565937 C242.55278675730966 -2.3442793837483102, 484.39396173036977 -2.119299196332234, 867.562599592159 0.1947991840541363 M868.027884495719 0.14094284034635873 C868.2396504314809 60.00496087619838, 867.9444932610373 124.19352928119692, 867.9846745088885 214.30640959906805 M867.5346894101352 -0.6626881478102151 C865.7296951828841 70.71048852930736, 866.6617814249523 142.57802280129056, 868.255462971084 213.32587928781214 M867.8107669974365 214.43380650828288 C644.1229234797112 217.9769890028244, 421.9959671079819 216.63614193975982, -0.5464238181710244 213.72606024096416 M867.9179469632604 214.51793679321813 C545.3733695536845 214.03650249814046, 223.79030413751659 213.56944929932607, -0.24338949844241142 214.29570786083747 M0.4165169938020578 215.49053867037264 C0.054822924613684876 169.11123407942884, -0.8064443412097436 126.36260099977487, -0.6334980036233038 -0.6357068311678479 M-0.7283797892786342 213.48193883472103 C0.7022788924602641 132.99890189714426, 1.87286258981983 50.69889774345662, 0.3073492205206643 0.5502371514290074" stroke="#1864ab" stroke-width="4" fill="none"></path></g><g transform="translate(1066.0820719401045 611.7621358235677) rotate(0 433.87715657552064 107.07509358723962)"><path d="M-0.6039829477667809 0.33912834972143174 C227.1693051285718 2.276322473186643, 453.6900312542268 3.148936046260984, 868.3646588260928 -0.40391960293054585 M0.3479448787868023 -0.3527560822665692 C260.0954366380713 2.857862004875396, 519.7239334937914 3.06976803266928, 867.6255468281605 0.3208282120525837 M867.0395860056569 1.0671740593061256 C865.6913415321491 79.84657601344725, 865.4966710850453 161.53200689313644, 868.9939131873746 214.58449864214575 M866.9827721869789 -0.04953939048795179 C867.8788904486852 82.03592669948523, 869.0209462586715 163.67006830753957, 867.1379416184184 214.66842512206122 M866.961788504819 214.19298936376975 C585.0069441228894 212.32035574146616, 301.4453385715263 212.02667597957958, -0.021064065396785736 213.36668640623498 M867.3902659090855 214.0257707166176 C560.2003782654815 214.51609063538965, 252.5553140776879 215.2634626666015, 0.09051444455981256 213.77294052119063 M1.5098605099396911 212.65630825945064 C3.035041865130089 130.96980347972035, 1.190155843005891 49.82611702269295, -0.09656169740733685 1.2569543039578301 M-0.6157637571837453 214.2091454420819 C0.982767714166458 146.93330754701296, 1.4137374387994224 78.47236239388596, -0.6048615664987983 0.4855240101350455" stroke="#1864ab" stroke-width="4" fill="none"></path></g><g transform="translate(10 685.6145528157552) rotate(0 433.8771565755207 107.07509358723962)"><path d="M-0.22453205436468127 0.013203762471675873 C325.72903760496564 -0.4205890056850301, 650.9252601573623 -1.219267546868502, 867.3272731716432 0.7531544670462609 M-0.36956605985760693 -0.12327538654208184 C294.7320535686493 0.9496010663752259, 589.9147271217167 0.30997053411051645, 868.1471426400044 -0.12773827239871025 M869.1093307619243 1.4309498342855564 C868.9773451939199 82.11239184269493, 870.0175632796049 167.19267584827315, 867.8736111412765 213.1584619912497 M867.4412962613089 -0.7010956606686748 C868.430487111403 68.26975202133389, 867.5516682207067 135.14422816664387, 866.8982975648552 213.38531646424343 M867.773923724393 213.57217341909814 C664.4212705044902 215.80628590880053, 462.22582095890397 215.59658747015612, -0.6197107061743736 213.6946894312899 M867.3916178854802 214.487023262928 C621.9132262735068 216.80063185894772, 375.8953319454689 216.77039311135098, -0.2017416723072529 214.27792323107528 M-0.48124693249951905 215.18501870015226 C2.140484496826433 129.7379763300057, -0.8979820139931838 49.46239284130814, 0.14450977959003972 -0.42063482911408956 M0.5433054294478994 214.99805509602965 C1.0352084845101044 152.9845958730932, 0.1631461134895379 93.47462777940066, -0.8386952137304032 -0.7677703762983931" stroke="#1864ab" stroke-width="4" fill="none"></path></g><g transform="translate(1900.24100748698 10) rotate(0 433.87715657552076 107.07509358723962)"><path d="M-0.7778195127844811 -0.5257016196846962 C274.82933357641366 -1.1962586664099426, 549.9440321368032 -1.887025525464508, 867.7468571121492 0.08954663127660752 M-0.16233036592602731 0.15090638473629953 C184.58978344768892 -2.047842560880529, 370.1666767718019 -2.0134626256159414, 867.4994733961919 0.23019365146756174 M866.8097555796174 -1.5048700650236775 C867.6478457838917 46.673037472966186, 866.8852699662641 95.18953657762304, 867.9949527894853 212.66064245315525 M867.1620607179034 -0.8253732795323475 C866.9715222769277 72.05140204063804, 866.0868211020307 142.90118301180007, 866.9865468198321 214.01714889349032 M867.7894503528871 214.2580574656527 C579.9312732980273 213.81330766499897, 290.7608174956089 215.15888418973347, 0.19065997749567032 214.2979608679812 M867.9905939968922 214.06289723391342 C565.8075348268455 212.5119346471744, 263.97088602667185 212.55624347648194, -0.20381307676434518 214.28915868277358 M-1.6045324325249268 213.47238628520785 C-1.1513489912534658 135.01217721251334, -0.23210971680249376 54.342485911168126, 0.10038523045677564 1.0200081778454408 M0.6558176441212383 214.21944481982572 C0.3914968421939695 134.65998186119668, -0.05114206640077057 54.13017603044034, -0.2578151043194673 -0.2766547553985402" stroke="#1864ab" stroke-width="4" fill="none"></path></g><g transform="translate(1463.5145263671884 1138.8854064941406) rotate(0 3 22.5)"><text x="0" y="32" font-family="Virgil, Segoe UI Emoji" font-size="36px" fill="#1864ab" text-anchor="start" style="white-space: pre;" direction="ltr">1</text></g><g transform="translate(1469.2650553385424 930.8473815917969) rotate(0 13.5 22.5)"><text x="0" y="32" font-family="Virgil, Segoe UI Emoji" font-size="36px" fill="#1864ab" text-anchor="start" style="white-space: pre;" direction="ltr">2</text></g><g transform="translate(1470.7926635742197 663.6589660644531) rotate(0 13 22.5)"><text x="0" y="32" font-family="Virgil, Segoe UI Emoji" font-size="36px" fill="#1864ab" text-anchor="start" style="white-space: pre;" direction="ltr">3</text></g><g><g transform="translate(2093.8707682291674 136.3428751627604) rotate(0 -303.01593428789795 155.43448078473924)"><path d="M-0.21897643581032755 -0.6115330003201961 C-76.99909883514047 0.19665128696296108, -359.0039977355964 -51.37731812753611, -459.86182662025095 3.9463479814430173 C-560.7196555049055 59.270014090422144, -581.0524697665538 276.63720737869545, -605.3659497437377 331.33046365355455 M-1.7930777939502152 1.6818082291726024 C-78.74245352738536 2.7323019332862994, -359.77736871570454 -49.84789892837301, -460.44733777337706 5.2374754297578185 C-561.1173068310496 60.32284978788864, -581.6583069648356 277.53980912465295, -605.8128921399855 332.19405437795757" stroke="#1864ab" stroke-width="4" fill="none"></path></g><g transform="translate(2093.8707682291674 136.3428751627604) rotate(0 -303.01593428789795 155.43448078473924)"><path d="M-609.3038616461507 303.4469559706341 C-608.3812577193762 314.322196431963, -608.1300978131281 324.70397761683705, -605.9614622044407 332.56847305758237 M-607.4863658474586 301.7866546373408 C-606.5512894316815 313.00691314879447, -606.6214889663945 324.75415645362244, -605.5600273898833 332.2284065594369" stroke="#1864ab" stroke-width="4" fill="none"></path></g><g transform="translate(2093.8707682291674 136.3428751627604) rotate(0 -303.01593428789795 155.43448078473924)"><path d="M-589.507517919456 308.8529505544634 C-595.834096232548 317.7013506173613, -602.8727877617093 326.0924158437323, -605.9614622044407 332.56847305758237 M-587.6900221207638 307.1926492211701 C-594.2394896909668 316.55758973734044, -601.7967497345669 326.26026313983505, -605.5600273898833 332.2284065594369" stroke="#1864ab" stroke-width="4" fill="none"></path></g></g><g transform="translate(2168.134277343751 366.132822672526) rotate(0 165.5 22.5)"><text x="0" y="32" font-family="Virgil, Segoe UI Emoji" font-size="36px" fill="#1864ab" text-anchor="start" style="white-space: pre;" direction="ltr">Push to the stack</text></g><g><g transform="translate(1190.608154296876 590.6399841308594) rotate(0 -342.2096013176382 -82.39392931490539)"><path d="M0.3836648918688297 -0.9120045997202396 C-32.65732438787818 -38.22433016474048, -93.19450952435531 -205.40907763019203, -198.41060536131263 -223.84421330466864 C-303.62670119827 -242.27934897914525, -549.9926916224263 -159.10950990691776, -630.9129101298751 -111.52281864657995 C-711.8331286373239 -63.93612738624212, -675.2018664064508 33.111011439810206, -683.9319164060057 61.675934257358314 M-0.8740497692395002 1.223589040087536 C-34.07387963642366 -35.952732703738526, -94.29437522709057 -204.0264143639337, -199.45001820017583 -222.70135807062496 C-304.60566117326107 -241.37630177731623, -551.1441660673389 -157.85244029010641, -631.8079076077511 -110.82607320006002 C-712.4716491481632 -63.799706110013624, -674.7043933057755 31.045054135766502, -683.4324674426485 59.45684446965344" stroke="#1864ab" stroke-width="4" fill="none"></path></g><g transform="translate(1190.608154296876 590.6399841308594) rotate(0 -342.2096013176382 -82.39392931490539)"><path d="M-695.3840717710696 31.03883540170874 C-692.1233645802132 38.93746606243006, -689.8550372369228 48.20208648839521, -682.362469591843 61.32310070295818 M-693.6834478471569 31.856266588965912 C-690.8620458579222 36.87188931184646, -689.7636869749474 43.1083983215555, -683.1136655050237 60.34517555695958" stroke="#1864ab" stroke-width="4" fill="none"></path></g><g transform="translate(1190.608154296876 590.6399841308594) rotate(0 -342.2096013176382 -82.39392931490539)"><path d="M-674.863241506606 30.914225438564632 C-677.477155961575 38.91413848234076, -681.0834811467014 48.214431940323436, -682.362469591843 61.32310070295818 M-673.1626175826933 31.731656625821802 C-674.5018013500465 36.617111195422005, -677.5636692253935 42.87888261880264, -683.1136655050237 60.34517555695958" stroke="#1864ab" stroke-width="4" fill="none"></path></g></g><g transform="translate(292.1931152343757 292.6590881347656) rotate(0 175.00000000000006 22.5)"><text x="0" y="32" font-family="Virgil, Segoe UI Emoji" font-size="36px" fill="#1864ab" text-anchor="start" style="white-space: pre;" direction="ltr">Pop from the stack</text></g><g transform="translate(2226.555908203126 462.2057189941406) rotate(0 159.5 22.5)"><text x="0" y="32" font-family="Virgil, Segoe UI Emoji" font-size="36px" fill="#1864ab" text-anchor="start" style="white-space: pre;" direction="ltr">O(1) constant time</text></g><g transform="translate(309.9595947265632 366.6289978027344) rotate(0 159.50000000000006 22.5)"><text x="0" y="32" font-family="Virgil, Segoe UI Emoji" font-size="36px" fill="#1864ab" text-anchor="start" style="white-space: pre;" direction="ltr">O(1) constant time</text></g></svg>