<svg version="1.1" xmlns="http://www.w3.org/2000/svg" viewBox="0 0 1431.4581283789125 792.3393583219498" width="1431.4581283789125" height="792.3393583219498">
  <!-- svg-source:excalidraw -->
  
  <defs>
    <style>
      @font-face {
        font-family: "Virgil";
        src: url("https://excalidraw.com/FG_Virgil.woff2");
      }
      @font-face {
        font-family: "Cascadia";
        src: url("https://excalidraw.com/Cascadia.woff2");
      }
    </style>
  </defs>
  <rect x="0" y="0" width="1431.4581283789125" height="792.3393583219498" fill="#ffffff"></rect><g><g transform="translate(312.0303268556555 123.93992018676343) rotate(0.006282538096169619 -11.201022508065819 327.8238715199449)"><path d="M-0.8811949465423823 -0.9612645473331213 C-4.461222694278884 108.1813992796799, -18.866064894502998 545.8918515242439, -22.52053226321118 655.3595714273067 M0.8570389771834015 1.1484676199778914 C-2.755062431642044 110.40343702260009, -19.197056856645286 547.2788469538267, -23.25908399331497 656.6090075872229" stroke="#000000" stroke-width="1" fill="none"></path></g></g><g><g transform="translate(131.98204804706182 120.67270827270093) rotate(0.006282538096169619 -11.742009417596847 327.64596928525475)"><path d="M0.4300480160862208 -1.152215502038598 C-3.627357694716382 108.07879316120946, -19.953189384495857 545.7055950790447, -23.914066851279905 655.251470761946 M-0.803315504807979 0.8572674140520395 C-4.533418307309228 110.24696269193271, -17.804921703884393 546.994805874898, -21.724224240119774 656.4441540725479" stroke="#000000" stroke-width="1" fill="none"></path></g></g><g><g transform="translate(513.3154400528593 105.19150494556871) rotate(0 -10.918063581744264 337.4066450637673)"><path d="M-0.7333553161472082 0.2055342581123114 C-4.459262030990817 112.5937685228605, -18.52296530590404 562.0980511090254, -21.836267116572845 674.5376147957707 M1.082494413536042 -0.7321642017178238 C-2.869246075516589 111.7539552193042, -19.259698260976116 562.7915768248869, -22.918621577024595 675.5454543292524" stroke="#000000" stroke-width="1" fill="none"></path></g></g><g><g transform="translate(717.1855892189589 95.41123280018573) rotate(0 -5.254475409667862 331.96223502634086)"><path d="M-0.33349451757967474 1.086141911521554 C-2.4216742687237494 111.37628613708539, -9.767476380771514 551.8221822842023, -11.860198291949768 662.0577194998784 M1.6922821313515306 0.6107624697312715 C-0.5112774599281185 111.0306435109861, -9.65434125949305 552.7876215169764, -12.201232950687249 663.3137075829504" stroke="#000000" stroke-width="1" fill="none"></path></g></g><g><g transform="translate(919.8713036391881 126.12420040443541) rotate(0 -4.261856791749551 327.55894083119927)"><path d="M0.9718900110572577 -1.0972762551158666 C-0.47806895909208524 108.2159874572108, -7.897706468279088 546.8246286564817, -9.49560359455636 656.2151579175144 M0.022993537522852492 0.941049765609205 C-0.9947845523183394 109.89758683270463, -5.740468090834642 545.2983462773387, -7.320257174633353 654.5621940210088" stroke="#000000" stroke-width="1" fill="none"></path></g></g><g><g transform="translate(73.34697884459013 317.7824395379797) rotate(0 529.6175698867628 0.12891240226105083)"><path d="M-0.08951406218111524 -0.9332955446094274 C176.47716857544458 -0.7749742969063467, 881.8230343412298 0.7942875925761732, 1058.4911806781963 1.1068397210165586 M-1.5956476741656662 1.1911203491315248 C175.44048578891284 0.9802370291637834, 883.9763271489803 -0.31858948767808376, 1060.8307874476911 -0.7147899997234619" stroke="#000000" stroke-width="1" fill="none"></path></g></g><g><g transform="translate(10.84632851816707 242.7800530202687) rotate(0 576.9155670834704 -3.4431588871404415)"><path d="M-0.846328518167138 -0.3239004459232092 C191.40063599962738 -1.2269436828171252, 962.2491760695351 -5.8583559487636085, 1154.677462685108 -6.56241732835772 M0.9102102804556491 -1.5395521253719926 C192.98216969490048 -2.2239391549428342, 962.2431737051902 -4.738485241184651, 1154.2552440128845 -5.539944223575317" stroke="#000000" stroke-width="1" fill="none"></path></g></g><g><g transform="translate(601.7865899127248 -123.1900395329306) rotate(89.35280621333912 -2.0042324922733314 538.190223246591)"><path d="M0.8274024512618781 1.1437248621135951 C-0.14056499102885023 180.05663515122046, -3.9240023647335422 895.6284374714547, -4.83586743580845 1074.6589087194238 M-0.19734999116510155 0.6985764693841339 C-0.8733865588697246 180.2367339043822, -1.6470471221667777 896.3849514117369, -2.573932879629701 1075.681870023798" stroke="#000000" stroke-width="1" fill="none"></path></g></g><g><g transform="translate(628.5763228845639 -20.63938671239623) rotate(268.29975045631403 -21.08046178410774 556.0122722072333)"><path d="M0.32315472699701786 -0.99817312695086 C-6.375809040634628 184.4061504833056, -34.285528521084764 926.274513504482, -41.31815203297911 1111.589321810173 M-0.9663277706690133 1.0921820360608399 C-7.761243968668129 186.75673937818317, -36.06392568135036 927.9151903239592, -42.48407829521251 1113.0227175414173" stroke="#000000" stroke-width="1" fill="none"></path></g></g><g><g transform="translate(619.5272459861409 75.45878519605208) rotate(268.29975045631403 -19.676114275343764 559.5616039723786)"><path d="M-0.6040501322597265 -0.503934309259057 C-7.416651178480455 186.23889326715448, -33.52159245700275 933.050156506597, -40.20202072795492 1119.9050190714138 M1.2796848189644514 -1.8141037669591606 C-5.663517447983243 185.09719809803715, -33.55386927912642 933.6656757746068, -40.63191336965199 1120.9373117117161" stroke="#000000" stroke-width="1" fill="none"></path></g></g><g transform="translate(160.59381060078715 188.70539389587938) rotate(0 55.5 12.5)"><text x="0" y="18" font-family="Virgil, Segoe UI Emoji" font-size="20px" fill="#000000" text-anchor="start" style="white-space: pre;" direction="ltr">00000001</text></g><g transform="translate(354.22674517109965 185.61854086853563) rotate(0 48 12.5)"><text x="0" y="18" font-family="Virgil, Segoe UI Emoji" font-size="20px" fill="#000000" text-anchor="start" style="white-space: pre;" direction="ltr">0000010</text></g><g transform="translate(759.3858027882872 366.51270590759816) rotate(0 48 12.5)"><text x="0" y="18" font-family="Virgil, Segoe UI Emoji" font-size="20px" fill="#000000" text-anchor="start" style="white-space: pre;" direction="ltr">0000010</text></g><g transform="translate(201.2858882375059 155.6165572259575) rotate(0 7.5 12.5)"><text x="0" y="18" font-family="Virgil, Segoe UI Emoji" font-size="20px" fill="#000000" text-anchor="start" style="white-space: pre;" direction="ltr">0</text></g><g transform="translate(404.72259478047465 135.639872655645) rotate(0 2 12.5)"><text x="0" y="18" font-family="Virgil, Segoe UI Emoji" font-size="20px" fill="#000000" text-anchor="start" style="white-space: pre;" direction="ltr">1</text></g><g transform="translate(595.6562495656309 112.30045615173876) rotate(0 7.5 12.5)"><text x="0" y="18" font-family="Virgil, Segoe UI Emoji" font-size="20px" fill="#000000" text-anchor="start" style="white-space: pre;" direction="ltr">2</text></g><g transform="translate(819.2418208546934 126.53739462830126) rotate(0 7 12.5)"><text x="0" y="18" font-family="Virgil, Segoe UI Emoji" font-size="20px" fill="#000000" text-anchor="start" style="white-space: pre;" direction="ltr">3</text></g><g transform="translate(182.1672358937559 261.52234946228566) rotate(0 6 12.5)"><text x="0" y="18" font-family="Virgil, Segoe UI Emoji" font-size="20px" fill="#000000" text-anchor="start" style="white-space: pre;" direction="ltr">4</text></g><g transform="translate(357.6385493703184 253.62482748962938) rotate(0 7 12.5)"><text x="0" y="18" font-family="Virgil, Segoe UI Emoji" font-size="20px" fill="#000000" text-anchor="start" style="white-space: pre;" direction="ltr">5</text></g><g transform="translate(558.7202144093809 254.95820151306688) rotate(0 5 12.5)"><text x="0" y="18" font-family="Virgil, Segoe UI Emoji" font-size="20px" fill="#000000" text-anchor="start" style="white-space: pre;" direction="ltr">6</text></g><g transform="translate(764.7021480031309 254.15116415955126) rotate(0 4 12.5)"><text x="0" y="18" font-family="Virgil, Segoe UI Emoji" font-size="20px" fill="#000000" text-anchor="start" style="white-space: pre;" direction="ltr">7</text></g><g transform="translate(191.52175859883403 355.2788497064263) rotate(0 6.5 12.5)"><text x="0" y="18" font-family="Virgil, Segoe UI Emoji" font-size="20px" fill="#000000" text-anchor="start" style="white-space: pre;" direction="ltr">8</text></g><g transform="translate(374.508086723834 344.79868613220754) rotate(0 5.5 12.5)"><text x="0" y="18" font-family="Virgil, Segoe UI Emoji" font-size="20px" fill="#000000" text-anchor="start" style="white-space: pre;" direction="ltr">9</text></g><g transform="translate(562.4132380910215 343.7468672845513) rotate(0 9.5 12.5)"><text x="0" y="18" font-family="Virgil, Segoe UI Emoji" font-size="20px" fill="#000000" text-anchor="start" style="white-space: pre;" direction="ltr">10</text></g><g transform="translate(743.853057426959 325.23780356384816) rotate(0 3.5 12.5)"><text x="0" y="18" font-family="Virgil, Segoe UI Emoji" font-size="20px" fill="#000000" text-anchor="start" style="white-space: pre;" direction="ltr">11</text></g><g transform="translate(193.22051958516215 457.65342246033254) rotate(0 9.5 12.5)"><text x="0" y="18" font-family="Virgil, Segoe UI Emoji" font-size="20px" fill="#000000" text-anchor="start" style="white-space: pre;" direction="ltr">12</text></g><g transform="translate(387.3996577687559 462.6468916986138) rotate(0 9 12.5)"><text x="0" y="18" font-family="Virgil, Segoe UI Emoji" font-size="20px" fill="#000000" text-anchor="start" style="white-space: pre;" direction="ltr">13</text></g><g transform="translate(592.6105952687559 453.75889121033254) rotate(0 7.5 12.5)"><text x="0" y="18" font-family="Virgil, Segoe UI Emoji" font-size="20px" fill="#000000" text-anchor="start" style="white-space: pre;" direction="ltr">14</text></g><g transform="translate(808.1153560109434 451.91001425720754) rotate(0 9 12.5)"><text x="0" y="18" font-family="Virgil, Segoe UI Emoji" font-size="20px" fill="#000000" text-anchor="start" style="white-space: pre;" direction="ltr">15</text></g><g transform="translate(196.3326411671934 586.99607382752) rotate(0 7 12.5)"><text x="0" y="18" font-family="Virgil, Segoe UI Emoji" font-size="20px" fill="#000000" text-anchor="start" style="white-space: pre;" direction="ltr">16</text></g><g transform="translate(395.4500728078184 572.66990195252) rotate(0 5.5 12.5)"><text x="0" y="18" font-family="Virgil, Segoe UI Emoji" font-size="20px" fill="#000000" text-anchor="start" style="white-space: pre;" direction="ltr">17</text></g><g transform="translate(560.5502925343809 576.169169530645) rotate(0 8 12.5)"><text x="0" y="18" font-family="Virgil, Segoe UI Emoji" font-size="20px" fill="#000000" text-anchor="start" style="white-space: pre;" direction="ltr">18</text></g><g transform="translate(797.2016597218809 566.365458593145) rotate(0 7 12.5)"><text x="0" y="18" font-family="Virgil, Segoe UI Emoji" font-size="20px" fill="#000000" text-anchor="start" style="white-space: pre;" direction="ltr">19</text></g><g><g transform="translate(1058.3571773000058 12.978495702520007) rotate(0 1.629614807693315 48.83254599235952)"><path d="M1.084851375594735 -1.1392486665397883 C1.6538180782149234 15.370556539917985, 2.772535108899077 82.23275680405398, 3.0639699969440697 98.80434065125883 M0.19525961844250572 0.8770418381877243 C0.7179817039581637 17.022934791861722, 2.229842936278631 80.36889224252974, 2.6029236987046898 96.798478338141" stroke="#000000" stroke-width="1" fill="none"></path></g></g><g><g transform="translate(1064.6999507375058 111.98832236267626) rotate(0 37.297485155742606 -0.9364145193248987)"><path d="M0.7320280585438013 0.5264139678329229 C12.747339391087491 0.10070014658073584, 60.517534108335774 -1.7062917126963537, 72.57827505208552 -2.3992430064827204 M-0.34279594006016856 -0.242822644393891 C12.02318959671383 -0.47402406442289546, 62.83890586354459 -0.3902960277410845, 74.9377662515454 -0.8395538785867394" stroke="#000000" stroke-width="1" fill="none"></path></g></g><g><g transform="translate(1063.1739497609433 11.880442724004382) rotate(0 40.06385875615297 0.6321877262182554)"><path d="M0.6093670997768641 0.35927332900464526 C14.118244691068927 0.2966369257618983, 67.5279834502687 0.6248996085176864, 80.65757141448557 0.6726746585220098 M-0.5298539021797479 -0.49771211860701436 C12.862876270494112 0.08760735891138516, 66.05512156653529 1.4289099125253657, 79.75302975205705 1.762087571043521" stroke="#000000" stroke-width="1" fill="none"></path></g></g><g><g transform="translate(1331.0349116750058 13.026377782598132) rotate(0 43.142563030598694 -1.3364569339901209)"><path d="M-0.2012066569179296 0.35346391461789617 C14.47458975253006 -0.19689717429379616, 73.57672950762014 -2.484145432089766, 88.05110494233668 -3.026377782598138 M-1.7659788811393082 -0.5065714755468071 C12.792072142542652 -0.8744488764616352, 72.20830757059778 -1.3094674383414286, 87.34278630195186 -1.4754677983932196" stroke="#000000" stroke-width="1" fill="none"></path></g></g><g><g transform="translate(1418.3242183156308 12.721171483770007) rotate(0 1.3867804858833779 45.25481226486154)"><path d="M-0.360349091514945 0.7890034820884466 C-0.0018628881623347637 15.906414431954424, 2.5914078229417403 75.39646580082675, 3.1339100632816552 90.3519981648773 M1.6513289061002432 0.15762636484578252 C1.7996517873617508 14.98131665509815, 2.2965416108382244 73.9495413520125, 2.389083642642945 88.71584751369431" stroke="#000000" stroke-width="1" fill="none"></path></g></g><g><g transform="translate(1421.0710444875058 102.14664755798876) rotate(0 -40.8753202064521 1.1034321455843639)"><path d="M0.24350757859647265 -0.8456735696643591 C-13.269909184550247 -0.401208158954978, -67.43306101697186 1.2368460807949306, -81.09393986202777 1.9391556534916163 M-1.0877896719798446 1.3247438609227538 C-14.750078897637627 1.9665714001283048, -68.38057378506909 3.048017259798944, -81.9941479915008 3.0525378608331084" stroke="#000000" stroke-width="1" fill="none"></path></g></g><g transform="translate(1122.4327388234433 39.946742162480945) rotate(0 3 22.5)"><text x="0" y="32" font-family="Virgil, Segoe UI Emoji" font-size="36px" fill="#000000" text-anchor="start" style="white-space: pre;" direction="ltr">1</text></g><g transform="translate(1227.2581782765683 39.64153586365282) rotate(0 13.5 22.5)"><text x="0" y="32" font-family="Virgil, Segoe UI Emoji" font-size="36px" fill="#000000" text-anchor="start" style="white-space: pre;" direction="ltr">2</text></g><g transform="translate(1342.0856929250058 37.64843283630907) rotate(0 13 22.5)"><text x="0" y="32" font-family="Virgil, Segoe UI Emoji" font-size="36px" fill="#000000" text-anchor="start" style="white-space: pre;" direction="ltr">3</text></g><g transform="translate(538.1941523976622 180.75409995056688) rotate(0 54.5 13.5)"><text x="0" y="19" font-family="Virgil, Segoe UI Emoji" font-size="21.838427734374992px" fill="#000000" text-anchor="start" style="white-space: pre;" direction="ltr">00000011</text></g><g><g transform="translate(760.4343257375059 176.66425620056688) rotate(0 58.52116107064876 13.981896497575804)"><path d="M0.5740337278693914 1.182077983394265 C4.0663869486500825 -1.408818468078971, 20.179991021379827 -14.64664631349345, 21.450838377699256 -14.419970616325736 C22.721685734018685 -14.193294919158022, 6.643949551011125 2.843545738235116, 8.199117865785956 2.5421321664005516 C9.754286180560786 2.2407185945659873, 29.63166156473259 -16.602212552850446, 30.78184826634824 -16.22845204733312 C31.932034967963894 -15.854691541815797, 12.511620714887977 3.5183432175467413, 15.100238075479865 4.784695199504495 C17.688855436071755 6.051047181462248, 46.89045948845645 -9.607669437552492, 46.31355242989957 -8.6303401555866 C45.736645371342696 -7.653010873620708, 13.509181303406756 8.714435354247689, 11.638795724138618 10.648670891299844 C9.76841014487048 12.582906428351999, 34.68813528083265 1.7302030437936382, 35.091238954290745 2.9750730667263268 C35.49434262774884 4.219943089659015, 17.65627649885913 15.347843876853586, 14.057417764887214 18.117891028895976 C10.458559030915302 20.887938180938363, 8.630682594204941 21.08017320173482, 13.498086550459266 19.59535597898066 C18.36549050671359 18.1105387562265, 37.26000265541176 11.64960414506495, 43.261841502413155 9.20898769237101 C49.26368034941455 6.768371239677071, 51.88070315383375 3.801318998510639, 49.50911963246763 4.951657262817025 C47.13753611110151 6.101995527123411, 26.06352790457507 18.0742124153922, 29.03234037421644 16.111017278209328 C32.0011528438578 14.147822141026456, 64.78075473966697 -6.845705879355471, 67.32199445031583 -6.827513560280204 C69.86323416096468 -6.8093212412049375, 42.71881350936989 15.872299384449919, 44.27977863810956 16.220171192660928 C45.840743766849236 16.56804300087194, 74.98858474753797 -5.0734909500926735, 76.68778522275389 -4.740282711014151 C78.3869856979698 -4.407074471935629, 58.44638355833789 14.1157136036704, 54.47498148940504 18.21942062713206 C50.503579420472185 22.32312765059372, 46.50568650426964 22.76079317269226, 52.859372809156774 19.881959429755806 C59.21305911404391 17.003125686819352, 86.39944036267698 2.4169642283270756, 92.59709931872786 0.9464181695133449 C98.79475827477873 -0.5241278893003858, 93.05121691090366 5.105034672593077, 90.04532654546202 11.058683076873422 C87.03943618002037 17.012331481153765, 73.18807099921008 36.425232370073594, 74.561757126078 36.66830859519541 C75.93544325294593 36.91138482031723, 97.44536232811708 12.835237577930092, 98.28744330666959 12.517140427604318 C99.12952428522209 12.199043277278543, 78.66795987548927 34.412468305602665, 79.614242997393 34.75972569324076 C80.56052611929674 35.106983080878855, 97.90689716997245 18.721643181021015, 103.96514203809201 14.60068475343287 C110.02338690621157 10.479726325844723, 117.08151421807706 6.783107256268462, 115.96371220611036 10.033975127711892 C114.84591019414366 13.284842999155323, 96.1750182138135 33.05885190504293, 97.25832996629178 34.10589198209345 C98.34164171877006 35.15293205914398, 119.7918321715047 16.529405895248058, 122.46358272098004 16.316215590015055 C125.13533327045539 16.103025284782053, 118.92231253646314 26.852114807938538, 113.2888332631439 32.826750150695446 C107.65535398982466 38.80138549345235, 86.18928645712634 54.54148466524978, 88.66270708106458 52.1640276465565 C91.13612770500282 49.78657062786321, 129.17115969521302 20.687264612689617, 128.12935700677335 18.562008038535716 C127.08755431833366 16.436751464381814, 91.93338228327532 35.57067209817469, 82.41189095042645 39.412488201633096 C72.89039961757759 43.2543043050915, 71.42916467053195 43.12636796968679, 71.00040900968015 41.612904659286144 C70.57165334882836 40.0994413488855, 74.5595322476079 35.01312806544205, 79.83935698531567 30.331708339229227 C85.11918172302344 25.650288613016407, 104.80606867335736 13.55834496356547, 102.67935743592679 13.524386302009225 C100.55264619849622 13.49042764045298, 77.77823439699908 25.665756050124763, 67.07908956073224 30.127956369891763 C56.37994472446541 34.59015668965876, 37.53844803832472 42.99168456730744, 38.48448841832578 40.29758822061122 C39.43052879832685 37.603491873915, 74.99036356868842 14.91051914629837, 72.75533184073865 13.963378289714456 C70.52030011278887 13.016237433130541, 27.698133006319406 35.02851487336059, 25.074298050627114 34.61474308110773 C22.450463094934822 34.20097128885487, 62.36730241241554 11.190116532022753, 57.012322106584904 11.480747536197304 C51.65734180075427 11.771378540371856, -4.30576183932523 37.07528729774058, -7.055583784356713 36.35852910615504 C-9.805405729388196 35.6417709145695, 38.79399965864916 9.375852528586984, 40.513390436396 7.18019838668406 C42.23278121414284 4.9845442447811354, 1.719744458422065 26.654955128207803, 3.2607608821243046 23.184604254737497 C4.801777305826544 19.71425338126719, 41.700574122493464 -7.267609167719881, 49.75948897860944 -13.641906854137778 C57.818403834725416 -20.016204540555677, 60.537424523259205 -19.52081374786794, 51.614250018820165 -15.061181863769889 C42.691075514381126 -10.601549979671837, 2.7909198469171925 12.179352211331329, -3.7795580480247737 13.11588445045054 C-10.35003594296674 14.052416689569752, 14.5705001976341 -7.027631716554364, 12.191382649168371 -9.441988429054618 C9.812265100702643 -11.856345141554872, -14.99880187250674 -1.5499066041161618, -18.054263338819148 -1.3702558245509864 C-21.109724805131556 -1.190605044985811, -11.891937535380325 -4.374507566913962, -6.141386148706078 -8.364083751663566 C-0.3908347620318322 -12.35365993641317, 16.85697862568001 -25.84875923059881, 16.449044981226326 -25.307712933048606 C16.04111133677264 -24.766666635498403, -9.128469404950739 -7.3761823064337175, -8.588988015428185 -5.117805966362357 C-8.049506625905632 -2.859429626290997, 13.374248483404518 -10.300759745265047, 19.68593331836164 -11.757454892620444 C25.997618153318765 -13.214150039975841, 28.387556607152025 -14.56463632248342, 29.281120994314552 -13.857976850494742 C30.17468538147708 -13.151317378506064, 31.749549041812617 -11.995689845706025, 25.0473196413368 -7.517498060688377 C18.34509024086098 -3.039306275670728, -18.858312624072035 12.585773288582761, -10.932255408540367 13.011173859611153 C-3.006198193008701 13.436574430639546, 63.78572047017514 -5.269845104838411, 72.6036629345268 -4.965094634518027 C81.42160539887846 -4.660344164197643, 47.87822628679375 10.920796445384623, 41.97539937756956 14.839676681533456 C36.07257246834537 18.75855691768229, 35.07624421380461 18.45806923645238, 37.18670147918165 18.548186782374977 C39.29715874455869 18.638304328297572, 42.75829394521813 18.023289389784136, 54.638142969831826 15.380381957069039 C66.51799199444552 12.73747452435394, 103.07751675707598 3.0124997927496833, 108.46579562686384 2.69074218608439 C113.85407449665169 2.3689845794190965, 92.69159901005527 10.064608322953184, 86.96781618855894 13.44983631707728 C81.24403336706261 16.835064311201375, 67.29611362082262 24.030331126227974, 74.12309869788587 23.00211015082896 C80.9500837749491 21.973889175429942, 122.405249228701 8.708675364032388, 127.92972665093839 7.280510464683175 C133.4542040731758 5.852345565333962, 114.32363636754452 11.089523441965381, 107.26996323131024 14.433120754733682 C100.21629009507596 17.77671806750198, 80.85018454256158 27.851476434245704, 85.6076878335327 27.342094341292977 C90.36519112450381 26.83271224834025, 134.59598994515835 9.881168658907216, 135.81498297713696 11.376828197017312 C137.03397600911558 12.87248773512741, 96.32642529668907 33.51912949420512, 92.92164602540433 36.31605156995356 C89.51686675411959 39.112973645702, 113.7087025112162 27.635129244501393, 115.38630734942853 28.158360651507973 C117.06391218764087 28.681592058514553, 105.21144138040643 37.62398602503041, 102.98727505467832 39.45544001199305 M-0.5837372943386436 0.757064979337156 C2.714686157641312 -1.6277012524381278, 19.13543714080006 -16.46701577955236, 20.548119536973537 -15.941131287552416 C21.960801933147014 -15.415246795552472, 6.149453421371678 3.7808719125017527, 7.892357082702219 3.9123719313368204 C9.63526074403276 4.043871950171888, 30.063419589536885 -15.300597224769493, 31.00554150495678 -15.15213117454201 C31.947663420376678 -15.003665124314526, 11.295122510530055 3.8435206562901536, 13.545088575221598 4.803168232701719 C15.795054639913142 5.762815809113284, 44.77060507172098 -10.6602196754391, 44.505337893106045 -9.39424571607262 C44.24007071449111 -8.12827175670614, 13.736648278969028 10.452812720797956, 11.953485503531992 12.399011988900602 C10.170322728094956 14.345211257003248, 33.19199602875859 1.5223661767070493, 33.806361240483824 2.2829498925432565 C34.42072645220906 3.0435336083794637, 18.932865362105268 14.198861631415785, 15.639676773883401 16.962514283917844 C12.346488185661533 19.726166936419904, 9.338713066118459 19.94908293909083, 14.047229711152614 18.864865807555617 C18.75574635618677 17.780648676020405, 38.15193456723044 12.854919544719161, 43.89077664408833 10.457211494706572 C49.62961872094621 8.059503444693982, 50.91035986218601 3.7202878708268203, 48.48028217229992 4.4786175074800845 C46.05020448241383 5.236947144133349, 26.299963478979965 17.005824514093497, 29.31031050477177 15.007189314626157 C32.32065753056357 13.008554115158816, 63.93837115003417 -7.6339610446865365, 66.54236432705075 -7.513193689323962 C69.14635750406732 -7.392426333961387, 43.113727813499665 15.600674033028385, 44.93426956687122 15.731793446801603 C46.75481132024278 15.862912860574822, 76.04124627862124 -7.208724028803408, 77.46561484728008 -6.726477206684649 C78.88998341593891 -6.24423038456589, 57.23044111245622 14.227908449831107, 53.4804809788242 18.625274379514156 C49.730520845192174 23.022640309197207, 48.113105527895186 22.66448260174443, 54.96585404548794 19.657718371413647 C61.81860256308069 16.650954141082863, 88.63187014017254 1.7347537166501081, 94.59697208438068 0.5846889975294469 C100.56207402858882 -0.5653757215912143, 94.27760775202263 6.407326327425738, 90.7564657107368 12.75733005668968 C87.23532366945098 19.10733378595362, 72.14854142659654 38.39323274201403, 73.47011983666569 38.684711373113096 C74.79169824673484 38.976190004212164, 97.57131626480569 15.22771547343582, 98.6859361711517 14.506201843284071 C99.8005560774977 13.784688213132322, 79.00845383240531 34.50626259949058, 80.1578392747417 34.355629592202604 C81.3072247170781 34.204996584914625, 99.37125743343184 18.115920628967384, 105.5822488251701 13.602403799556196 C111.79324021690836 9.088886970145008, 119.18820403728634 3.917370307308932, 117.42378762517124 7.274528615735472 C115.65937121305615 10.631686924162011, 94.01675498836984 32.35469651407252, 94.99575035247952 33.74535365011543 C95.9747457165892 35.136010786158344, 120.5469546388959 15.986029335521161, 123.2977598098293 15.618471431992948 C126.0485649807627 15.250913528464734, 117.29239795956761 25.26557348356893, 111.50058137807996 31.54000622894615 C105.7087647965923 37.81443897432337, 86.09301781171312 55.0977019237106, 88.54686032090336 53.265067904256284 C91.0007028300936 51.432433884801966, 127.3444428574418 23.088788557313382, 126.2236364332214 20.544202112220226 C125.102830009001 17.99961566712707, 91.01571321719636 34.7671834006533, 81.82202177558094 37.997549233697356 C72.62833033396551 41.22791506674141, 71.20624661558618 41.328937682571514, 71.06148778352886 39.926397110484544 C70.91672895147154 38.523856538397574, 75.94214290612688 33.83222543464353, 80.95346878323704 29.582305801175536 C85.96479466034721 25.332386167707543, 103.19517739806325 14.465595240853727, 101.12944304618985 14.426879309676588 C99.06370869431645 14.38816337849945, 78.99636937850465 24.849448305629195, 68.55906267199666 29.3500102141127 C58.12175596548865 33.850572122596205, 37.5673134926334 44.18602950201681, 38.50560280714184 41.43025076057762 C39.44389212165028 38.674472019138435, 76.27470692469429 14.128656904560824, 74.18879855904729 12.815337765477597 C72.10289019340028 11.50201862639437, 28.985862093307077 33.70927285538366, 25.990152613259852 33.55033592607826 C22.994443133212627 33.391398996772864, 61.95585264756034 11.318517206373315, 56.21454167876393 11.86171618964523 C50.47323070996752 12.404915172917146, -5.816810263457397 37.47680601384491, -8.45771319951862 36.80952982570976 C-11.098616135579844 36.14225363757461, 38.71394473069658 10.604425329230725, 40.36912406239659 7.858059060834348 C42.02430339409659 5.111692792437971, -0.4425956675037739 23.97473656203598, 1.4733627906814217 20.331332215331496 C3.3893212488666173 16.687927868627014, 43.48016644233217 -8.326738233702876, 51.86487481150776 -14.00236701939255 C60.24958318068335 -19.677995805082222, 61.15828045799087 -18.303988315798343, 51.78161300573498 -13.722440498806536 C42.404945553479095 -9.14089268181473, 1.941351278560857 12.80498908267667, -4.395129902027548 13.486919882558286 C-10.731611082615952 14.168850682439903, 16.147916908599434 -7.015576708850761, 13.762725922204554 -9.630855699516832 C11.377534935809672 -12.246134690182904, -14.941525011919438 -2.2385691946124036, -18.70627582039684 -2.2047540614381433 C-22.47102662887424 -2.170938928263883, -14.613843379480143 -5.8615081093087795, -8.825778928659856 -9.42796490047127 C-3.03771447783957 -12.994421691633761, 15.863796685474615 -24.344194885231556, 16.02211088452488 -23.60349480841309 C16.180425083575148 -22.862794731594622, -8.652954182289541 -6.690869227784375, -7.875893734358251 -4.983764439560472 C-7.098833286426961 -3.27665965133657, 14.511867965795098 -12.31072526945422, 20.68447357211262 -13.360866079069673 C26.85707917843014 -14.411006888685126, 28.361738471525413 -12.22186115477234, 29.15973990354687 -11.28460929725319 C29.95774133556833 -10.347357439734042, 32.32966962331285 -11.885100247996549, 25.472482164241374 -7.737354933954776 C18.615294705169894 -3.589609619913002, -19.71784158991029 13.333063310248155, -11.983384850881993 13.601862586997449 C-4.248928111853697 13.870661863746742, 62.70235628042371 -6.652648596900204, 71.87922259841115 -6.124559273459017 C81.0560889163986 -5.59646995001783, 49.11086097194503 12.219683382771908, 43.07781305704266 16.770398527644574 C37.04476514214029 21.32111367251724, 33.55759883556515 21.447016239824393, 35.68093510899693 21.179731595776975 C37.8042713824287 20.912446951729557, 43.68909371568511 17.949009601535895, 55.817830697633326 15.16669066336006 C67.94656767958155 12.384371725184222, 103.3878582262372 4.625557673635583, 108.45335700068622 4.485817966721952 C113.51885577513525 4.346078259808322, 92.26856725328912 11.068677464586994, 86.21082334432751 14.328252421878279 C80.1530794353659 17.587827379169564, 65.08764942639817 25.065202063582838, 72.10689354691654 24.043267710469664 C79.1261376674349 23.02133335735649, 122.12026628527789 9.857013387940825, 128.3262880674377 8.196646303199232 C134.5323098495975 6.53627921845764, 116.61838845167308 11.197376411619285, 109.34302423987538 14.081065202020108 C102.06766002807767 16.96475399242093, 80.11088270618271 25.74253258969635, 84.67410279665143 25.49877904560417 C89.23732288712014 25.25502550151199, 135.80766970310358 10.704764433565238, 136.7223447826877 12.618543937467038 C137.63701986227184 14.532323441368838, 93.5480638141806 34.33200732734054, 90.16215327415615 36.98145606901497 C86.77624273413171 39.630904810689394, 114.1445857913668 28.186945393743613, 116.40688154254109 28.51523638751358 C118.66917729371538 28.843527381283543, 106.3387814517195 36.856568378868204, 103.7359277812019 38.95120203163475" stroke="#000000" stroke-width="1" fill="none"></path></g></g></svg>